<svg width="149" height="149" viewBox="0 0 149 149" fill="none" xmlns="http://www.w3.org/2000/svg">
<path d="M142.653 80.3771C141.874 89.3515 139.332 98.0842 135.174 106.075C131.015 114.066 125.321 121.158 118.418 126.946C111.516 132.734 103.539 137.104 94.9453 139.805C86.3516 142.506 77.3096 143.486 68.3367 142.689C57.1991 141.764 46.4694 138.07 37.1237 131.941L5.73926 137.258L15.3432 109.303C9.83829 100.007 6.60798 89.541 5.91561 78.7591C5.22325 67.9771 7.08844 57.1841 11.3591 47.2598C15.6298 37.3355 22.1852 28.5609 30.4908 21.651C38.7965 14.7411 48.6174 9.89163 59.1531 7.49781C69.6887 5.10399 80.6409 5.23358 91.117 7.87603C101.593 10.5185 111.296 15.599 119.436 22.7035C127.576 29.8079 133.922 38.7353 137.957 48.7578C141.991 58.7804 143.601 69.6145 142.653 80.3771Z" fill="#C3E5E0"/>
<g filter="url(#filter0_i)">
<path d="M1.34872 140.928C1.99241 141.683 2.8201 142.258 3.75156 142.598C4.68303 142.939 5.68668 143.033 6.66522 142.872L35.9117 137.967C45.6282 143.833 56.5561 147.404 67.8621 148.405C70.0763 148.6 72.2791 148.697 74.4705 148.697C88.6064 148.672 102.442 144.616 114.354 137.005C126.266 129.394 135.76 118.543 141.722 105.726C147.684 92.909 149.868 78.6575 148.015 64.6434C146.163 50.6294 140.353 37.4343 131.266 26.6063C119.434 12.4688 102.768 3.2364 84.5071 0.704217C66.2466 -1.82796 47.697 2.52101 32.4648 12.9056C17.2327 23.2901 6.4066 38.9681 2.09155 56.8912C-2.2235 74.8143 0.28085 93.7016 9.11767 109.881L0.31401 135.371C-0.00987388 136.308 -0.0847837 137.312 0.0966123 138.287C0.278008 139.261 0.709479 140.171 1.34872 140.928ZM11.6959 68.8981C13.1487 52.2842 21.1416 36.9279 33.9165 26.2071C46.6913 15.4864 63.2017 10.2793 79.8156 11.7315C88.0696 12.4157 96.1071 14.7236 103.467 18.5228C110.826 22.3219 117.363 27.5375 122.701 33.87C128.039 40.2025 132.073 47.5271 134.573 55.4232C137.072 63.3194 137.987 71.6315 137.265 79.8822C136.543 88.1329 134.198 96.1597 130.365 103.502C126.532 110.844 121.287 117.356 114.93 122.665C108.573 127.974 101.23 131.975 93.3221 134.438C85.4146 136.901 77.0984 137.778 68.8511 137.018C58.6355 136.15 48.7938 132.766 40.2049 127.168C39.2782 126.569 38.1982 126.252 37.095 126.253C36.7789 126.254 36.4635 126.281 36.1518 126.333L14.257 130.003L20.7625 111.138C21.034 110.354 21.1311 109.519 21.0472 108.692C20.9633 107.866 20.7003 107.068 20.2766 106.354C13.5452 95.0808 10.5424 81.9713 11.6959 68.8924V68.8981Z" fill="#184B67"/>
</g>
<g filter="url(#filter1_i)">
<path d="M92.1123 94.7867V97.0625C92.1123 97.776 91.5279 98.3665 90.8083 98.3665H87.1916C86.4904 98.3419 85.9245 97.776 85.9245 97.0625V94.7867C85.9245 94.0302 86.5396 93.4151 87.2962 93.4151H90.6238C91.3557 93.452 91.9277 94.0486 91.9277 94.7867H92.1123ZM96.2333 74.4582C94.6157 73.1542 92.5305 72.3669 90.267 72.3608H89.1476C86.9948 72.3608 84.9957 73.0558 83.3658 74.2245L83.3965 74.1999C81.988 75.2824 81.09 76.9677 81.0838 78.8622C81.0838 79.342 81.4713 79.7295 81.9511 79.7295H85.7461C85.7523 79.7295 85.7584 79.7295 85.7707 79.7295C86.3735 79.7295 86.8717 79.342 87.044 78.7945V78.7884C87.167 78.3394 87.4069 77.958 87.7329 77.6689C88.2372 77.2015 88.9261 76.9124 89.6704 76.9124C89.6765 76.9124 89.6765 76.9124 89.6827 76.9124H90.0456C91.5648 76.9124 92.795 78.1425 92.795 79.6618C92.8012 79.7418 92.8073 79.8279 92.8073 79.914C92.8073 80.0001 92.8012 80.0862 92.795 80.1723V80.1662V80.3138C92.7889 81.1749 92.5367 81.9684 92.1 82.645L92.1061 82.6327C91.6079 83.34 91.0051 83.9428 90.3224 84.4287L90.2978 84.441C89.0799 85.2099 88.0466 86.1386 87.21 87.2335L87.1854 87.2642C86.6503 87.9962 86.312 88.9065 86.2813 89.8968V89.903C86.2751 89.9399 86.2751 89.9768 86.2751 90.0137C86.2751 90.4934 86.6626 90.8809 87.1424 90.8809C87.1731 90.8809 87.1977 90.8809 87.2223 90.8748H91.3434C91.8355 90.844 92.2353 90.4873 92.3214 90.0137V90.0075C92.3952 89.4293 92.5367 88.9004 92.7335 88.4083L92.7212 88.4514C93.0779 87.7686 93.5946 87.2212 94.2282 86.8337L94.2405 86.8275C95.569 86.1325 96.6823 85.1791 97.5558 84.0289L97.5681 84.0043C98.4046 82.9094 98.9212 81.5317 98.9397 80.0309V80.0247C98.7921 77.792 97.7956 75.8052 96.2702 74.3905L96.2641 74.3844L96.2333 74.4582ZM34.0299 80.3199C33.0703 80.9781 32.4368 82.0791 32.4368 83.3154V83.3216C32.4245 83.4446 32.406 83.586 32.406 83.7337C32.406 83.8813 32.4122 84.0228 32.4368 84.1704V84.1581C32.7935 85.6035 33.9745 86.7045 35.4507 86.9075H35.4753C36.2565 87.0244 37.1606 87.0859 38.071 87.0859C38.071 87.0859 38.071 87.0859 38.0771 87.0859H38.766C38.7783 87.0859 38.8029 87.0859 38.8152 87.0859C41.8537 87.0859 44.7323 86.4031 47.3034 85.1914L47.1804 85.2406C48.5704 85.9849 50.1943 86.6738 51.8981 87.2089L52.101 87.2642H52.3163V85.8557C52.3225 84.2442 52.4701 82.6634 52.7346 81.1319L52.71 81.2979V81.4763C51.0246 80.8428 49.6099 80.1662 48.2445 79.4096L48.4044 79.4896L46.8851 78.6592L45.5135 79.4896C44.1541 80.3199 42.5549 80.9227 40.8511 81.1811L40.7773 81.1872C41.5523 80.1477 42.2105 78.9545 42.6964 77.6751L42.7333 77.5767L43.2746 75.9467L42.1551 74.7165C38.5753 71.0383 36.361 66.0131 36.3303 60.4773V60.4712C36.3303 47.8496 48.3367 37.5101 62.945 37.5101C63.2033 37.5039 63.517 37.4978 63.8245 37.4978C74.1334 37.4978 83.0767 43.3042 87.5791 51.8354L87.6529 51.983C88.3787 51.983 89.1722 51.983 90.0025 51.983H90.5069C91.5587 51.983 92.6043 51.983 93.7238 51.983C88.8646 40.0934 77.3871 31.8636 63.9845 31.8636C63.6831 31.8636 63.3817 31.8698 63.0864 31.8759H63.1295C45.372 31.8759 30.9114 44.7127 30.9114 60.4835C30.9114 60.4958 30.9114 60.5204 30.9114 60.5388C30.9114 66.868 33.181 72.6621 36.9515 77.1584L36.9146 77.1154C36.2011 78.4378 35.1924 79.5265 33.9868 80.3138L33.9499 80.3384L34.0299 80.3199ZM122.485 85.3821C122.43 91.8466 120.086 97.7514 116.23 102.352L116.267 102.309C116.974 103.632 117.964 104.708 119.17 105.508L119.201 105.532C120.154 106.184 120.787 107.267 120.794 108.497C120.806 108.62 120.824 108.761 120.824 108.909C120.824 109.057 120.818 109.198 120.794 109.346V109.333C120.437 110.779 119.256 111.88 117.78 112.083H117.755C116.974 112.2 116.07 112.261 115.153 112.261H114.538C114.514 112.261 114.495 112.261 114.471 112.261C111.34 112.261 108.381 111.535 105.743 110.256L105.859 110.305C101.197 112.698 95.6859 114.1 89.8365 114.1C89.7995 114.1 89.7565 114.1 89.7196 114.1H89.7257C71.6423 114.1 57.1816 101.079 57.1816 85.173C57.1816 69.2669 71.9006 56.2455 89.7257 56.2455C107.551 56.2455 122.27 69.23 122.27 85.173L122.485 85.3821ZM116.882 85.3821C116.882 72.5453 104.801 62.095 89.9041 62.095C75.0068 62.095 62.9265 72.5453 62.9265 85.3821C62.9265 98.2189 75.0068 108.632 89.9041 108.632C89.9472 108.632 89.9902 108.632 90.0394 108.632C95.4645 108.632 100.557 107.199 104.943 104.683L104.795 104.763L106.167 103.896L107.539 104.763C108.966 105.594 110.632 106.197 112.422 106.455L112.496 106.461C111.715 105.422 111.057 104.228 110.577 102.949L110.54 102.85L109.962 101.257L111.118 100.027C114.643 96.2383 116.826 91.1577 116.906 85.5789V85.5666L116.882 85.3821Z" fill="#1A4E41"/>
</g>
<defs>
<filter id="filter0_i" x="0" y="0" width="148.656" height="152.697" filterUnits="userSpaceOnUse" color-interpolation-filters="sRGB">
<feFlood flood-opacity="0" result="BackgroundImageFix"/>
<feBlend mode="normal" in="SourceGraphic" in2="BackgroundImageFix" result="shape"/>
<feColorMatrix in="SourceAlpha" type="matrix" values="0 0 0 0 0 0 0 0 0 0 0 0 0 0 0 0 0 0 127 0" result="hardAlpha"/>
<feOffset dy="4"/>
<feGaussianBlur stdDeviation="2"/>
<feComposite in2="hardAlpha" operator="arithmetic" k2="-1" k3="1"/>
<feColorMatrix type="matrix" values="0 0 0 0 0 0 0 0 0 0 0 0 0 0 0 0 0 0 0.25 0"/>
<feBlend mode="normal" in2="shape" result="effect1_innerShadow"/>
</filter>
<filter id="filter1_i" x="27.4979" y="23.8798" width="98.4135" height="102.413" filterUnits="userSpaceOnUse" color-interpolation-filters="sRGB">
<feFlood flood-opacity="0" result="BackgroundImageFix"/>
<feBlend mode="normal" in="SourceGraphic" in2="BackgroundImageFix" result="shape"/>
<feColorMatrix in="SourceAlpha" type="matrix" values="0 0 0 0 0 0 0 0 0 0 0 0 0 0 0 0 0 0 127 0" result="hardAlpha"/>
<feOffset dy="4"/>
<feGaussianBlur stdDeviation="2"/>
<feComposite in2="hardAlpha" operator="arithmetic" k2="-1" k3="1"/>
<feColorMatrix type="matrix" values="0 0 0 0 0 0 0 0 0 0 0 0 0 0 0 0 0 0 0.25 0"/>
<feBlend mode="normal" in2="shape" result="effect1_innerShadow"/>
</filter>
</defs>
</svg>
