<svg width="81" height="93" viewBox="0 0 81 93" fill="none" xmlns="http://www.w3.org/2000/svg">
<rect x="4.44907" y="5.53989" width="61.9591" height="8.56162" fill="#C4C4C4"/>
<path fill-rule="evenodd" clip-rule="evenodd" d="M75.9638 91.4062C73.2918 92.3553 70.4192 92.8823 67.4261 92.9072L67.4464 92.9188H6.23328C6.23328 92.9188 0.425858 92.9188 0.425858 87.1113V8.7634C0.425858 8.75469 0.425132 8.74598 0.424406 8.73727C0.42368 8.72856 0.422954 8.71985 0.422954 8.71113C0.324228 4.77661 2.76915 1.99195 4.93823 1.02791C6.93075 0.0518714 8.63286 0.0121794 9.06119 0.00219108C9.09415 0.00142253 9.11957 0.000829846 9.13699 0H75.9223V5.80452H70.1149V11.6148H75.9223V42.1735C75.9362 42.1784 75.95 42.1833 75.9638 42.1882V48.4514C73.3125 47.1807 70.3427 46.4672 67.2054 46.4623C55.9826 46.4768 46.8969 55.5654 46.8794 66.7883C46.8969 78.0082 55.9826 87.0881 67.2054 87.1113C70.3427 87.1049 73.3125 86.3906 75.9638 85.1198V91.4062ZM7.02019 10.8686C7.44122 11.2345 8.19038 11.4842 8.70434 11.5597C9.02853 11.6179 9.12268 11.6152 9.13567 11.6149C9.13629 11.6149 9.13673 11.6148 9.13699 11.6148H64.3075V5.80452H9.13699C9.13478 5.81114 9.12083 5.81189 9.08556 5.81378C9.02804 5.81687 8.91383 5.82299 8.70144 5.86259C8.36751 5.91486 7.90582 6.03682 7.53124 6.22556C7.4636 6.27082 7.39826 6.31292 7.33529 6.35349C6.71159 6.75529 6.32032 7.00735 6.23328 8.71113C6.27619 10.1415 6.61221 10.4699 7.00254 10.8513C7.00841 10.8571 7.01429 10.8628 7.02019 10.8686ZM12.0407 17.4223V87.1113H50.7936C44.8672 82.326 41.072 75.0029 41.072 66.7883C41.072 65.8039 41.1359 64.837 41.2433 63.8816H23.6497C23.6497 63.8816 17.8423 63.8816 17.8423 58.0742V40.652C17.8423 34.8445 23.6497 34.8445 23.6497 34.8445H29.4572L35.2646 29.0371H46.8794L52.6869 34.8445H58.4943C58.4943 34.8445 64.3017 34.8445 64.3017 40.652C64.3017 40.6828 64.3074 40.7193 64.313 40.7558C64.3164 40.7778 64.3198 40.7997 64.322 40.8204C65.2686 40.7129 66.2298 40.652 67.2054 40.652C68.1898 40.652 69.1596 40.7187 70.1149 40.8262V17.4223H12.0407ZM42.6487 57.9145C44.0977 53.8987 46.499 50.3562 49.5857 47.5279C48.7407 43.6021 45.2475 40.652 41.072 40.652C36.2577 40.652 32.3609 44.5545 32.3609 49.3631C32.3609 54.1774 36.2577 58.0742 41.072 58.0742C41.6121 58.0742 42.1377 58.0132 42.6487 57.9145Z" fill="#010002"/>
<rect x="8.8558" y="14.731" width="65.2194" height="76.0473" fill="#7289DA" stroke="black" stroke-width="3.77718"/>
<path d="M58.2604 42.2739L35.2559 49.7816L35.5698 33.8651L58.2604 42.2739Z" fill="#FF9D00"/>
<line x1="34.6665" y1="68.0126" x2="34.6665" y2="33.9947" stroke="black" stroke-width="2.51812"/>
<g filter="url(#filter0_i)">
<path d="M65.0405 67.3366L63.9452 51.8465H62.2241L57.9995 50.5947L54.4008 47.3089L50.9586 41.3632L56.1219 43.7102L59.8771 43.2408L62.85 41.3632L64.2582 40.268L65.9793 39.7986L70.3603 41.9891L73.3332 43.4755H75.5237L78.1836 41.9891L75.0543 47.3089L70.6733 50.5947L67.231 51.8465H65.0405L65.3534 65.9284L67.231 68.4318L80.0088 76.5681V80.4797L78.6078 83.224H50.9085L49.8633 80.4797V75.7857L54.4008 72.187L59.8771 71.4047L65.0405 67.3366Z" fill="#E3C883"/>
</g>
<g filter="url(#filter1_i)">
<path d="M80.3743 34.2269C80.3743 44.2509 73.4391 52.377 64.8842 52.377C56.3292 52.377 49.394 44.2509 49.394 34.2269C49.394 29.2169 48.6268 26.2456 51.4281 22.9614C54.2315 19.6746 59.8227 21.3967 64.1018 21.3967C68.381 21.3967 75.6933 19.6746 78.4967 22.9614C81.2979 26.2456 80.3743 29.2169 80.3743 34.2269Z" fill="#C7E9E4" fill-opacity="0.35"/>
<path d="M80.3743 72.1329C80.3743 63.1716 74.8316 55.7271 67.544 54.2494C66.6798 54.0742 66.0427 54.1496 65.1358 54.1496C65.4836 54.1541 64.8842 53.5101 65.3877 52.1252C65.2415 51.7761 63.9752 52.1196 63.8768 52.1252C63.6051 52.1405 63.5872 54.0429 63.3194 54.0743C55.4993 54.9935 49.3941 62.7278 49.3941 72.1329C49.3941 77.143 48.6268 80.1143 51.4281 83.3985C54.2315 86.6852 59.8227 84.9631 64.1019 84.9631C68.381 84.9631 75.6933 86.6852 78.4967 83.3985C81.2979 80.1143 80.3743 77.143 80.3743 72.1329Z" fill="#C7E9E4" fill-opacity="0.35"/>
</g>
<path d="M49.5504 25.9342L50.6456 23.5872L54.0879 21.0838H75.3672L78.8095 23.5872L80.2177 25.9342V36.8868L78.8095 41.4244L75.3672 47.3701L70.8297 50.6558L66.9181 52.064H65.3534V54.0981H66.9181C66.9181 54.0981 69.578 54.4934 71.925 55.9757C74.272 57.458 76.619 60.9826 76.619 60.9826L78.8095 64.8942L80.2177 69.2753V80.5408L78.8095 83.2008L75.3672 85.2348H54.0879L50.6456 83.2008L49.5504 80.5408V69.2753L50.6456 64.8942L54.0879 59.2615L57.6866 55.9757L62.3806 54.0981H63.6323V52.064H62.3806L57.6866 50.6558L54.0879 47.3701L50.6456 41.4244L49.5504 36.8868V25.9342Z" stroke="#D1F8F2" stroke-opacity="0.87" stroke-width="0.503625" stroke-linejoin="round"/>
<g filter="url(#filter2_i)">
<rect x="48.768" y="20.145" width="32.232" height="3.77718" rx="0.938795" fill="#BEA17A"/>
</g>
<rect x="49.0828" y="20.4598" width="31.6024" height="3.14765" rx="0.62403" stroke="#45413C" stroke-width="0.629531"/>
<g filter="url(#filter3_i)">
<rect x="48.768" y="81.839" width="32.232" height="3.77718" rx="0.938795" fill="#BEA17A"/>
</g>
<rect x="49.0828" y="82.1538" width="31.6024" height="3.14765" rx="0.62403" stroke="#45413C" stroke-width="0.629531"/>
<defs>
<filter id="filter0_i" x="49.8633" y="39.7986" width="30.1455" height="44.9901" filterUnits="userSpaceOnUse" color-interpolation-filters="sRGB">
<feFlood flood-opacity="0" result="BackgroundImageFix"/>
<feBlend mode="normal" in="SourceGraphic" in2="BackgroundImageFix" result="shape"/>
<feColorMatrix in="SourceAlpha" type="matrix" values="0 0 0 0 0 0 0 0 0 0 0 0 0 0 0 0 0 0 127 0" result="hardAlpha"/>
<feOffset dy="1.56466"/>
<feGaussianBlur stdDeviation="1.56466"/>
<feComposite in2="hardAlpha" operator="arithmetic" k2="-1" k3="1"/>
<feColorMatrix type="matrix" values="0 0 0 0 0.524971 0 0 0 0 0.466933 0 0 0 0 0.379875 0 0 0 0.6 0"/>
<feBlend mode="normal" in2="shape" result="effect1_innerShadow"/>
</filter>
<filter id="filter1_i" x="49.2979" y="20.6329" width="34.0386" height="64.7811" filterUnits="userSpaceOnUse" color-interpolation-filters="sRGB">
<feFlood flood-opacity="0" result="BackgroundImageFix"/>
<feBlend mode="normal" in="SourceGraphic" in2="BackgroundImageFix" result="shape"/>
<feColorMatrix in="SourceAlpha" type="matrix" values="0 0 0 0 0 0 0 0 0 0 0 0 0 0 0 0 0 0 127 0" result="hardAlpha"/>
<feOffset dx="2.81639" dy="-0.312932"/>
<feGaussianBlur stdDeviation="1.72112"/>
<feComposite in2="hardAlpha" operator="arithmetic" k2="-1" k3="1"/>
<feColorMatrix type="matrix" values="0 0 0 0 0.995804 0 0 0 0 0.995804 0 0 0 0 0.995804 0 0 0 0.6 0"/>
<feBlend mode="normal" in2="shape" result="effect1_innerShadow"/>
</filter>
<filter id="filter2_i" x="48.768" y="20.145" width="32.232" height="5.02891" filterUnits="userSpaceOnUse" color-interpolation-filters="sRGB">
<feFlood flood-opacity="0" result="BackgroundImageFix"/>
<feBlend mode="normal" in="SourceGraphic" in2="BackgroundImageFix" result="shape"/>
<feColorMatrix in="SourceAlpha" type="matrix" values="0 0 0 0 0 0 0 0 0 0 0 0 0 0 0 0 0 0 127 0" result="hardAlpha"/>
<feMorphology radius="0.755437" operator="erode" in="SourceAlpha" result="effect1_innerShadow"/>
<feOffset dy="1.25173"/>
<feGaussianBlur stdDeviation="0.881343"/>
<feComposite in2="hardAlpha" operator="arithmetic" k2="-1" k3="1"/>
<feColorMatrix type="matrix" values="0 0 0 0 0 0 0 0 0 0 0 0 0 0 0 0 0 0 0.25 0"/>
<feBlend mode="normal" in2="shape" result="effect1_innerShadow"/>
</filter>
<filter id="filter3_i" x="48.768" y="81.839" width="32.232" height="5.02891" filterUnits="userSpaceOnUse" color-interpolation-filters="sRGB">
<feFlood flood-opacity="0" result="BackgroundImageFix"/>
<feBlend mode="normal" in="SourceGraphic" in2="BackgroundImageFix" result="shape"/>
<feColorMatrix in="SourceAlpha" type="matrix" values="0 0 0 0 0 0 0 0 0 0 0 0 0 0 0 0 0 0 127 0" result="hardAlpha"/>
<feOffset dy="1.25173"/>
<feGaussianBlur stdDeviation="1.00725"/>
<feComposite in2="hardAlpha" operator="arithmetic" k2="-1" k3="1"/>
<feColorMatrix type="matrix" values="0 0 0 0 0 0 0 0 0 0 0 0 0 0 0 0 0 0 0.25 0"/>
<feBlend mode="normal" in2="shape" result="effect1_innerShadow"/>
</filter>
</defs>
</svg>
