<svg width="107" height="108" viewBox="0 0 107 108" fill="none" xmlns="http://www.w3.org/2000/svg">
<ellipse cx="52.759" cy="53.7964" rx="33.1966" ry="32.7521" fill="#56DCFA"/>
<path d="M52.8886 17.5204C32.764 17.5204 16.3925 33.8945 16.3925 54.0191C16.3925 74.1438 32.764 90.5179 52.8886 90.5179C73.0133 90.5179 89.3874 74.1438 89.3874 54.0191C89.3874 33.8945 73.0159 17.5204 52.8886 17.5204ZM21.0259 54.0191C21.0185 48.586 22.4094 43.2423 25.0647 38.5022C28.6261 40.6345 32.7061 41.7443 36.8569 41.7096C47.7043 41.7096 56.4976 34.5535 56.4976 25.7293C56.4963 24.5739 56.3432 23.4237 56.042 22.3083C63.5227 23.0628 70.497 26.4339 75.7355 31.8274C80.974 37.2208 84.1405 44.2904 84.6767 51.7899C79.271 52.5776 71.1573 55.3422 68.6887 63.824C65.8572 73.5414 52.6673 69.1808 50.523 85.7969C42.5085 85.187 35.0191 81.5758 29.551 75.6849C24.0828 69.7939 21.0384 62.0568 21.0259 54.0191Z" fill="#3D8324"/>
<path d="M53.0405 67.0675C57.9571 67.0675 60.1657 63.6619 60.7629 61.0414C60.8041 60.8654 60.8049 60.6823 60.7653 60.506C60.7257 60.3296 60.6468 60.1644 60.5344 60.0228C60.422 59.8812 60.2791 59.7669 60.1163 59.6883C59.9535 59.6097 59.7751 59.5689 59.5943 59.569H46.4662C46.2854 59.5689 46.1069 59.6097 45.9441 59.6883C45.7813 59.7669 45.6384 59.8812 45.526 60.0228C45.4136 60.1644 45.3347 60.3296 45.2951 60.506C45.2556 60.6823 45.2564 60.8654 45.2975 61.0414C45.9153 63.6619 48.1265 67.0675 53.0405 67.0675Z" fill="#674B2F"/>
<path d="M42.762 49.0099C42.1117 49.0094 41.4759 49.2017 40.935 49.5626C40.3941 49.9235 39.9724 50.4367 39.7232 51.0373C39.474 51.6379 39.4085 52.299 39.5351 52.9368C39.6616 53.5746 39.9745 54.1605 40.4341 54.6205C40.8937 55.0805 41.4794 55.3938 42.1172 55.5209C42.7549 55.6479 43.416 55.583 44.0168 55.3343C44.6176 55.0855 45.1311 54.6642 45.4924 54.1236C45.8537 53.5829 46.0466 52.9473 46.0466 52.2971C46.0466 51.4257 45.7006 50.59 45.0847 49.9736C44.4688 49.3572 43.6334 49.0106 42.762 49.0099Z" fill="#674B2F"/>
<path d="M63.3216 55.5842C63.9717 55.5842 64.6073 55.3914 65.1479 55.0302C65.6884 54.669 66.1098 54.1557 66.3586 53.555C66.6074 52.9543 66.6725 52.2934 66.5456 51.6558C66.4188 51.0181 66.1057 50.4324 65.646 49.9727C65.1863 49.5129 64.6005 49.1999 63.9629 49.073C63.3252 48.9462 62.6643 49.0113 62.0636 49.2601C61.463 49.5089 60.9496 49.9302 60.5884 50.4708C60.2272 51.0114 60.0344 51.6469 60.0344 52.2971C60.0344 53.1689 60.3807 54.005 60.9972 54.6214C61.6137 55.2379 62.4498 55.5842 63.3216 55.5842Z" fill="#674B2F"/>
<path d="M91.5162 92.1499C98.8101 84.6977 103.802 75.3017 105.895 65.0863C107.989 54.8708 107.094 44.2686 103.319 34.5483C92.4815 6.69613 61.0023 -7.14761 33.1475 3.6921L34.8284 8.01151C60.3124 -1.90151 89.0888 10.7556 99.0018 36.2293C102.455 45.1215 103.271 54.8205 101.354 64.1649C99.4362 73.5092 94.866 82.1029 88.1904 88.9168L84.8955 85.7068C84.5487 85.3685 84.1093 85.1407 83.6329 85.0522C83.1566 84.9638 82.6647 85.0187 82.2195 85.21C81.7744 85.4013 81.396 85.7203 81.1323 86.1268C80.8686 86.5333 80.7315 87.0088 80.7382 87.4933L80.8618 96.217C80.8713 96.865 81.1373 97.4827 81.6015 97.9348C82.0657 98.3869 82.6902 98.6366 83.3381 98.629L92.0619 98.5261C92.5461 98.5201 93.0177 98.3706 93.417 98.0965C93.8163 97.8225 94.1253 97.4362 94.305 96.9864C94.4847 96.5367 94.5269 96.0438 94.4264 95.5701C94.3258 95.0963 94.0871 94.6631 93.7402 94.3251L91.5162 92.1499Z" fill="#9ED627"/>
<path d="M34.293 99.0538C26.9501 95.8305 20.4995 90.8727 15.4954 84.6064C10.4912 78.3401 7.08322 70.9526 5.56412 63.0786C4.04501 55.2045 4.46023 47.0794 6.77411 39.4013C9.08799 31.7231 13.2313 24.7215 18.8482 18.998L21.7673 21.8295C22.1141 22.1678 22.5535 22.3957 23.0298 22.4841C23.5062 22.5726 23.9981 22.5177 24.4432 22.3264C24.8884 22.1351 25.2668 21.816 25.5304 21.4095C25.7941 21.0031 25.9313 20.5275 25.9245 20.0431L25.8009 11.3193C25.7969 10.9983 25.7296 10.6812 25.603 10.3862C25.4763 10.0912 25.2927 9.82401 25.0628 9.6C24.8328 9.37599 24.5609 9.19951 24.2626 9.08065C23.9644 8.9618 23.6456 8.9029 23.3246 8.90732L14.6009 9.01029C14.1127 9.01162 13.6361 9.15886 13.2322 9.43311C12.8284 9.70736 12.5158 10.0961 12.3345 10.5494C12.1533 11.0026 12.1117 11.4997 12.2151 11.9768C12.3185 12.4539 12.5621 12.8892 12.9148 13.2267L15.5224 15.7674C6.83585 24.6151 1.44594 36.174 0.251937 48.5154C-0.942065 60.8569 2.13205 73.2347 8.96139 83.5835C15.7907 93.9323 25.9623 101.626 37.7789 105.382C49.5956 109.137 62.3428 108.727 73.8936 104.22L72.2153 99.9032C66.152 102.276 59.6784 103.422 53.1691 103.277C46.6598 103.131 40.244 101.695 34.293 99.0538Z" fill="#9ED627"/>
</svg>
