<svg width="120" height="120" viewBox="0 0 120 120" fill="none" xmlns="http://www.w3.org/2000/svg">
<g filter="url(#filter0_d)">
<rect x="10" y="10" width="100" height="100" fill="white"/>
</g>
<path d="M46.6666 50.0163V56.683L43.3333 60.0163H40L36.6666 56.683V50.0163H46.6666Z" fill="#D3B185"/>
<path d="M108.333 88.3496V95.0163H103.333H16.6667H11.6667V88.3496H18.3333H28.3333H36.6667H46.6666H55H64.9999H108.333Z" fill="#A97C50"/>
<path d="M108.25 33.433C108.023 36.0494 107.282 38.5954 106.069 40.9251C104.857 43.2548 103.197 45.3226 101.184 47.01C99.1718 48.6974 96.8463 49.9713 94.3408 50.7589C91.8354 51.5464 89.1992 51.8321 86.5832 51.5996C83.3361 51.3301 80.2079 50.253 77.4832 48.4663L68.3333 50.0163L71.1332 41.8663C69.5283 39.1559 68.5865 36.1047 68.3847 32.9612C68.1828 29.8178 68.7266 26.6712 69.9717 23.7778C71.2168 20.8844 73.128 18.3262 75.5495 16.3116C77.9709 14.2971 80.8342 12.8833 83.9058 12.1854C86.9774 11.4874 90.1705 11.5252 93.2247 12.2956C96.279 13.066 99.1079 14.5472 101.481 16.6185C103.854 18.6898 105.704 21.2925 106.881 24.2145C108.057 27.1365 108.526 30.2952 108.25 33.433V33.433Z" fill="#C3E5E0"/>
<g filter="url(#filter1_d)">
<path d="M103.333 95.0163H16.6667V108.35H103.333V95.0163Z" fill="#A97C50"/>
</g>
<path d="M55 88.3496H46.6667L43.65 66.3663L45 65.0163L44.6667 64.0163L50 65.0163L52.3 59.2496L59.1333 62.3496C60.8842 63.1444 62.3688 64.4271 63.4093 66.044C64.4498 67.6609 65.0021 69.5435 65 71.4663V88.3496H55Z" fill="#212830"/>
<path d="M59.9999 33.3497V40.0163C59.9999 40.4584 59.8243 40.8823 59.5118 41.1948C59.1992 41.5074 58.7753 41.683 58.3332 41.683H53.3333V31.683H58.3332C58.7753 31.683 59.1992 31.8586 59.5118 32.1712C59.8243 32.4837 59.9999 32.9077 59.9999 33.3497Z" fill="#BBC4CF"/>
<path d="M46.6666 50.0163V53.883C45.1054 54.6291 43.397 55.0163 41.6666 55.0163C39.9363 55.0163 38.2279 54.6291 36.6666 53.883V50.0163H46.6666Z" fill="#B99B73"/>
<path d="M52.4 33.3497C51.6997 33.348 51.0175 33.1269 50.4494 32.7173C49.8814 32.3077 49.4561 31.7303 49.2333 31.0663L48.3333 28.3497L45.2166 30.683C42.9097 32.4159 40.1019 33.3518 37.2167 33.3497H30V40.0163C30 43.1105 31.2292 46.078 33.4171 48.2659C35.605 50.4538 38.5725 51.683 41.6666 51.683C44.7608 51.683 47.7283 50.4538 49.9162 48.2659C52.1041 46.078 53.3333 43.1105 53.3333 40.0163V33.3497H52.4Z" fill="#D3B185"/>
<path d="M53.3333 31.683V33.3497H52.4C51.6997 33.3481 51.0175 33.1269 50.4494 32.7173C49.8814 32.3077 49.4561 31.7303 49.2333 31.0664L48.3333 28.3497L45.2166 30.683C42.9097 32.416 40.1019 33.3519 37.2167 33.3497H30V30.0164C30 26.9222 31.2292 23.9547 33.4171 21.7668C35.605 19.5789 38.5725 18.3497 41.6666 18.3497C44.7608 18.3497 47.7283 19.5789 49.9162 21.7668C52.1041 23.9547 53.3333 26.9222 53.3333 30.0164V31.683Z" fill="#E5810C"/>
<path d="M46.6666 56.683L52.3 59.2497L50 65.0163L44.6666 64.0163L43.3333 60.0163L46.6666 56.683Z" fill="#062155"/>
<path d="M43.65 66.3663L46.6666 88.3496H36.6666L39.6833 66.3663L41.6666 68.3496L43.65 66.3663Z" fill="#2B4844"/>
<path d="M44.6667 64.0162L45 65.0162L43.65 66.3662L41.6667 68.3496L39.6834 66.3662L38.3334 65.0162L38.6667 64.0162L40 60.0163H43.3334L44.6667 64.0162Z" fill="#2B4844"/>
<path d="M40 60.0163L38.6667 64.0163L33.3333 65.0163L31.0333 59.2497L36.6667 56.683L40 60.0163Z" fill="#062155"/>
<path d="M28.3334 88.3496H18.3334V71.4663C18.3313 69.5435 18.8836 67.6609 19.9241 66.044C20.9646 64.4271 22.4492 63.1444 24.2 62.3496L31.0334 59.2496L33.3334 65.0163L38.6667 64.0163L38.3334 65.0163L39.6833 66.3663L36.6667 88.3496H28.3334Z" fill="#212830"/>
<path d="M30 40.0163V41.683H25C24.558 41.683 24.134 41.5074 23.8215 41.1948C23.5089 40.8823 23.3333 40.4584 23.3333 40.0163V33.3497C23.3333 32.9077 23.5089 32.4837 23.8215 32.1712C24.134 31.8586 24.558 31.683 25 31.683H30V40.0163Z" fill="#BBC4CF"/>
<path d="M103.333 95.0163H16.6667V98.3496H103.333V95.0163Z" fill="#8B5E3C"/>
<path d="M108.333 86.6826H66.6666V71.466C66.6629 69.2259 66.0173 67.0338 64.8062 65.1492C63.5951 63.2647 61.8694 61.7667 59.8333 60.8327L48.3333 55.616V51.5494C49.7631 50.7202 51.0285 49.6356 52.0666 48.3494H54.9999C56.3248 48.3454 57.5943 47.8174 58.5311 46.8805C59.4679 45.9437 59.996 44.6742 59.9999 43.3494V42.8827C60.5037 42.5919 60.9226 42.1742 61.215 41.6713C61.5074 41.1684 61.6631 40.5978 61.6666 40.0161V33.3494C61.664 32.4662 61.3119 31.6198 60.6874 30.9953C60.0628 30.3707 59.2165 30.0187 58.3333 30.0161V26.6827C58.3333 22.2625 56.5773 18.0232 53.4517 14.8976C50.3261 11.772 46.0869 10.0161 41.6666 10.0161C37.2464 10.0161 33.0071 11.772 29.8815 14.8976C26.7559 18.0232 25 22.2625 25 26.6827V30.0161C24.1167 30.0187 23.2704 30.3707 22.6459 30.9953C22.0213 31.6198 21.6693 32.4662 21.6666 33.3494V40.0161C21.6693 40.8993 22.0213 41.7456 22.6459 42.3702C23.2704 42.9947 24.1167 43.3467 25 43.3494H28.7666C29.2151 45.0591 29.9965 46.6634 31.0661 48.0705C32.1358 49.4777 33.4726 50.6599 35 51.5494V55.616L23.5 60.8327C21.4639 61.7667 19.7381 63.2647 18.527 65.1492C17.316 67.0338 16.6703 69.2259 16.6667 71.466V86.6826H11.6667C11.2246 86.6826 10.8007 86.8582 10.4882 87.1708C10.1756 87.4834 10 87.9073 10 88.3493V95.016C10 95.458 10.1756 95.8819 10.4882 96.1945C10.8007 96.507 11.2246 96.6826 11.6667 96.6826H15V108.349C15 108.791 15.1756 109.215 15.4881 109.528C15.8007 109.84 16.2246 110.016 16.6667 110.016H103.333C103.775 110.016 104.199 109.84 104.512 109.528C104.824 109.215 105 108.791 105 108.349V96.6826H108.333C108.775 96.6826 109.199 96.507 109.512 96.1945C109.824 95.8819 110 95.458 110 95.016V88.3493C110 87.9073 109.824 87.4834 109.512 87.1708C109.199 86.8582 108.775 86.6826 108.333 86.6826ZM51.5499 65.6327L53.1999 61.4827L58.4499 63.866C59.9061 64.5324 61.1403 65.6027 62.006 66.95C62.8716 68.2972 63.3323 69.8646 63.3333 71.466V86.6826H56.6666V73.3493H53.3333V86.6826H48.1166L45.4166 66.966L46.1833 66.1993C46.2316 66.1412 46.2762 66.0799 46.3166 66.016L49.6999 66.6493C49.7989 66.6687 49.8992 66.6798 49.9999 66.6827C50.3337 66.683 50.6599 66.5831 50.9363 66.3959C51.2127 66.2087 51.4264 65.9428 51.5499 65.6327ZM50.1666 60.0994L48.9666 63.1327L45.9333 62.566L45.2333 60.466L47.0333 58.6827L50.1666 60.0994ZM51.6666 31.4827C51.2719 31.2951 50.9666 30.9599 50.8166 30.5494L49.9166 27.8161C49.8301 27.5676 49.6864 27.3429 49.4972 27.1601C49.3079 26.9773 49.0783 26.8415 48.827 26.7636C48.5756 26.6858 48.3095 26.6681 48.0501 26.7119C47.7906 26.7558 47.5451 26.86 47.3333 27.0161L44.2166 29.3494C42.1948 30.8595 39.7401 31.6777 37.2166 31.6827H31.6666V30.0161C31.6666 27.3639 32.7202 24.8204 34.5956 22.945C36.4709 21.0697 39.0145 20.0161 41.6666 20.0161C44.3188 20.0161 46.8623 21.0697 48.7377 22.945C50.613 24.8204 51.6666 27.3639 51.6666 30.0161V31.4827ZM54.9999 45.016H54.0166C54.2348 44.4726 54.4185 43.9159 54.5666 43.3494H56.6666C56.6666 43.7914 56.491 44.2153 56.1784 44.5279C55.8659 44.8405 55.442 45.016 54.9999 45.016ZM58.3333 40.0161H54.9999V33.3494H58.3333V40.0161ZM28.3333 40.0161H25V33.3494H28.3333V40.0161ZM28.3333 30.0161V26.6827C28.3333 23.1465 29.7381 19.7551 32.2385 17.2547C34.739 14.7542 38.1304 13.3494 41.6666 13.3494C45.2028 13.3494 48.5942 14.7542 51.0947 17.2547C53.5952 19.7551 54.9999 23.1465 54.9999 26.6827V30.0161C54.9999 26.4799 53.5952 23.0885 51.0947 20.588C48.5942 18.0875 45.2028 16.6828 41.6666 16.6828C38.1304 16.6828 34.739 18.0875 32.2385 20.588C29.7381 23.0885 28.3333 26.4799 28.3333 30.0161ZM31.6666 40.0161V35.0161H37.2166C40.4616 35.0122 43.6184 33.96 46.2166 32.0161L47.4833 31.0661L47.6666 31.5994C47.9561 32.4744 48.4838 33.2513 49.1903 33.8431C49.8969 34.4348 50.7544 34.8179 51.6666 34.9494V40.0161C51.6647 41.7725 51.199 43.4973 50.3166 45.016H41.6666V48.3494H47.1833C45.6773 49.3488 43.9285 49.921 42.123 50.0051C40.3176 50.0892 38.5231 49.6819 36.9308 48.8268C35.3385 47.9716 34.008 46.7006 33.081 45.149C32.154 43.5974 31.6651 41.8235 31.6666 40.0161ZM40.9 69.7993C41.1306 69.941 41.396 70.016 41.6666 70.016C41.9373 70.016 42.2026 69.941 42.4333 69.7993L44.7499 86.6826H38.5833L40.9 69.7993ZM40.2333 64.566L41.2 61.6827H42.1333L43.0999 64.566L41.6666 65.9993L40.2333 64.566ZM42.65 58.3494H40.6833L38.3333 55.9994V52.916C40.518 53.4938 42.8153 53.4938 44.9999 52.916V55.9994L42.65 58.3494ZM36.3 58.6827L38.1 60.466L37.4 62.566L34.3666 63.1327L33.1666 60.0994L36.3 58.6827ZM20 71.466C20.0009 69.8646 20.4616 68.2972 21.3273 66.95C22.1929 65.6027 23.4272 64.5324 24.8833 63.866L30.1333 61.4827L31.7833 65.6327C31.9068 65.9428 32.1206 66.2087 32.3969 66.3959C32.6733 66.5831 32.9995 66.683 33.3333 66.6827C33.434 66.6798 33.5344 66.6687 33.6333 66.6493L37.0166 66.016C37.057 66.0799 37.1016 66.1412 37.15 66.1993L37.9166 66.966L35.2166 86.6826H30V73.3493H26.6666V86.6826H20V71.466ZM101.667 106.683H18.3333V96.6826H101.667V106.683ZM106.667 93.3493H13.3333V90.016H106.667V93.3493Z" fill="black" fill-opacity="0.9"/>
<path d="M67.0532 51.0863C67.2409 51.3063 67.4822 51.4741 67.7538 51.5733C68.0253 51.6726 68.318 51.7001 68.6032 51.653L77.1299 50.223C79.9627 51.9334 83.1487 52.9743 86.4449 53.2663C87.0904 53.323 87.7327 53.3513 88.3715 53.3513C92.4928 53.3441 96.5265 52.1615 99.9993 49.9425C103.472 47.7235 106.24 44.5601 107.978 40.8233C109.717 37.0866 110.353 32.9316 109.813 28.8459C109.273 24.7602 107.579 20.9132 104.93 17.7564C101.48 13.6347 96.6214 10.943 91.2977 10.2048C85.9739 9.46652 80.5658 10.7344 76.125 13.762C71.6841 16.7896 68.5278 21.3604 67.2698 26.5858C66.0118 31.8112 66.7419 37.3177 69.3182 42.0347L66.7516 49.4663C66.6572 49.7393 66.6353 50.0322 66.6882 50.3162C66.7411 50.6002 66.8669 50.8656 67.0532 51.0863ZM70.0699 30.0864C70.4935 25.2427 72.8238 20.7656 76.5482 17.64C80.2727 14.5144 85.0862 12.9963 89.9299 13.4197C92.3363 13.6192 94.6796 14.292 96.8252 15.3997C98.9708 16.5073 100.877 18.0279 102.433 19.8741C103.989 21.7203 105.165 23.8557 105.894 26.1578C106.623 28.4599 106.889 30.8833 106.679 33.2887C106.468 35.6942 105.785 38.0343 104.667 40.1749C103.55 42.3154 102.021 44.214 100.167 45.7618C98.3139 47.3097 96.173 48.4761 93.8676 49.1942C91.5622 49.9123 89.1377 50.1679 86.7332 49.9463C83.7549 49.6934 80.8856 48.7068 78.3816 47.0747C78.1114 46.9002 77.7965 46.8075 77.4749 46.808C77.3828 46.8083 77.2908 46.8161 77.1999 46.8313L70.8166 47.9013L72.7132 42.4013C72.7924 42.1725 72.8207 41.9291 72.7962 41.6882C72.7718 41.4473 72.6951 41.2146 72.5716 41.0063C70.6091 37.7198 69.7336 33.8978 70.0699 30.0847V30.0864Z" fill="black" fill-opacity="0.8"/>
<path d="M48.3333 36.683H45V40.0163H48.3333V36.683Z" fill="black" fill-opacity="0.8"/>
<path d="M38.3333 36.683H35V40.0163H38.3333V36.683Z" fill="black" fill-opacity="0.8"/>
<path d="M29.0721 62.0613L36.2886 58.4531L39.3814 61.5459H43.5051L47.1134 58.4531L54.3299 62.0613L52.7835 73.4015L53.299 86.8036H30.1031L30.6185 73.4015L29.0721 62.0613Z" fill="#212830"/>
<g style="mix-blend-mode:soft-light">
<path d="M41.4086 64.047L41.312 63.8054" stroke="white" stroke-width="3.09278" stroke-linecap="round"/>
</g>
<g style="mix-blend-mode:soft-light">
<path d="M41.4086 69.0243L41.3602 68.7827" stroke="white" stroke-width="3.09278" stroke-linecap="round"/>
</g>
<path d="M99.8734 76.4551L101.034 86.7926H96.4979L99.8734 76.4551Z" fill="#8D8D8D"/>
<path d="M96.9341 86.4762L99.7216 77.9395L100.68 86.4762H96.9341Z" stroke="black" stroke-opacity="0.8" stroke-width="0.632911"/>
<path d="M70.4431 75.8222H99.9789L98.7131 86.7927H68.4388L70.4431 75.8222Z" fill="#BBC4CF"/>
<path d="M68.9449 86.3707L70.7949 76.2441H99.5055L98.337 86.3707H68.9449Z" stroke="black" stroke-opacity="0.8" stroke-width="0.843881"/>
<g style="mix-blend-mode:multiply">
<path d="M73.8395 82.7218C73.8395 83.1306 73.691 83.4577 73.394 83.703C73.1014 83.9441 72.6839 84.0646 72.1416 84.0646C71.6553 84.0646 71.2206 83.972 70.8376 83.787V82.8767C71.0571 82.9714 71.283 83.0596 71.5154 83.1414C71.7522 83.2189 71.9867 83.2576 72.2191 83.2576C72.4601 83.2576 72.6301 83.2124 72.7291 83.122C72.8324 83.0274 72.884 82.909 72.884 82.767C72.884 82.6508 72.8432 82.5518 72.7614 82.47C72.6839 82.3882 72.5785 82.3129 72.4451 82.2441C72.3116 82.1709 72.1589 82.0934 71.9867 82.0117C71.8791 81.96 71.7629 81.8998 71.6381 81.8309C71.5133 81.7577 71.3928 81.6695 71.2766 81.5662C71.1647 81.4586 71.0722 81.3295 70.999 81.1789C70.9258 81.0283 70.8893 80.8475 70.8893 80.6366C70.8893 80.2235 71.0291 79.9028 71.3089 79.6747C71.5886 79.4423 71.9695 79.3261 72.4515 79.3261C72.6925 79.3261 72.9206 79.3541 73.1358 79.4101C73.3553 79.466 73.5834 79.5456 73.8201 79.6489L73.5038 80.4107C73.2929 80.3246 73.1035 80.2579 72.9357 80.2106C72.7678 80.1632 72.5957 80.1395 72.4192 80.1395C72.2342 80.1395 72.0921 80.1826 71.9932 80.2687C71.8942 80.3547 71.8447 80.4666 71.8447 80.6043C71.8447 80.7679 71.9178 80.897 72.0642 80.9917C72.2105 81.0864 72.4278 81.2026 72.7162 81.3403C72.9529 81.4522 73.153 81.5684 73.3166 81.6889C73.4844 81.8094 73.6135 81.9514 73.7039 82.115C73.7943 82.2785 73.8395 82.4808 73.8395 82.7218ZM76.1492 80.4107C76.6355 80.4107 77.0207 80.5505 77.3047 80.8303C77.5888 81.1057 77.7308 81.4995 77.7308 82.0117V82.4765H75.4584C75.467 82.7476 75.5466 82.9606 75.6973 83.1156C75.8522 83.2705 76.0652 83.348 76.3364 83.348C76.5645 83.348 76.7711 83.3265 76.9561 83.2834C77.1412 83.2361 77.3327 83.1651 77.5307 83.0704V83.8128C77.3585 83.8989 77.1756 83.9613 76.9819 84C76.7926 84.043 76.5623 84.0646 76.2912 84.0646C75.9383 84.0646 75.6263 84 75.3551 83.8709C75.084 83.7375 74.871 83.5373 74.716 83.2705C74.5611 83.0037 74.4836 82.668 74.4836 82.2634C74.4836 81.8503 74.5525 81.5081 74.6902 81.237C74.8322 80.9616 75.028 80.755 75.2777 80.6173C75.5273 80.4795 75.8178 80.4107 76.1492 80.4107ZM76.1556 81.095C75.9706 81.095 75.8156 81.1552 75.6908 81.2757C75.5703 81.3962 75.4993 81.5834 75.4778 81.8374H76.827C76.8227 81.6222 76.7668 81.4457 76.6592 81.308C76.5516 81.166 76.3837 81.095 76.1556 81.095ZM80.5766 80.4107C80.6239 80.4107 80.6798 80.4128 80.7444 80.4171C80.809 80.4214 80.8606 80.4279 80.8993 80.4365L80.8283 81.3403C80.7982 81.3317 80.753 81.3252 80.6928 81.3209C80.6368 81.3123 80.5873 81.308 80.5443 81.308C80.3807 81.308 80.2237 81.3381 80.073 81.3984C79.9224 81.4543 79.7997 81.5469 79.705 81.676C79.6147 81.8051 79.5695 81.9815 79.5695 82.2053V84H78.6076V80.4752H79.3371L79.4791 81.0692H79.5243C79.6276 80.8884 79.7696 80.7335 79.9504 80.6043C80.1311 80.4752 80.3399 80.4107 80.5766 80.4107ZM82.4752 84L81.1324 80.4752H82.1395L82.8173 82.4829C82.856 82.6034 82.8862 82.7282 82.9077 82.8574C82.9335 82.9865 82.9486 83.1027 82.9529 83.206H82.9787C82.9916 82.9736 83.039 82.7325 83.1207 82.4829L83.7986 80.4752H84.8056L83.4629 84H82.4752ZM85.8924 79.0937C86.0344 79.0937 86.157 79.1282 86.2603 79.197C86.3636 79.2616 86.4153 79.3842 86.4153 79.565C86.4153 79.7414 86.3636 79.8641 86.2603 79.933C86.157 80.0018 86.0344 80.0363 85.8924 80.0363C85.746 80.0363 85.6212 80.0018 85.5179 79.933C85.4189 79.8641 85.3694 79.7414 85.3694 79.565C85.3694 79.3842 85.4189 79.2616 85.5179 79.197C85.6212 79.1282 85.746 79.0937 85.8924 79.0937ZM86.3701 80.4752V84H85.4082V80.4752H86.3701ZM88.9051 84.0646C88.38 84.0646 87.9733 83.9204 87.685 83.632C87.4009 83.3394 87.2589 82.881 87.2589 82.257C87.2589 81.8266 87.3321 81.4759 87.4784 81.2047C87.6247 80.9336 87.827 80.7335 88.0852 80.6043C88.3478 80.4752 88.649 80.4107 88.989 80.4107C89.23 80.4107 89.4388 80.4343 89.6152 80.4817C89.796 80.529 89.9531 80.585 90.0865 80.6495L89.8024 81.3919C89.6518 81.3317 89.5098 81.2822 89.3764 81.2435C89.2473 81.2047 89.1181 81.1854 88.989 81.1854C88.4898 81.1854 88.2402 81.5404 88.2402 82.2505C88.2402 82.6034 88.3047 82.8638 88.4338 83.0317C88.5673 83.1995 88.7523 83.2834 88.989 83.2834C89.1913 83.2834 89.3699 83.2576 89.5248 83.206C89.6798 83.15 89.8304 83.0747 89.9767 82.98V83.7999C89.8304 83.8946 89.6755 83.9613 89.5119 84C89.3527 84.043 89.1504 84.0646 88.9051 84.0646ZM89.5959 84.7876C89.5959 85.0286 89.5248 85.2158 89.3828 85.3492C89.2451 85.4826 88.9912 85.5493 88.6211 85.5493C88.5264 85.5493 88.4403 85.5429 88.3628 85.53C88.2897 85.5171 88.223 85.502 88.1627 85.4848V84.9554C88.223 84.9726 88.2961 84.9877 88.3822 85.0006C88.4726 85.0135 88.55 85.02 88.6146 85.02C88.6749 85.02 88.7265 85.0049 88.7695 84.9748C88.8169 84.949 88.8406 84.8995 88.8406 84.8263C88.8406 84.7489 88.8018 84.68 88.7243 84.6197C88.6469 84.5595 88.5113 84.5143 88.3176 84.4842L88.563 84H89.1698L89.0859 84.1937C89.215 84.2367 89.3312 84.3056 89.4345 84.4002C89.5421 84.4992 89.5959 84.6283 89.5959 84.7876ZM94.0868 82.2312C94.0868 82.8165 93.9319 83.2684 93.622 83.5868C93.3165 83.9053 92.899 84.0646 92.3697 84.0646C92.0426 84.0646 91.7499 83.9935 91.4917 83.8515C91.2378 83.7095 91.0376 83.5029 90.8913 83.2318C90.745 82.9563 90.6718 82.6228 90.6718 82.2312C90.6718 81.6459 90.8246 81.1961 91.1302 80.8819C91.4357 80.5678 91.8554 80.4107 92.389 80.4107C92.7204 80.4107 93.0131 80.4817 93.267 80.6237C93.5209 80.7657 93.721 80.9723 93.8674 81.2435C94.0137 81.5103 94.0868 81.8395 94.0868 82.2312ZM91.6531 82.2312C91.6531 82.5798 91.709 82.8444 91.8209 83.0252C91.9371 83.2017 92.1243 83.2899 92.3826 83.2899C92.6365 83.2899 92.8194 83.2017 92.9313 83.0252C93.0475 82.8444 93.1056 82.5798 93.1056 82.2312C93.1056 81.8826 93.0475 81.6222 92.9313 81.45C92.8194 81.2736 92.6343 81.1854 92.3761 81.1854C92.1222 81.1854 91.9371 81.2736 91.8209 81.45C91.709 81.6222 91.6531 81.8826 91.6531 82.2312ZM97.4382 82.9542C97.4382 83.3114 97.3113 83.5868 97.0573 83.7805C96.8077 83.9699 96.4333 84.0646 95.9341 84.0646C95.6887 84.0646 95.4779 84.0473 95.3014 84.0129C95.125 83.9828 94.9485 83.9311 94.772 83.858V83.0639C94.9614 83.15 95.1658 83.221 95.3853 83.277C95.6048 83.3329 95.7985 83.3609 95.9663 83.3609C96.1557 83.3609 96.2891 83.3329 96.3666 83.277C96.4484 83.221 96.4892 83.1479 96.4892 83.0575C96.4892 82.9972 96.472 82.9434 96.4376 82.8961C96.4075 82.8487 96.3386 82.795 96.231 82.7347C96.1234 82.6744 95.9556 82.597 95.7275 82.5023C95.508 82.4076 95.3272 82.3151 95.1852 82.2247C95.0432 82.13 94.9377 82.0181 94.8689 81.889C94.8 81.7556 94.7656 81.5899 94.7656 81.3919C94.7656 81.0648 94.8926 80.8195 95.1465 80.656C95.4004 80.4924 95.7382 80.4107 96.16 80.4107C96.3795 80.4107 96.5882 80.4322 96.7862 80.4752C96.9842 80.5183 97.1886 80.5893 97.3995 80.6883L97.109 81.379C96.9368 81.3059 96.7733 81.2456 96.6184 81.1983C96.4634 81.1466 96.3063 81.1208 96.1471 81.1208C95.863 81.1208 95.721 81.1983 95.721 81.3532C95.721 81.4091 95.7382 81.4608 95.7727 81.5081C95.8114 81.5512 95.8824 81.5985 95.9857 81.6502C96.0933 81.7018 96.2504 81.7707 96.457 81.8567C96.6592 81.9385 96.8335 82.0246 96.9799 82.115C97.1262 82.201 97.2381 82.3108 97.3156 82.4442C97.3973 82.5733 97.4382 82.7433 97.4382 82.9542Z" fill="black" fill-opacity="0.84"/>
</g>
<g clip-path="url(#clip0)">
<path d="M74.6706 44.5584C74.7572 40.4296 78.1426 37.098 82.2916 37.098H87.4815C91.6304 37.098 95.0159 40.4296 95.1025 44.5584H74.6706Z" fill="#85CBFB"/>
<path d="M94.8876 44.351H74.8855C75.0787 40.4332 78.327 37.3055 82.2916 37.3055H87.4815C91.4461 37.3055 94.6944 40.4332 94.8876 44.351Z" stroke="black" stroke-opacity="0.8" stroke-width="0.414938"/>
<mask id="path-32-inside-1" fill="white">
<path d="M87.4815 37.2602C91.4865 37.2602 94.7645 40.4325 94.9351 44.3962H74.838C75.0086 40.4325 78.2867 37.2602 82.2916 37.2602H87.4815ZM87.4815 36.9358H82.2916C77.9922 36.9358 74.5068 40.4211 74.5068 44.7206H95.2663C95.2663 40.4211 91.781 36.9358 87.4815 36.9358Z"/>
</mask>
<path d="M87.4815 37.2602C91.4865 37.2602 94.7645 40.4325 94.9351 44.3962H74.838C75.0086 40.4325 78.2867 37.2602 82.2916 37.2602H87.4815ZM87.4815 36.9358H82.2916C77.9922 36.9358 74.5068 40.4211 74.5068 44.7206H95.2663C95.2663 40.4211 91.781 36.9358 87.4815 36.9358Z" fill="black" fill-opacity="0.8"/>
<path d="M94.9351 44.3962V44.8112H95.3683L95.3497 44.3784L94.9351 44.3962ZM74.838 44.3962L74.4235 44.3784L74.4048 44.8112H74.838V44.3962ZM74.5068 44.7206H74.0919V45.1355H74.5068V44.7206ZM95.2663 44.7206V45.1355H95.6813V44.7206H95.2663ZM87.4815 37.6751C91.2632 37.6751 94.3595 40.6713 94.5206 44.4141L95.3497 44.3784C95.1696 40.1937 91.7098 36.8452 87.4815 36.8452V37.6751ZM94.9351 43.9813H74.838V44.8112H94.9351V43.9813ZM75.2526 44.4141C75.4137 40.6713 78.51 37.6751 82.2916 37.6751V36.8452C78.0634 36.8452 74.6036 40.1937 74.4235 44.3784L75.2526 44.4141ZM82.2916 37.6751H87.4815V36.8452H82.2916V37.6751ZM87.4815 36.5209H82.2916V37.3507H87.4815V36.5209ZM82.2916 36.5209C77.763 36.5209 74.0919 40.192 74.0919 44.7206H74.9218C74.9218 40.6503 78.2213 37.3507 82.2916 37.3507V36.5209ZM74.5068 45.1355H95.2663V44.3057H74.5068V45.1355ZM95.6813 44.7206C95.6813 40.192 92.0102 36.5209 87.4815 36.5209V37.3507C91.5518 37.3507 94.8514 40.6503 94.8514 44.7206H95.6813Z" fill="black" fill-opacity="0.8" mask="url(#path-32-inside-1)"/>
<path d="M84.8865 39.3686C82.8654 39.3686 81.9374 37.8253 81.8051 37.5846V33.8544H87.968V37.5849C87.8331 37.8363 86.9265 39.3686 84.8865 39.3686Z" fill="#E8D47B"/>
<path d="M84.8865 39.1611C83.0847 39.1611 82.205 37.8577 82.0125 37.5297V34.0618H87.7606V37.5312C87.5708 37.8624 86.7096 39.1611 84.8865 39.1611Z" stroke="black" stroke-opacity="0.8" stroke-width="0.414938"/>
<mask id="path-36-inside-2" fill="white">
<path d="M87.8058 34.0165V37.5431C87.6277 37.857 86.7539 39.2064 84.8865 39.2064C83.0181 39.2064 82.1443 37.8554 81.9672 37.5434V34.0165H87.8058ZM88.1302 33.6922H81.6428V37.6248C81.6428 37.6248 82.5789 39.5308 84.8865 39.5308C87.194 39.5308 88.1302 37.6248 88.1302 37.6248V33.6922Z"/>
</mask>
<path d="M87.8058 34.0165V37.5431C87.6277 37.857 86.7539 39.2064 84.8865 39.2064C83.0181 39.2064 82.1443 37.8554 81.9672 37.5434V34.0165H87.8058ZM88.1302 33.6922H81.6428V37.6248C81.6428 37.6248 82.5789 39.5308 84.8865 39.5308C87.194 39.5308 88.1302 37.6248 88.1302 37.6248V33.6922Z" fill="#BA9B48"/>
<path d="M87.8058 34.0165H88.2207V33.6016H87.8058V34.0165ZM87.8058 37.5431L88.1667 37.7478L88.2207 37.6525V37.5431H87.8058ZM81.9672 37.5434H81.5523V37.6529L81.6063 37.7482L81.9672 37.5434ZM81.9672 34.0165V33.6016H81.5523V34.0165H81.9672ZM88.1302 33.6922H88.5451V33.2772H88.1302V33.6922ZM81.6428 33.6922V33.2772H81.2279V33.6922H81.6428ZM81.6428 37.6248H81.2279V37.7212L81.2704 37.8077L81.6428 37.6248ZM88.1302 37.6248L88.5026 37.8077L88.5451 37.7212V37.6248H88.1302ZM87.3909 34.0165V37.5431H88.2207V34.0165H87.3909ZM87.4449 37.3384C87.2896 37.6121 86.5241 38.7915 84.8865 38.7915V39.6213C86.9837 39.6213 87.9658 38.102 88.1667 37.7478L87.4449 37.3384ZM84.8865 38.7915C83.248 38.7915 82.4825 37.6106 82.3281 37.3386L81.6063 37.7482C81.8061 38.1002 82.7882 39.6213 84.8865 39.6213V38.7915ZM82.3821 37.5434V34.0165H81.5523V37.5434H82.3821ZM81.9672 34.4315H87.8058V33.6016H81.9672V34.4315ZM88.1302 33.2772H81.6428V34.1071H88.1302V33.2772ZM81.2279 33.6922V37.6248H82.0578V33.6922H81.2279ZM81.6428 37.6248C81.2704 37.8077 81.2705 37.8079 81.2706 37.8081C81.2706 37.8082 81.2707 37.8084 81.2708 37.8085C81.2709 37.8088 81.2711 37.8091 81.2713 37.8095C81.2716 37.8102 81.272 37.811 81.2725 37.812C81.2734 37.8138 81.2746 37.8162 81.276 37.819C81.2789 37.8246 81.2827 37.8319 81.2875 37.8409C81.2971 37.859 81.3106 37.8837 81.3282 37.9142C81.3634 37.9752 81.4151 38.0593 81.4841 38.1589C81.6218 38.3577 81.8309 38.6209 82.1197 38.8844C82.7005 39.4141 83.6071 39.9457 84.8865 39.9457V39.1158C83.8583 39.1158 83.1431 38.6945 82.6789 38.2712C82.4453 38.0581 82.2761 37.8449 82.1662 37.6863C82.1114 37.6072 82.0719 37.5425 82.0469 37.4991C82.0344 37.4775 82.0255 37.4613 82.0203 37.4515C82.0177 37.4465 82.016 37.4432 82.0151 37.4415C82.0147 37.4407 82.0145 37.4403 82.0145 37.4404C82.0145 37.4404 82.0146 37.4405 82.0147 37.4408C82.0148 37.4409 82.0149 37.4411 82.015 37.4412C82.015 37.4413 82.0151 37.4415 82.0151 37.4415C82.0152 37.4417 82.0153 37.4419 81.6428 37.6248ZM84.8865 39.9457C86.1658 39.9457 87.0724 39.4141 87.6533 38.8844C87.9421 38.6209 88.1512 38.3577 88.2889 38.1589C88.3579 38.0593 88.4095 37.9752 88.4447 37.9142C88.4623 37.8837 88.4759 37.859 88.4855 37.8409C88.4903 37.8319 88.4941 37.8246 88.4969 37.819C88.4984 37.8162 88.4996 37.8138 88.5005 37.812C88.501 37.811 88.5014 37.8102 88.5017 37.8095C88.5019 37.8091 88.5021 37.8088 88.5022 37.8085C88.5023 37.8084 88.5024 37.8082 88.5024 37.8081C88.5025 37.8079 88.5026 37.8077 88.1302 37.6248C87.7577 37.4419 87.7578 37.4417 87.7579 37.4415C87.7579 37.4415 87.758 37.4413 87.758 37.4412C87.7581 37.4411 87.7582 37.4409 87.7583 37.4408C87.7584 37.4405 87.7584 37.4404 87.7585 37.4404C87.7585 37.4403 87.7583 37.4407 87.7579 37.4415C87.757 37.4432 87.7553 37.4465 87.7527 37.4515C87.7474 37.4613 87.7386 37.4775 87.7261 37.4991C87.7011 37.5425 87.6616 37.6072 87.6068 37.6863C87.4969 37.8449 87.3277 38.0581 87.0941 38.2712C86.6299 38.6945 85.9147 39.1158 84.8865 39.1158V39.9457ZM88.5451 37.6248V33.6922H87.7152V37.6248H88.5451Z" fill="black" fill-opacity="0.8" mask="url(#path-36-inside-2)"/>
<path d="M89.5205 32.0473C88.588 32.0473 87.8293 31.2886 87.8293 30.356C87.8293 29.4235 88.588 28.6648 89.5205 28.6648C90.722 28.6648 91.2118 28.9759 91.2118 29.7385C91.2118 30.6499 90.4541 32.0473 89.5205 32.0473ZM80.2527 32.0473C79.3192 32.0473 78.5615 30.6499 78.5615 29.7381C78.5615 28.9755 79.0516 28.6645 80.2527 28.6645C81.1853 28.6645 81.944 29.4232 81.944 30.3557C81.944 31.2883 81.1853 32.0473 80.2527 32.0473Z" fill="#E8D47B"/>
<path d="M89.5205 31.9436C88.6453 31.9436 87.933 31.2313 87.933 30.356C87.933 29.4808 88.6453 28.7685 89.5205 28.7685C90.1173 28.7685 90.5147 28.8468 90.7611 29.0032C90.9962 29.1525 91.108 29.3827 91.108 29.7385C91.108 30.1701 90.9268 30.7278 90.6297 31.1775C90.3303 31.6306 89.9347 31.9436 89.5205 31.9436ZM80.2527 31.9436C79.8386 31.9436 79.443 31.6306 79.1436 31.1775C78.8464 30.7277 78.6652 30.17 78.6652 29.7381C78.6652 29.3824 78.7771 29.1522 79.0123 29.0029C79.2587 28.8464 79.6561 28.7682 80.2527 28.7682C81.128 28.7682 81.8402 29.4805 81.8402 30.3557C81.8402 31.231 81.128 31.9436 80.2527 31.9436Z" stroke="black" stroke-opacity="0.8" stroke-width="0.207469"/>
<path d="M89.5205 28.8267C90.7936 28.8267 91.0495 29.1754 91.0495 29.7381C91.0495 30.6558 90.2934 31.8851 89.5205 31.8851C88.6774 31.8851 87.9914 31.1991 87.9914 30.356C87.9911 29.5127 88.6771 28.8267 89.5205 28.8267ZM80.2527 28.8267C81.0957 28.8267 81.7817 29.5127 81.7817 30.3557C81.7817 31.1988 81.0957 31.8848 80.2527 31.8848C79.4794 31.8848 78.7236 30.6554 78.7236 29.7378C78.7236 29.1754 78.9795 28.8267 80.2527 28.8267ZM89.5205 28.5023C88.4968 28.5023 87.667 29.332 87.667 30.3557C87.667 31.3794 88.4968 32.2092 89.5205 32.2092C90.5442 32.2092 91.3739 30.7615 91.3739 29.7378C91.3739 28.7141 90.5442 28.5023 89.5205 28.5023ZM80.2527 28.5023C79.229 28.5023 78.3992 28.7144 78.3992 29.7381C78.3992 30.7618 79.229 32.2095 80.2527 32.2095C81.2764 32.2095 82.1061 31.3797 82.1061 30.356C82.1064 29.332 81.2764 28.5023 80.2527 28.5023Z" fill="#BA9B48"/>
<path d="M90.8223 28.9866C91.0848 29.172 91.1533 29.4408 91.1533 29.7381C91.1533 30.2218 90.9555 30.7784 90.6608 31.2139C90.3694 31.6444 89.96 31.9888 89.5205 31.9888C88.6202 31.9888 87.8877 31.2564 87.8877 30.3561L90.8223 28.9866ZM90.8223 28.9866C90.5712 28.8094 90.1606 28.7229 89.5205 28.7229M90.8223 28.9866L89.5205 28.7229M89.5205 28.7229C88.6199 28.7229 87.8874 29.4554 87.8877 30.356L89.5205 28.7229ZM82.0024 30.356V30.356C82.0024 31.3225 81.2191 32.1057 80.2527 32.1057C79.791 32.1057 79.3549 31.7771 79.0277 31.2991C78.7021 30.8236 78.503 30.2258 78.503 29.7381C78.503 29.4963 78.5519 29.3097 78.6349 29.1647C78.7177 29.02 78.838 28.9103 78.9913 28.8276C79.3026 28.6597 79.7435 28.606 80.2527 28.606C81.2191 28.606 82.0027 29.3893 82.0024 30.356ZM81.8855 30.3557C81.8855 29.4554 81.153 28.7229 80.2527 28.7229C79.6125 28.7229 79.2019 28.8094 78.9509 28.9866C78.6883 29.1719 78.6199 29.4407 78.6199 29.7378C78.6199 30.2214 78.8176 30.7781 79.1122 31.2135C79.4036 31.6441 79.813 31.9885 80.2527 31.9885C81.153 31.9885 81.8855 31.256 81.8855 30.3557ZM87.7708 30.3557C87.7708 29.3893 88.5541 28.606 89.5205 28.606C90.0297 28.606 90.4706 28.6596 90.7818 28.8275C90.9351 28.9101 91.0555 29.0198 91.1382 29.1644C91.2213 29.3094 91.2702 29.496 91.2702 29.7378C91.2702 30.2255 91.071 30.8233 90.7455 31.2988C90.4182 31.7768 89.9821 32.1054 89.5205 32.1054C88.5541 32.1054 87.7708 31.3221 87.7708 30.3557Z" stroke="black" stroke-opacity="0.8" stroke-width="0.207469"/>
<path d="M84.8865 36.7737C84.4509 36.7737 84.0305 36.6131 83.7032 36.3218L83.6737 36.2956L83.6354 36.2858C81.4119 35.7153 79.8588 33.7152 79.8588 31.4216V25.3894C79.8588 24.1149 80.8955 23.0783 82.1699 23.0783H87.6028C88.8772 23.0783 89.9139 24.1149 89.9139 25.3894V31.4216C89.9139 33.7152 88.3608 35.7153 86.1373 36.2858L86.099 36.2956L86.0695 36.3218C85.7425 36.6131 85.3221 36.7737 84.8865 36.7737Z" fill="#FFEEA3"/>
<path d="M83.7739 36.107L83.8116 36.1406L83.8412 36.1669C84.1307 36.4246 84.5021 36.5662 84.8865 36.5662C85.271 36.5662 85.6423 36.4246 85.9315 36.1669L85.9315 36.1669L85.9611 36.1406L85.9988 36.107L86.0479 36.0945L86.0857 36.0849L83.7739 36.107ZM83.7739 36.107L83.7248 36.0945M83.7739 36.107L83.7248 36.0945M83.7248 36.0945L83.687 36.0849M83.7248 36.0945L83.687 36.0849M83.687 36.0849L83.6866 36.0848C81.5549 35.5376 80.0663 33.6202 80.0663 31.4216V25.3894C80.0663 24.2295 81.0101 23.2857 82.1699 23.2857H87.6028C88.7626 23.2857 89.7064 24.2295 89.7064 25.3894V31.4216C89.7064 33.6202 88.2178 35.5376 86.0861 36.0848L83.687 36.0849Z" stroke="black" stroke-opacity="0.8" stroke-width="0.414938"/>
<mask id="path-44-inside-3" fill="white">
<path d="M87.6031 23.2404C88.788 23.2404 89.752 24.2044 89.752 25.3894V31.4216C89.752 33.6409 88.2492 35.5768 86.0971 36.1288L86.0208 36.1483L85.9621 36.2005C85.6644 36.4655 85.2823 36.6115 84.8865 36.6115C84.4908 36.6115 84.1087 36.4655 83.8109 36.2005L83.7522 36.1483L83.676 36.1288C81.5238 35.5768 80.021 33.6409 80.021 31.4216V25.3894C80.021 24.2044 80.985 23.2404 82.17 23.2404H87.6031V23.2404ZM87.6031 22.9161H82.17C80.804 22.9161 79.6967 24.0235 79.6967 25.3894V31.4216C79.6967 33.8414 81.3548 35.868 83.5952 36.4428C83.9391 36.7487 84.3902 36.9359 84.8865 36.9359C85.3828 36.9359 85.834 36.7487 86.1778 36.4428C88.4182 35.868 90.0764 33.8414 90.0764 31.4216V25.3894C90.0764 24.0235 88.969 22.9161 87.6031 22.9161Z"/>
</mask>
<path d="M87.6031 23.2404C88.788 23.2404 89.752 24.2044 89.752 25.3894V31.4216C89.752 33.6409 88.2492 35.5768 86.0971 36.1288L86.0208 36.1483L85.9621 36.2005C85.6644 36.4655 85.2823 36.6115 84.8865 36.6115C84.4908 36.6115 84.1087 36.4655 83.8109 36.2005L83.7522 36.1483L83.676 36.1288C81.5238 35.5768 80.021 33.6409 80.021 31.4216V25.3894C80.021 24.2044 80.985 23.2404 82.17 23.2404H87.6031V23.2404ZM87.6031 22.9161H82.17C80.804 22.9161 79.6967 24.0235 79.6967 25.3894V31.4216C79.6967 33.8414 81.3548 35.868 83.5952 36.4428C83.9391 36.7487 84.3902 36.9359 84.8865 36.9359C85.3828 36.9359 85.834 36.7487 86.1778 36.4428C88.4182 35.868 90.0764 33.8414 90.0764 31.4216V25.3894C90.0764 24.0235 88.969 22.9161 87.6031 22.9161Z" fill="#BA9B48"/>
<path d="M86.0971 36.1288L86.1997 36.5309L86.2002 36.5308L86.0971 36.1288ZM86.0208 36.1483L85.9182 35.7462L85.8204 35.7712L85.7451 35.8383L86.0208 36.1483ZM85.9621 36.2005L85.6864 35.8905L85.6863 35.8906L85.9621 36.2005ZM83.8109 36.2005L84.0868 35.8906L84.0867 35.8905L83.8109 36.2005ZM83.7522 36.1483L84.028 35.8383L83.9526 35.7712L83.8549 35.7462L83.7522 36.1483ZM83.676 36.1288L83.5729 36.5308L83.5733 36.5309L83.676 36.1288ZM83.5952 36.4428L83.871 36.1328L83.7958 36.0659L83.6983 36.0409L83.5952 36.4428ZM86.1778 36.4428L86.0747 36.0409L85.9772 36.0659L85.902 36.1328L86.1778 36.4428ZM87.6031 23.6554C88.5589 23.6554 89.3371 24.4336 89.3371 25.3894H90.167C90.167 23.9753 89.0172 22.8255 87.6031 22.8255V23.6554ZM89.3371 25.3894V31.4216H90.167V25.3894H89.3371ZM89.3371 31.4216C89.3371 33.4512 87.9629 35.2218 85.994 35.7269L86.2002 36.5308C88.5356 35.9317 90.167 33.8306 90.167 31.4216H89.3371ZM85.9944 35.7268L85.9182 35.7462L86.1235 36.5503L86.1997 36.5309L85.9944 35.7268ZM85.7451 35.8383L85.6864 35.8905L86.2379 36.5105L86.2966 36.4583L85.7451 35.8383ZM85.6863 35.8906C85.4639 36.0885 85.1798 36.1965 84.8865 36.1965V37.0264C85.3847 37.0264 85.8648 36.8426 86.238 36.5105L85.6863 35.8906ZM84.8865 36.1965C84.5933 36.1965 84.3092 36.0885 84.0868 35.8906L83.5351 36.5105C83.9082 36.8426 84.3883 37.0264 84.8865 37.0264V36.1965ZM84.0867 35.8905L84.028 35.8383L83.4764 36.4583L83.5351 36.5105L84.0867 35.8905ZM83.8549 35.7462L83.7786 35.7268L83.5733 36.5309L83.6496 36.5503L83.8549 35.7462ZM83.7791 35.7269C81.8102 35.2218 80.436 33.4512 80.436 31.4216H79.6061C79.6061 33.8306 81.2374 35.9317 83.5729 36.5308L83.7791 35.7269ZM80.436 31.4216V25.3894H79.6061V31.4216H80.436ZM80.436 25.3894C80.436 24.4336 81.2142 23.6554 82.17 23.6554V22.8255C80.7559 22.8255 79.6061 23.9753 79.6061 25.3894H80.436ZM82.17 23.6554H87.6031V22.8255H82.17V23.6554ZM87.6031 22.5011H82.17V23.331H87.6031V22.5011ZM82.17 22.5011C80.5749 22.5011 79.2817 23.7943 79.2817 25.3894H80.1116C80.1116 24.2526 81.0332 23.331 82.17 23.331V22.5011ZM79.2817 25.3894V31.4216H80.1116V25.3894H79.2817ZM79.2817 31.4216C79.2817 34.0363 81.0735 36.2242 83.4921 36.8447L83.6983 36.0409C81.6361 35.5118 80.1116 33.6465 80.1116 31.4216H79.2817ZM83.3194 36.7528C83.7354 37.1229 84.2835 37.3508 84.8865 37.3508V36.5209C84.497 36.5209 84.1427 36.3745 83.871 36.1328L83.3194 36.7528ZM84.8865 37.3508C85.4895 37.3508 86.0377 37.1229 86.4536 36.7528L85.902 36.1328C85.6303 36.3745 85.2761 36.5209 84.8865 36.5209V37.3508ZM86.2809 36.8447C88.6995 36.2242 90.4913 34.0363 90.4913 31.4216H89.6615C89.6615 33.6465 88.1369 35.5118 86.0747 36.0409L86.2809 36.8447ZM90.4913 31.4216V25.3894H89.6615V31.4216H90.4913ZM90.4913 25.3894C90.4913 23.7943 89.1982 22.5011 87.6031 22.5011V23.331C88.7398 23.331 89.6615 24.2526 89.6615 25.3894H90.4913Z" fill="black" fill-opacity="0.8" mask="url(#path-44-inside-3)"/>
<path d="M79.55 21C82.55 18 89 22 89 23C89 24 90.05 23.5 90.05 23.5C90.0738 27.3737 90.3443 28.4741 89.5 27.5L88.5 26L84.5 27L79.55 26.5C79.55 26.5 76.55 24 79.55 21Z" fill="#8D98A7"/>
<path d="M88.7496 25.8336L88.6323 25.6577L88.4272 25.709L84.478 26.6963L79.6776 26.2114C79.6653 26.1998 79.6515 26.1867 79.6363 26.1719C79.5664 26.1038 79.4682 26.002 79.3586 25.8705C79.1384 25.6062 78.8781 25.2289 78.7059 24.7697C78.5346 24.3129 78.4513 23.778 78.5777 23.1879C78.7041 22.5979 79.0453 21.929 79.7622 21.2121C81.1265 19.8478 83.325 20.0376 85.2941 20.7807C86.2636 21.1465 87.1402 21.6341 87.7701 22.0873C88.0857 22.3144 88.3319 22.5274 88.4956 22.7064C88.5777 22.7961 88.6332 22.871 88.6667 22.9292C88.6957 22.9797 88.6996 23.0029 88.7 23.0035C88.7006 23.302 88.7802 23.5487 88.9572 23.7172C89.1321 23.8838 89.3511 23.925 89.525 23.925C89.6046 23.925 89.682 23.9165 89.7534 23.9039C89.7611 24.6175 89.7762 25.2279 89.7889 25.7386C89.7903 25.7948 89.7916 25.8498 89.7929 25.9036C89.8086 26.541 89.8177 26.9974 89.801 27.3015C89.7994 27.3301 89.7977 27.3566 89.7957 27.381C89.778 27.3617 89.7591 27.3406 89.7389 27.3176L88.7496 25.8336ZM89.7543 27.6244C89.7542 27.6241 89.7552 27.6217 89.7574 27.6177C89.7555 27.6226 89.7544 27.6246 89.7543 27.6244ZM89.9713 27.5436C89.9756 27.5453 89.9779 27.5467 89.978 27.547C89.978 27.5472 89.9759 27.5463 89.9713 27.5436Z" stroke="black" stroke-opacity="0.8" stroke-width="0.6"/>
</g>
<g filter="url(#filter2_d)">
<g filter="url(#filter3_i)">
<path d="M98 22H98.5V25L99.5 25.5H100.5L101.5 25V22H102L103 24V26.5L101.5 28.5L101 30.5V38L100 38.5L99 38V30.5L98.5 28.5L97 26.5V24L98 22Z" fill="#C4C4C4"/>
</g>
<path d="M100.081 37.6366C99.8688 37.6366 99.6966 37.4467 99.6966 37.2125C99.6966 36.9783 99.8688 36.7884 100.081 36.7884C100.294 36.7884 100.466 36.9783 100.466 37.2125C100.466 37.4467 100.294 37.6366 100.081 37.6366Z" fill="black" fill-opacity="0.8"/>
<path d="M96.6198 25.0562C96.6198 23.6992 97.2865 22.427 98.3506 21.7485L98.4147 21.7203H98.8634V24.929C99.5813 25.5368 100.581 25.5368 101.299 24.929V21.7203H101.748L101.812 21.7627C102.876 22.427 103.543 23.6992 103.543 25.0562C103.543 25.1127 103.543 25.1834 103.543 25.2399C103.543 25.2682 103.543 25.2824 103.543 25.3106C103.543 25.353 103.543 25.3813 103.53 25.4237C103.53 25.452 103.53 25.4802 103.517 25.5085C103.517 25.5368 103.504 25.5792 103.504 25.6075C103.504 25.6357 103.492 25.664 103.492 25.7064C103.492 25.7347 103.479 25.7629 103.479 25.7912C103.479 25.8195 103.466 25.8619 103.453 25.8902C103.453 25.9184 103.44 25.9467 103.44 25.975C103.427 26.0032 103.427 26.0457 103.415 26.0739C103.415 26.1022 103.402 26.1163 103.402 26.1446C103.389 26.187 103.376 26.2153 103.376 26.2577C103.363 26.2718 103.363 26.3001 103.35 26.3142C103.338 26.3566 103.325 26.399 103.312 26.4273C103.312 26.4414 103.299 26.4556 103.299 26.4697C103.286 26.5121 103.261 26.5545 103.248 26.5969C103.248 26.6111 103.235 26.6111 103.235 26.6252C103.209 26.6817 103.197 26.7241 103.171 26.7807C102.992 27.1623 102.761 27.5016 102.479 27.7984L102.325 27.9822C101.838 28.5335 101.504 29.9752 101.504 30.9223V37.2125C101.504 38.0747 100.876 38.7674 100.094 38.7674C99.3121 38.7674 98.6839 38.0747 98.6839 37.2125V30.9364C98.6839 29.9894 98.3506 28.5476 97.8634 27.9963L97.7095 27.8126C97.4275 27.5157 97.1967 27.1765 97.0172 26.7948C96.9916 26.7524 96.966 26.6959 96.9531 26.6393C96.9531 26.6252 96.9403 26.6252 96.9403 26.6111C96.9275 26.5687 96.9019 26.5263 96.889 26.4838C96.889 26.4697 96.8762 26.4556 96.8762 26.4414C96.8634 26.399 96.8506 26.3708 96.8378 26.3284C96.8249 26.3142 96.8249 26.286 96.8121 26.2718C96.7993 26.2294 96.7865 26.2011 96.7865 26.1587C96.7737 26.1305 96.7737 26.1163 96.7737 26.0881C96.7608 26.0598 96.7608 26.0174 96.748 25.9891C96.748 25.9608 96.7352 25.9326 96.7352 25.9043C96.7224 25.876 96.7224 25.8336 96.7096 25.8054C96.7096 25.7771 96.6967 25.7488 96.6967 25.7205C96.6967 25.6923 96.6839 25.664 96.6839 25.6216C96.6839 25.5933 96.6711 25.5509 96.6711 25.5227C96.6711 25.4944 96.6583 25.4661 96.6583 25.4378C96.6583 25.3954 96.6583 25.3672 96.6455 25.3248C96.6455 25.2965 96.6455 25.2824 96.6455 25.2541C96.6198 25.1834 96.6198 25.1127 96.6198 25.0562ZM101.812 22.427V25.1834L101.722 25.2682C101.248 25.7205 100.671 25.9467 100.081 25.9467C99.4916 25.9467 98.9147 25.7205 98.4403 25.2824L98.3506 25.1975V22.427C97.5942 23.0349 97.1326 24.0102 97.1326 25.0562C97.1326 25.1551 97.1326 25.2541 97.1454 25.353V25.3672C97.1583 25.4661 97.1711 25.5651 97.1839 25.6499C97.1839 25.664 97.1839 25.664 97.1839 25.6781C97.1967 25.7771 97.2224 25.8619 97.248 25.9608V25.975C97.2737 26.0739 97.2993 26.1587 97.3378 26.2577C97.3378 26.2577 97.3378 26.2577 97.3378 26.2718C97.4788 26.6535 97.6839 26.9927 97.9403 27.3037L98.0557 27.4309C98.5941 27.968 99.2993 28.3073 100.081 28.3073C100.863 28.3073 101.568 27.968 102.094 27.4168L102.209 27.2896C102.466 26.9927 102.671 26.6393 102.812 26.2577C102.812 26.2577 102.812 26.2577 102.812 26.2435C102.85 26.1587 102.876 26.0598 102.902 25.9608V25.9467C102.927 25.8619 102.94 25.7629 102.966 25.664C102.966 25.6499 102.966 25.6499 102.966 25.6357C102.979 25.5368 102.992 25.452 103.004 25.353V25.3389C103.03 25.2541 103.03 25.1551 103.03 25.0562C103.03 24.0102 102.568 23.0349 101.812 22.427ZM99.1839 30.9364V37.2125C99.1839 37.7638 99.5813 38.2019 100.081 38.2019C100.581 38.2019 100.979 37.7638 100.979 37.2125V30.9364C100.979 30.3286 101.12 29.3674 101.415 28.5759C101.004 28.7738 100.556 28.8727 100.081 28.8727C99.6069 28.8727 99.1582 28.7738 98.748 28.5759C99.0429 29.3674 99.1839 30.3428 99.1839 30.9364Z" fill="black" fill-opacity="0.8"/>
<g filter="url(#filter4_i)">
<path d="M92.5 30H95L94.5 31.5L95 32.5V37L94.5 38.5H93L92.5 37V30Z" fill="#DC3939" fill-opacity="0.87"/>
</g>
<path d="M92.2737 30.9647L92.1327 30.8799V29.7208H93.4147V23.1479C93.3378 23.1055 93.2737 23.0631 93.2224 22.9925C93.107 22.8511 93.0557 22.6673 93.0685 22.4836L93.1839 21.2397H94.1583L94.2737 22.4836C94.2865 22.6673 94.2352 22.8511 94.1198 22.9925C94.0685 23.0631 94.0044 23.1055 93.9275 23.1479V29.7208H95.2095V30.8799L95.0685 30.9647C94.9147 31.0495 94.8121 31.2191 94.8121 31.417C94.8121 31.6149 94.9018 31.7846 95.0685 31.8694L95.2095 31.9542V37.0711C95.2095 38.0041 94.5172 38.7674 93.6711 38.7674C92.825 38.7674 92.1327 38.0041 92.1327 37.0711V31.9542L92.2737 31.8694C92.4275 31.7846 92.5301 31.6149 92.5301 31.417C92.5301 31.2191 92.4275 31.0495 92.2737 30.9647ZM93.6967 21.8051H93.6455L93.5814 22.5401C93.5814 22.5825 93.5942 22.6108 93.607 22.6249C93.6198 22.6391 93.6326 22.6532 93.6711 22.6532C93.7096 22.6532 93.7352 22.6391 93.7352 22.6249C93.7352 22.6108 93.7608 22.5825 93.7608 22.5401L93.6967 21.8051ZM94.6967 30.5548V30.2862H92.6455V30.5548C92.8891 30.7527 93.0429 31.0778 93.0429 31.417C93.0429 31.7704 92.8891 32.0814 92.6455 32.2793V36.7884H94.6967V32.2793C94.4531 32.0814 94.2993 31.7563 94.2993 31.417C94.2993 31.0637 94.4531 30.7527 94.6967 30.5548ZM93.6711 38.2019C94.1454 38.2019 94.5429 37.8344 94.6583 37.3538H92.6711C92.7993 37.8344 93.1967 38.2019 93.6711 38.2019Z" fill="black" fill-opacity="0.8"/>
</g>
<defs>
<filter id="filter0_d" x="0" y="0" width="120" height="120" filterUnits="userSpaceOnUse" color-interpolation-filters="sRGB">
<feFlood flood-opacity="0" result="BackgroundImageFix"/>
<feColorMatrix in="SourceAlpha" type="matrix" values="0 0 0 0 0 0 0 0 0 0 0 0 0 0 0 0 0 0 127 0" result="hardAlpha"/>
<feOffset/>
<feGaussianBlur stdDeviation="5"/>
<feComposite in2="hardAlpha" operator="out"/>
<feColorMatrix type="matrix" values="0 0 0 0 1 0 0 0 0 1 0 0 0 0 1 0 0 0 1 0"/>
<feBlend mode="normal" in2="BackgroundImageFix" result="effect1_dropShadow"/>
<feBlend mode="normal" in="SourceGraphic" in2="effect1_dropShadow" result="shape"/>
</filter>
<filter id="filter1_d" x="11.6667" y="91.0163" width="96.6665" height="23.3333" filterUnits="userSpaceOnUse" color-interpolation-filters="sRGB">
<feFlood flood-opacity="0" result="BackgroundImageFix"/>
<feColorMatrix in="SourceAlpha" type="matrix" values="0 0 0 0 0 0 0 0 0 0 0 0 0 0 0 0 0 0 127 0" result="hardAlpha"/>
<feOffset dy="1"/>
<feGaussianBlur stdDeviation="2.5"/>
<feComposite in2="hardAlpha" operator="out"/>
<feColorMatrix type="matrix" values="0 0 0 0 0 0 0 0 0 0 0 0 0 0 0 0 0 0 0.25 0"/>
<feBlend mode="normal" in2="BackgroundImageFix" result="effect1_dropShadow"/>
<feBlend mode="normal" in="SourceGraphic" in2="effect1_dropShadow" result="shape"/>
</filter>
<filter id="filter2_d" x="88.1901" y="19.8349" width="19.2151" height="20.8982" filterUnits="userSpaceOnUse" color-interpolation-filters="sRGB">
<feFlood flood-opacity="0" result="BackgroundImageFix"/>
<feColorMatrix in="SourceAlpha" type="matrix" values="0 0 0 0 0 0 0 0 0 0 0 0 0 0 0 0 0 0 127 0" result="hardAlpha"/>
<feOffset dx="0.280513" dy="0.280513"/>
<feGaussianBlur stdDeviation="0.701282"/>
<feComposite in2="hardAlpha" operator="out"/>
<feColorMatrix type="matrix" values="0 0 0 0 1 0 0 0 0 1 0 0 0 0 1 0 0 0 1 0"/>
<feBlend mode="normal" in2="BackgroundImageFix" result="effect1_dropShadow"/>
<feBlend mode="normal" in="SourceGraphic" in2="effect1_dropShadow" result="shape"/>
</filter>
<filter id="filter3_i" x="97" y="22" width="6.2" height="16.7" filterUnits="userSpaceOnUse" color-interpolation-filters="sRGB">
<feFlood flood-opacity="0" result="BackgroundImageFix"/>
<feBlend mode="normal" in="SourceGraphic" in2="BackgroundImageFix" result="shape"/>
<feColorMatrix in="SourceAlpha" type="matrix" values="0 0 0 0 0 0 0 0 0 0 0 0 0 0 0 0 0 0 127 0" result="hardAlpha"/>
<feOffset dx="0.7" dy="0.4"/>
<feGaussianBlur stdDeviation="0.1"/>
<feComposite in2="hardAlpha" operator="arithmetic" k2="-1" k3="1"/>
<feColorMatrix type="matrix" values="0 0 0 0 0 0 0 0 0 0 0 0 0 0 0 0 0 0 0.25 0"/>
<feBlend mode="normal" in2="shape" result="effect1_innerShadow"/>
</filter>
<filter id="filter4_i" x="92.5" y="30" width="2.5" height="8.5" filterUnits="userSpaceOnUse" color-interpolation-filters="sRGB">
<feFlood flood-opacity="0" result="BackgroundImageFix"/>
<feBlend mode="normal" in="SourceGraphic" in2="BackgroundImageFix" result="shape"/>
<feColorMatrix in="SourceAlpha" type="matrix" values="0 0 0 0 0 0 0 0 0 0 0 0 0 0 0 0 0 0 127 0" result="hardAlpha"/>
<feOffset dx="0.5" dy="-1"/>
<feComposite in2="hardAlpha" operator="arithmetic" k2="-1" k3="1"/>
<feColorMatrix type="matrix" values="0 0 0 0 0 0 0 0 0 0 0 0 0 0 0 0 0 0 0.25 0"/>
<feBlend mode="normal" in2="shape" result="effect1_innerShadow"/>
</filter>
<clipPath id="clip0">
<rect width="25.9494" height="25.9494" fill="white" transform="translate(73.858 19.42)"/>
</clipPath>
</defs>
</svg>
