<svg width="120" height="120" viewBox="0 0 120 120" fill="none" xmlns="http://www.w3.org/2000/svg">
<g filter="url(#filter0_d)">
<rect x="10" y="10" width="100" height="100" fill="white"/>
</g>
<g filter="url(#filter1_d)">
<path d="M99.8401 98.4368V11H30.8111V22H89V98.4368H99.8401Z" fill="#1B174F"/>
</g>
<line x1="50.5" y1="14" x2="50.5" y2="96.3238" stroke="white"/>
<line x1="80.5" y1="14" x2="80.5" y2="96.3238" stroke="white"/>
<line x1="40.5" y1="14" x2="40.5" y2="96.3238" stroke="white"/>
<line x1="70.5" y1="14" x2="70.5" y2="96.3238" stroke="white"/>
<line x1="60.5" y1="14" x2="60.5" y2="96.3238" stroke="white"/>
<line x1="90.5" y1="14" x2="90.5" y2="96.3238" stroke="white"/>
<line x1="97" y1="30.5" x2="34.0159" y2="30.5" stroke="white"/>
<line x1="97" y1="60.5" x2="34.0159" y2="60.5" stroke="white"/>
<line x1="97" y1="80.5" x2="34.0159" y2="80.5" stroke="white"/>
<line x1="97" y1="20.5" x2="34.0159" y2="20.5" stroke="white"/>
<line x1="97" y1="50.5" x2="34.0159" y2="50.5" stroke="white"/>
<line x1="97" y1="40.5" x2="34.0159" y2="40.5" stroke="white"/>
<line x1="97" y1="70.5" x2="34.0159" y2="70.5" stroke="white"/>
<line x1="97" y1="89.5" x2="34.0159" y2="89.5" stroke="white"/>
<g filter="url(#filter2_d)">
<path d="M20.1046 22.6729V108.177C20.1046 108.711 20.5279 109.143 21.0526 109.143H88.181C88.7102 109.143 89.1336 108.715 89.1336 108.177V22.6729C89.1336 22.1391 88.7102 21.7065 88.1856 21.7065H21.0526C20.5279 21.7065 20.1046 22.1345 20.1046 22.6729ZM29.3084 35.5123H79.9297V40.1143H29.3084V35.5123ZM29.3084 49.3181H79.9297V53.9201H29.3084V49.3181ZM29.3084 63.124H79.9297V67.7259H29.3084V63.124ZM29.3084 76.9298H79.9297V81.5317H29.3084V76.9298ZM29.3084 90.7356H61.522V95.3375H29.3084V90.7356Z" fill="#1B174F"/>
</g>
<rect x="25" y="32" width="59" height="70" fill="#1B174F"/>
<path fill-rule="evenodd" clip-rule="evenodd" d="M65.0988 29.5956L58.4277 29.7027L37.2464 30.0426L27.7466 30.1951L34.6171 36.7576L58.9135 59.965L65.6902 66.438L65.5398 57.0678L65.2059 36.2667L65.0988 29.5956ZM58.7631 50.5948L44.1169 36.6052L58.5348 36.3738L58.7631 50.5948Z" fill="#C3E5E0" fill-opacity="0.7"/>
<rect x="74.9521" y="28.5625" width="11.364" height="69.2169" fill="#DBD3B2" fill-opacity="0.7"/>
<line x1="39.6" y1="24" x2="39.6" y2="106.324" stroke="white" stroke-width="1.2"/>
<line x1="69.6" y1="24" x2="69.6" y2="106.324" stroke="white" stroke-width="1.2"/>
<line x1="29.6" y1="24" x2="29.6" y2="106.324" stroke="white" stroke-width="1.2"/>
<line x1="59.6" y1="24" x2="59.6" y2="106.324" stroke="white" stroke-width="1.2"/>
<line x1="49.6" y1="24" x2="49.6" y2="106.324" stroke="white" stroke-width="1.2"/>
<line x1="79.6" y1="24" x2="79.6" y2="106.324" stroke="white" stroke-width="1.2"/>
<line x1="86" y1="40.6" x2="23.0159" y2="40.6" stroke="white" stroke-width="1.2"/>
<line x1="86" y1="70.6" x2="23.0159" y2="70.6" stroke="white" stroke-width="1.2"/>
<line x1="86" y1="90.6" x2="23.0159" y2="90.6" stroke="white" stroke-width="1.2"/>
<line x1="86" y1="30.6" x2="23.0159" y2="30.6" stroke="white" stroke-width="1.2"/>
<line x1="86" y1="60.6" x2="23.0159" y2="60.6" stroke="white" stroke-width="1.2"/>
<line x1="86" y1="50.6" x2="23.0159" y2="50.6" stroke="white" stroke-width="1.2"/>
<line x1="86" y1="80.6" x2="23.0159" y2="80.6" stroke="white" stroke-width="1.2"/>
<line x1="85.9841" y1="100.6" x2="23" y2="100.6" stroke="white" stroke-width="1.2"/>
<g filter="url(#filter3_d)">
<path d="M54.8069 75.568L19.5069 40.4423" stroke="#7D7D7D" stroke-opacity="0.6" stroke-width="11.4866" shape-rendering="crispEdges"/>
</g>
<path d="M73.919 84.8658L77.0183 87.965L82.1837 93.1305L86.3161 97.7794L46.256 97.7794L46.256 84.8658L73.919 84.8658Z" fill="#E44848"/>
<path d="M44.8921 83.865H72.9865V26.4963H74.136H79.7753H88.3823V99.2607H86.6502H72.9865H44.8921V83.865V83.865ZM47.1911 86.164V88.2512H72.9865V86.164H47.1911ZM72.9865 90.5502H47.1911V92.5755H72.9865V90.5502ZM79.7751 28.7953H75.2853V39.7085H77.5443V42.0075H75.2853V44.1125H79.7751V46.4115H79.7065V46.4801H75.2855V48.8324H77.5445V51.1314H75.2855V53.4835H79.7753V55.7825H75.2855V57.6062H77.5445V59.9053H75.2855V61.729H79.7753V64.028H75.2855V66.133H77.5445V68.432H75.2855V70.537H79.7753V72.836H75.2855V74.9411H77.5445V77.2402H75.2855V79.3451H79.7753V81.6442H75.2855V84.5409L86.0833 95.429V28.7953H79.7751ZM84.3653 96.9616L75.2853 87.8059V96.9616H84.3653ZM72.9865 96.9616V94.8743H47.1911V96.9616H72.9865Z" fill="black"/>
<path d="M80.6842 37.1778C78.8823 37.1778 77.4161 35.7118 77.4161 33.9097C77.4161 32.1077 78.8822 30.6416 80.6842 30.6416C82.4863 30.6416 83.9523 32.1077 83.9523 33.9097C83.9523 35.7116 82.4863 37.1778 80.6842 37.1778ZM80.6842 32.9407C80.1499 32.9407 79.7152 33.3754 79.7152 33.9097C79.7152 34.4439 80.1499 34.8788 80.6842 34.8788C81.2185 34.8788 81.6533 34.4439 81.6533 33.9097C81.6533 33.3754 81.2185 32.9407 80.6842 32.9407Z" fill="black"/>
<path d="M23.2559 35.6003L59.5203 71.8644L50.2642 81.1205L14 44.8564L23.2559 35.6003ZM56.2689 71.8644L53.8581 69.4537L52.2249 71.087L50.5995 69.4612L52.2325 67.8281L50.8541 66.4496L47.614 69.6897L45.9886 68.0641L49.2287 64.824L47.8119 63.4074L46.1957 65.0235L44.5702 63.3981L46.1865 61.782L44.7388 60.3344L41.5641 63.5092L39.9386 61.8836L43.1132 58.709L41.8239 57.4196L40.2266 59.0169L38.6008 57.3913L40.1982 55.7938L38.9089 54.5044L35.7341 57.6792L34.1087 56.0536L37.2833 52.8788L35.7946 51.3902L34.1972 52.9877L32.5718 51.3621L34.1692 49.7648L32.6806 48.2762L29.5058 51.4509L27.8804 49.8253L31.055 46.6508L29.5662 45.1619L27.9687 46.7594L26.3433 45.1338L27.9408 43.5363L26.4521 42.0477L23.2774 45.2225L21.6519 43.5967L24.8265 40.4221L23.2565 38.8521L17.2516 44.8569L50.264 77.8693L56.2689 71.8644Z" fill="black"/>
<path d="M59.2471 35.8037V52.7961L42.255 35.8037H59.2471ZM56.9481 38.1028H47.8052L56.9481 47.2456V38.1028Z" fill="black"/>
<path d="M61.5346 28.6221H65.022H66.1716V69.4282L25.3654 28.6221H61.5346ZM63.8725 59.8049H62.1697V57.5058H63.8725V55.6787H60.8089V53.3796H63.8725V51.5525H62.1697V49.2535H63.8725V47.4261H60.8089V45.1271H63.8725V43.2999H62.1697V41.0009H63.8725V39.1737H60.8089V36.8747H63.8725V35.0475H62.1697V32.7485H63.8725V30.9214H61.5346H30.9159L63.8725 63.878V59.8049Z" fill="black"/>
<defs>
<filter id="filter0_d" x="0" y="0" width="120" height="120" filterUnits="userSpaceOnUse" color-interpolation-filters="sRGB">
<feFlood flood-opacity="0" result="BackgroundImageFix"/>
<feColorMatrix in="SourceAlpha" type="matrix" values="0 0 0 0 0 0 0 0 0 0 0 0 0 0 0 0 0 0 127 0" result="hardAlpha"/>
<feOffset/>
<feGaussianBlur stdDeviation="5"/>
<feComposite in2="hardAlpha" operator="out"/>
<feColorMatrix type="matrix" values="0 0 0 0 1 0 0 0 0 1 0 0 0 0 1 0 0 0 1 0"/>
<feBlend mode="normal" in2="BackgroundImageFix" result="effect1_dropShadow"/>
<feBlend mode="normal" in="SourceGraphic" in2="effect1_dropShadow" result="shape"/>
</filter>
<filter id="filter1_d" x="25.8111" y="7" width="79.0291" height="97.4368" filterUnits="userSpaceOnUse" color-interpolation-filters="sRGB">
<feFlood flood-opacity="0" result="BackgroundImageFix"/>
<feColorMatrix in="SourceAlpha" type="matrix" values="0 0 0 0 0 0 0 0 0 0 0 0 0 0 0 0 0 0 127 0" result="hardAlpha"/>
<feOffset dy="1"/>
<feGaussianBlur stdDeviation="2.5"/>
<feComposite in2="hardAlpha" operator="out"/>
<feColorMatrix type="matrix" values="0 0 0 0 0 0 0 0 0 0 0 0 0 0 0 0 0 0 0.25 0"/>
<feBlend mode="normal" in2="BackgroundImageFix" result="effect1_dropShadow"/>
<feBlend mode="normal" in="SourceGraphic" in2="effect1_dropShadow" result="shape"/>
</filter>
<filter id="filter2_d" x="15.1046" y="17.7065" width="79.0291" height="97.4368" filterUnits="userSpaceOnUse" color-interpolation-filters="sRGB">
<feFlood flood-opacity="0" result="BackgroundImageFix"/>
<feColorMatrix in="SourceAlpha" type="matrix" values="0 0 0 0 0 0 0 0 0 0 0 0 0 0 0 0 0 0 127 0" result="hardAlpha"/>
<feOffset dy="1"/>
<feGaussianBlur stdDeviation="2.5"/>
<feComposite in2="hardAlpha" operator="out"/>
<feColorMatrix type="matrix" values="0 0 0 0 0 0 0 0 0 0 0 0 0 0 0 0 0 0 0.25 0"/>
<feBlend mode="normal" in2="BackgroundImageFix" result="effect1_dropShadow"/>
<feBlend mode="normal" in="SourceGraphic" in2="effect1_dropShadow" result="shape"/>
</filter>
<filter id="filter3_d" x="10.3092" y="31.7353" width="53.6955" height="54.5398" filterUnits="userSpaceOnUse" color-interpolation-filters="sRGB">
<feFlood flood-opacity="0" result="BackgroundImageFix"/>
<feColorMatrix in="SourceAlpha" type="matrix" values="0 0 0 0 0 0 0 0 0 0 0 0 0 0 0 0 0 0 127 0" result="hardAlpha"/>
<feOffset dy="1"/>
<feGaussianBlur stdDeviation="2.5"/>
<feComposite in2="hardAlpha" operator="out"/>
<feColorMatrix type="matrix" values="0 0 0 0 0 0 0 0 0 0 0 0 0 0 0 0 0 0 0.25 0"/>
<feBlend mode="normal" in2="BackgroundImageFix" result="effect1_dropShadow"/>
<feBlend mode="normal" in="SourceGraphic" in2="effect1_dropShadow" result="shape"/>
</filter>
</defs>
</svg>
