<svg width="120" height="120" viewBox="0 0 120 120" fill="none" xmlns="http://www.w3.org/2000/svg">
<g filter="url(#filter0_d)">
<rect x="10" y="10" width="100" height="100" fill="white"/>
</g>
<path d="M46.6666 50.0002V56.6669L43.3333 60.0002H40L36.6666 56.6669V50.0002H46.6666Z" fill="#D3B185"/>
<path d="M108.333 88.3335V95.0002H103.333H16.6667H11.6667V88.3335H18.3333H28.3333H36.6667H46.6666H55H65H108.333Z" fill="#A97C50"/>
<path d="M108.25 33.4169C108.023 36.0334 107.282 38.5793 106.069 40.909C104.857 43.2388 103.197 45.3065 101.184 46.9939C99.1718 48.6813 96.8463 49.9553 94.3408 50.7428C91.8354 51.5304 89.1992 51.8161 86.5832 51.5835C83.3361 51.3141 80.2079 50.237 77.4832 48.4502L68.3333 50.0002L71.1332 41.8502C69.5283 39.1399 68.5865 36.0886 68.3847 32.9452C68.1828 29.8018 68.7266 26.6551 69.9717 23.7617C71.2168 20.8684 73.128 18.3101 75.5495 16.2956C77.9709 14.2811 80.8342 12.8672 83.9058 12.1693C86.9774 11.4714 90.1705 11.5092 93.2247 12.2796C96.279 13.05 99.1079 14.5312 101.481 16.6024C103.854 18.6737 105.704 21.2764 106.881 24.1985C108.057 27.1205 108.526 30.2791 108.25 33.4169V33.4169Z" fill="#C3E5E0"/>
<g filter="url(#filter1_d)">
<path d="M103.333 95.0002H16.6666V108.333H103.333V95.0002Z" fill="#A97C50"/>
</g>
<path d="M54.9999 88.3335H46.6666L43.6499 66.3502L44.9999 65.0002L44.6666 64.0002L49.9999 65.0002L52.2999 59.2336L59.1332 62.3336C60.8841 63.1283 62.3687 64.411 63.4092 66.0279C64.4497 67.6448 65.002 69.5274 64.9999 71.4502V88.3335H54.9999Z" fill="#184B67"/>
<path d="M59.9999 33.3336V40.0002C59.9999 40.4423 59.8243 40.8662 59.5118 41.1788C59.1992 41.4913 58.7753 41.6669 58.3332 41.6669H53.3333V31.6669H58.3332C58.7753 31.6669 59.1992 31.8425 59.5118 32.1551C59.8243 32.4676 59.9999 32.8916 59.9999 33.3336Z" fill="#C3E5E0"/>
<path d="M46.6666 50.0002V53.8669C45.1054 54.613 43.397 55.0002 41.6666 55.0002C39.9363 55.0002 38.2279 54.613 36.6666 53.8669V50.0002H46.6666Z" fill="#B99B73"/>
<path d="M52.3999 33.3336C51.6996 33.332 51.0174 33.1108 50.4494 32.7012C49.8813 32.2916 49.456 31.7142 49.2333 31.0503L48.3333 28.3336L45.2166 30.6669C42.9097 32.3998 40.1019 33.3358 37.2166 33.3336H29.9999V40.0003C29.9999 43.0944 31.2291 46.0619 33.417 48.2498C35.6049 50.4377 38.5724 51.6669 41.6666 51.6669C44.7608 51.6669 47.7282 50.4377 49.9162 48.2498C52.1041 46.0619 53.3332 43.0944 53.3332 40.0003V33.3336H52.3999Z" fill="#D3B185"/>
<path d="M53.3332 31.6669V33.3336H52.3999C51.6996 33.332 51.0174 33.1108 50.4494 32.7012C49.8813 32.2916 49.456 31.7142 49.2333 31.0503L48.3333 28.3336L45.2166 30.6669C42.9097 32.3998 40.1019 33.3358 37.2166 33.3336H29.9999V30.0003C29.9999 26.9061 31.2291 23.9386 33.417 21.7507C35.6049 19.5628 38.5724 18.3336 41.6666 18.3336C44.7608 18.3336 47.7282 19.5628 49.9162 21.7507C52.1041 23.9386 53.3332 26.9061 53.3332 30.0003V31.6669Z" fill="#402D29"/>
<path d="M46.6666 56.6669L52.2999 59.2336L49.9999 65.0002L44.6666 64.0002L43.3333 60.0002L46.6666 56.6669Z" fill="#2B6687"/>
<path d="M43.65 66.3502L46.6666 88.3335H36.6666L39.6833 66.3502L41.6666 68.3335L43.65 66.3502Z" fill="#1A4E41"/>
<path d="M44.6666 64.0002L45 65.0002L43.65 66.3502L41.6666 68.3335L39.6833 66.3502L38.3333 65.0002L38.6666 64.0002L40 60.0002H43.3333L44.6666 64.0002Z" fill="#1A4E41"/>
<path d="M39.9999 60.0002L38.6666 64.0002L33.3333 65.0002L31.0333 59.2336L36.6666 56.6669L39.9999 60.0002Z" fill="#2B6687"/>
<path d="M28.3333 88.3335H18.3333V71.4502C18.3312 69.5274 18.8835 67.6448 19.924 66.0279C20.9645 64.411 22.4491 63.1283 24.2 62.3336L31.0333 59.2336L33.3333 65.0002L38.6666 64.0002L38.3333 65.0002L39.6833 66.3502L36.6666 88.3335H28.3333Z" fill="#184B67"/>
<path d="M30 40.0002V41.6669H25C24.558 41.6669 24.1341 41.4913 23.8215 41.1788C23.509 40.8662 23.3334 40.4423 23.3334 40.0002V33.3336C23.3334 32.8916 23.509 32.4676 23.8215 32.1551C24.1341 31.8425 24.558 31.6669 25 31.6669H30V40.0002Z" fill="#C3E5E0"/>
<path d="M103.333 95.0002H16.6666V98.3335H103.333V95.0002Z" fill="#8B5E3C"/>
<path d="M108.333 86.6665H66.6666V71.4499C66.6629 69.2098 66.0173 67.0176 64.8062 65.1331C63.5952 63.2486 61.8694 61.7506 59.8333 60.8166L48.3333 55.5999V51.5332C49.7631 50.7041 51.0286 49.6195 52.0666 48.3332H54.9999C56.3248 48.3293 57.5943 47.8012 58.5311 46.8644C59.4679 45.9276 59.996 44.6581 59.9999 43.3332V42.8666C60.5037 42.5757 60.9226 42.1581 61.215 41.6552C61.5074 41.1523 61.6631 40.5816 61.6666 39.9999V33.3333C61.664 32.45 61.3119 31.6037 60.6874 30.9792C60.0628 30.3546 59.2165 30.0026 58.3333 29.9999V26.6666C58.3333 22.2463 56.5773 18.0071 53.4517 14.8815C50.3261 11.7559 46.0869 9.99995 41.6666 9.99995C37.2464 9.99995 33.0071 11.7559 29.8815 14.8815C26.7559 18.0071 25 22.2463 25 26.6666V29.9999C24.1167 30.0026 23.2704 30.3546 22.6459 30.9792C22.0213 31.6037 21.6693 32.45 21.6667 33.3333V39.9999C21.6693 40.8832 22.0213 41.7295 22.6459 42.354C23.2704 42.9786 24.1167 43.3306 25 43.3332H28.7666C29.2151 45.0429 29.9965 46.6473 31.0662 48.0544C32.1358 49.4615 33.4726 50.6437 35 51.5332V55.5999L23.5 60.8166C21.4639 61.7506 19.7381 63.2486 18.527 65.1331C17.316 67.0176 16.6704 69.2098 16.6667 71.4499V86.6665H11.6667C11.2246 86.6665 10.8007 86.8421 10.4882 87.1547C10.1756 87.4672 10 87.8912 10 88.3332V94.9999C10 95.4419 10.1756 95.8658 10.4882 96.1784C10.8007 96.4909 11.2246 96.6665 11.6667 96.6665H15V108.333C15 108.775 15.1756 109.199 15.4881 109.512C15.8007 109.824 16.2246 110 16.6667 110H103.333C103.775 110 104.199 109.824 104.512 109.512C104.824 109.199 105 108.775 105 108.333V96.6665H108.333C108.775 96.6665 109.199 96.4909 109.512 96.1784C109.824 95.8658 110 95.4419 110 94.9999V88.3332C110 87.8912 109.824 87.4672 109.512 87.1547C109.199 86.8421 108.775 86.6665 108.333 86.6665ZM51.55 65.6166L53.1999 61.4666L58.4499 63.8499C59.9061 64.5162 61.1403 65.5866 62.006 66.9338C62.8717 68.2811 63.3323 69.8485 63.3333 71.4499V86.6665H56.6666V73.3332H53.3333V86.6665H48.1166L45.4166 66.9499L46.1833 66.1832C46.2317 66.1251 46.2762 66.0638 46.3166 65.9999L49.7 66.6332C49.7989 66.6526 49.8992 66.6637 50 66.6666C50.3338 66.6669 50.66 66.567 50.9363 66.3798C51.2127 66.1925 51.4264 65.9267 51.55 65.6166ZM50.1666 60.0832L48.9666 63.1166L45.9333 62.5499L45.2333 60.4499L47.0333 58.6666L50.1666 60.0832ZM51.6666 31.4666C51.2719 31.279 50.9666 30.9438 50.8166 30.5333L49.9166 27.7999C49.8301 27.5514 49.6864 27.3267 49.4972 27.1439C49.3079 26.9611 49.0783 26.8253 48.827 26.7475C48.5756 26.6697 48.3095 26.6519 48.0501 26.6958C47.7906 26.7396 47.5451 26.8438 47.3333 26.9999L44.2166 29.3333C42.1948 30.8434 39.7401 31.6616 37.2166 31.6666H31.6666V29.9999C31.6666 27.3478 32.7202 24.8042 34.5956 22.9289C36.4709 21.0535 39.0145 19.9999 41.6666 19.9999C44.3188 19.9999 46.8623 21.0535 48.7377 22.9289C50.6131 24.8042 51.6666 27.3478 51.6666 29.9999V31.4666ZM54.9999 44.9999H54.0166C54.2348 44.4565 54.4185 43.8998 54.5666 43.3332H56.6666C56.6666 43.7753 56.491 44.1992 56.1785 44.5118C55.8659 44.8243 55.442 44.9999 54.9999 44.9999ZM58.3333 39.9999H54.9999V33.3333H58.3333V39.9999ZM28.3333 39.9999H25V33.3333H28.3333V39.9999ZM28.3333 29.9999V26.6666C28.3333 23.1304 29.7381 19.739 32.2386 17.2385C34.739 14.738 38.1304 13.3333 41.6666 13.3333C45.2028 13.3333 48.5942 14.738 51.0947 17.2385C53.5952 19.739 54.9999 23.1304 54.9999 26.6666V29.9999C54.9999 26.4637 53.5952 23.0723 51.0947 20.5719C48.5942 18.0714 45.2028 16.6666 41.6666 16.6666C38.1304 16.6666 34.739 18.0714 32.2386 20.5719C29.7381 23.0723 28.3333 26.4637 28.3333 29.9999ZM31.6666 39.9999V34.9999H37.2166C40.4616 34.9961 43.6184 33.9438 46.2166 31.9999L47.4833 31.0499L47.6666 31.5833C47.9561 32.4582 48.4838 33.2352 49.1904 33.8269C49.8969 34.4187 50.7544 34.8018 51.6666 34.9333V39.9999C51.6648 41.7564 51.1991 43.4812 50.3166 44.9999H41.6666V48.3332H47.1833C45.6773 49.3327 43.9285 49.9049 42.123 49.989C40.3176 50.073 38.5231 49.6658 36.9308 48.8106C35.3385 47.9555 34.008 46.6844 33.081 45.1329C32.154 43.5813 31.6652 41.8073 31.6666 39.9999ZM40.9 69.7832C41.1306 69.9249 41.396 69.9998 41.6666 69.9998C41.9373 69.9998 42.2027 69.9249 42.4333 69.7832L44.75 86.6665H38.5833L40.9 69.7832ZM40.2333 64.5499L41.2 61.6666H42.1333L43.1 64.5499L41.6666 65.9832L40.2333 64.5499ZM42.65 58.3332H40.6833L38.3333 55.9832V52.8999C40.518 53.4777 42.8153 53.4777 45 52.8999V55.9832L42.65 58.3332ZM36.3 58.6666L38.1 60.4499L37.4 62.5499L34.3666 63.1166L33.1666 60.0832L36.3 58.6666ZM20 71.4499C20.0009 69.8485 20.4616 68.2811 21.3273 66.9338C22.1929 65.5866 23.4272 64.5162 24.8833 63.8499L30.1333 61.4666L31.7833 65.6166C31.9068 65.9267 32.1206 66.1925 32.3969 66.3798C32.6733 66.567 32.9995 66.6669 33.3333 66.6666C33.4341 66.6637 33.5344 66.6526 33.6333 66.6332L37.0166 65.9999C37.0571 66.0638 37.1016 66.1251 37.15 66.1832L37.9166 66.9499L35.2166 86.6665H30V73.3332H26.6666V86.6665H20V71.4499ZM101.667 106.667H18.3333V96.6665H101.667V106.667ZM106.667 93.3332H13.3333V89.9999H106.667V93.3332Z" fill="black" fill-opacity="0.9"/>
<path d="M67.0532 51.0702C67.2408 51.2902 67.4822 51.458 67.7537 51.5572C68.0253 51.6565 68.3179 51.684 68.6032 51.6369L77.1298 50.2069C79.9627 51.9173 83.1486 52.9582 86.4448 53.2502C87.0904 53.3069 87.7326 53.3352 88.3715 53.3352C92.4927 53.328 96.5264 52.1455 99.9993 49.9264C103.472 47.7074 106.24 44.544 107.978 40.8073C109.717 37.0705 110.353 32.9156 109.813 28.8298C109.273 24.7441 107.579 20.8971 104.93 17.7403C101.48 13.6186 96.6214 10.9269 91.2976 10.1887C85.9738 9.45042 80.5658 10.7183 76.1249 13.7459C71.6841 16.7735 68.5278 21.3443 67.2698 26.5697C66.0117 31.7951 66.7419 37.3016 69.3182 42.0186L66.7515 49.4502C66.6571 49.7233 66.6353 50.0161 66.6881 50.3001C66.741 50.5841 66.8668 50.8495 67.0532 51.0702ZM70.0699 30.0703C70.4934 25.2266 72.8237 20.7495 76.5482 17.6239C80.2726 14.4983 85.0861 12.9802 89.9298 13.4036C92.3362 13.6031 94.6795 14.2759 96.8251 15.3836C98.9708 16.4912 100.876 18.0118 102.433 19.858C103.989 21.7042 105.165 23.8397 105.894 26.1417C106.623 28.4438 106.889 30.8672 106.679 33.2726C106.468 35.6781 105.785 38.0183 104.667 40.1588C103.55 42.2993 102.02 44.198 100.167 45.7458C98.3138 47.2936 96.173 48.46 93.8676 49.1781C91.5622 49.8962 89.1376 50.1518 86.7332 49.9302C83.7549 49.6773 80.8856 48.6907 78.3815 47.0586C78.1113 46.8841 77.7965 46.7915 77.4748 46.7919C77.3827 46.7922 77.2907 46.8 77.1998 46.8152L70.8165 47.8852L72.7132 42.3852C72.7923 42.1564 72.8207 41.913 72.7962 41.6721C72.7717 41.4312 72.6951 41.1985 72.5715 40.9903C70.609 37.7037 69.7336 33.8817 70.0699 30.0686V30.0703Z" fill="black" fill-opacity="0.8"/>
<path d="M48.3333 36.6669H44.9999V40.0003H48.3333V36.6669Z" fill="black" fill-opacity="0.8"/>
<path d="M38.3333 36.6669H34.9999V40.0003H38.3333V36.6669Z" fill="black" fill-opacity="0.8"/>
<path d="M99.8734 76.4391L101.034 86.7766H96.4979L99.8734 76.4391Z" fill="#8D8D8D"/>
<path d="M96.9341 86.4602L99.7216 77.9235L100.68 86.4602H96.9341Z" stroke="black" stroke-opacity="0.8" stroke-width="0.632911"/>
<path d="M70.4431 75.8061H99.9789L98.7131 86.7766H68.4388L70.4431 75.8061Z" fill="#C3E5E0"/>
<path d="M68.9449 86.3546L70.7949 76.2281H99.5055L98.337 86.3546H68.9449Z" stroke="black" stroke-opacity="0.8" stroke-width="0.843882"/>
<g style="mix-blend-mode:multiply">
<path d="M77.7534 83.9158H76.5498V78.148H79.8538V79.1497H77.7534V80.6361H79.7084V81.6378H77.7534V83.9158ZM84.6347 83.9158L84.2146 82.5426H82.1143L81.6942 83.9158H80.3775L82.4132 78.1238H83.9076L85.9514 83.9158H84.6347ZM83.5037 80.1756C83.4768 80.0841 83.4418 79.9683 83.3987 79.8283C83.3556 79.6883 83.3126 79.5455 83.2695 79.4001C83.2264 79.2547 83.1914 79.1282 83.1645 79.0205C83.1375 79.1282 83.0998 79.2628 83.0514 79.4244C83.0083 79.5805 82.9652 79.7313 82.9221 79.8767C82.8844 80.0168 82.8548 80.1164 82.8332 80.1756L82.4213 81.5166H83.9238L83.5037 80.1756ZM91.8396 81.0239C91.8396 81.6701 91.7238 82.2302 91.4923 82.7041C91.2607 83.1727 90.9026 83.5173 90.4179 83.7381L91.8073 85.2891H90.2401L89.1819 83.9966H89.093C88.4683 83.9966 87.9513 83.8728 87.542 83.625C87.1381 83.3773 86.8365 83.0299 86.6373 82.5829C86.4434 82.136 86.3464 81.6136 86.3464 81.0158C86.3464 80.418 86.4434 79.8983 86.6373 79.4567C86.8365 79.0151 87.1381 78.6731 87.542 78.4307C87.9513 78.183 88.471 78.0592 89.1011 78.0592C89.7258 78.0592 90.2401 78.183 90.644 78.4307C91.048 78.6731 91.3469 79.0178 91.5407 79.4648C91.74 79.9064 91.8396 80.4261 91.8396 81.0239ZM87.6309 81.0239C87.6309 81.627 87.7467 82.1036 87.9782 82.4537C88.2098 82.7984 88.5814 82.9707 89.093 82.9707C89.6154 82.9707 89.9897 82.7984 90.2159 82.4537C90.4421 82.1036 90.5552 81.627 90.5552 81.0239C90.5552 80.4153 90.4421 79.9387 90.2159 79.594C89.9897 79.2493 89.6181 79.077 89.1011 79.077C88.5841 79.077 88.2098 79.2493 87.9782 79.594C87.7467 79.9387 87.6309 80.4153 87.6309 81.0239Z" fill="black" fill-opacity="0.84"/>
</g>
<path d="M92.1291 37.6179V38.2814C92.1291 38.4895 91.9588 38.6616 91.749 38.6616H90.6945C90.4901 38.6544 90.3251 38.4895 90.3251 38.2814V37.6179C90.3251 37.3974 90.5045 37.2181 90.725 37.2181H91.6952C91.9086 37.2288 92.0753 37.4028 92.0753 37.6179H92.1291ZM93.3306 31.6913C92.859 31.3111 92.2511 31.0816 91.5912 31.0798H91.2648C90.6372 31.0798 90.0544 31.2824 89.5791 31.6231L89.5881 31.6159C89.1775 31.9316 88.9156 32.4229 88.9138 32.9752C88.9138 33.1151 89.0268 33.2281 89.1667 33.2281H90.2731C90.2749 33.2281 90.2767 33.2281 90.2803 33.2281C90.456 33.2281 90.6013 33.1151 90.6515 32.9555V32.9537C90.6874 32.8228 90.7573 32.7116 90.8523 32.6273C90.9994 32.491 91.2002 32.4068 91.4172 32.4068C91.419 32.4068 91.419 32.4068 91.4208 32.4068H91.5266C91.9695 32.4068 92.3282 32.7654 92.3282 33.2083C92.33 33.2317 92.3318 33.2568 92.3318 33.2819C92.3318 33.307 92.33 33.3321 92.3282 33.3572V33.3554V33.3984C92.3264 33.6495 92.2529 33.8808 92.1256 34.0781L92.1273 34.0745C91.9821 34.2807 91.8064 34.4564 91.6073 34.5981L91.6001 34.6017C91.2451 34.8259 90.9438 35.0966 90.6999 35.4158L90.6928 35.4248C90.5367 35.6382 90.4381 35.9036 90.4291 36.1923V36.1941C90.4273 36.2049 90.4273 36.2156 90.4273 36.2264C90.4273 36.3663 90.5403 36.4792 90.6802 36.4792C90.6892 36.4792 90.6963 36.4792 90.7035 36.4774H91.905C92.0484 36.4685 92.165 36.3645 92.1901 36.2264V36.2246C92.2116 36.056 92.2529 35.9018 92.3103 35.7583L92.3067 35.7709C92.4107 35.5718 92.5613 35.4122 92.746 35.2993L92.7496 35.2975C93.1369 35.0948 93.4615 34.8169 93.7162 34.4816L93.7198 34.4744C93.9636 34.1552 94.1143 33.7535 94.1196 33.3159V33.3141C94.0766 32.6632 93.7861 32.084 93.3414 31.6715L93.3396 31.6697L93.3306 31.6913ZM75.1955 33.4002C74.9157 33.5921 74.731 33.9131 74.731 34.2735V34.2753C74.7275 34.3112 74.7221 34.3524 74.7221 34.3955C74.7221 34.4385 74.7239 34.4798 74.731 34.5228V34.5192C74.8351 34.9406 75.1794 35.2616 75.6097 35.3208H75.6169C75.8446 35.3549 76.1083 35.3728 76.3737 35.3728C76.3737 35.3728 76.3737 35.3728 76.3755 35.3728H76.5763C76.5799 35.3728 76.5871 35.3728 76.5906 35.3728C77.4765 35.3728 78.3157 35.1737 79.0653 34.8205L79.0295 34.8348C79.4347 35.0518 79.9082 35.2526 80.4049 35.4087L80.4641 35.4248H80.5268V35.0141C80.5286 34.5443 80.5717 34.0835 80.6488 33.6369L80.6416 33.6854V33.7374C80.1502 33.5527 79.7378 33.3554 79.3397 33.1348L79.3863 33.1581L78.9434 32.916L78.5435 33.1581C78.1472 33.4002 77.6809 33.576 77.1842 33.6513L77.1627 33.6531C77.3886 33.35 77.5805 33.0021 77.7222 32.6291L77.7329 32.6004L77.8907 32.1252L77.5644 31.7666C76.5207 30.6942 75.8751 29.2291 75.8662 27.6152V27.6134C75.8662 23.9337 79.3666 20.9192 83.6256 20.9192C83.7009 20.9174 83.7923 20.9156 83.882 20.9156C86.8875 20.9156 89.4949 22.6085 90.8075 25.0957L90.829 25.1387C91.0406 25.1387 91.272 25.1387 91.5141 25.1387H91.6611C91.9678 25.1387 92.2726 25.1387 92.599 25.1387C91.1823 21.6724 87.8361 19.273 83.9286 19.273C83.8407 19.273 83.7529 19.2748 83.6668 19.2766H83.6794C78.5022 19.2766 74.2863 23.0191 74.2863 27.617C74.2863 27.6206 74.2863 27.6278 74.2863 27.6331C74.2863 29.4784 74.948 31.1676 76.0473 32.4785L76.0365 32.4659C75.8285 32.8515 75.5344 33.1689 75.1829 33.3984L75.1722 33.4056L75.1955 33.4002ZM100.984 34.8761C100.968 36.7608 100.285 38.4823 99.1605 39.8236L99.1712 39.8111C99.3775 40.1966 99.6662 40.5105 100.018 40.7436L100.027 40.7507C100.305 40.9408 100.489 41.2564 100.491 41.6151C100.495 41.651 100.5 41.6922 100.5 41.7352C100.5 41.7783 100.498 41.8195 100.491 41.8626V41.859C100.387 42.2804 100.043 42.6014 99.6124 42.6606H99.6052C99.3775 42.6946 99.1138 42.7126 98.8467 42.7126H98.6673C98.6602 42.7126 98.6548 42.7126 98.6476 42.7126C97.7348 42.7126 96.8723 42.501 96.103 42.128L96.1371 42.1423C94.7778 42.8399 93.171 43.2487 91.4656 43.2487C91.4549 43.2487 91.4423 43.2487 91.4316 43.2487H91.4334C86.1612 43.2487 81.9453 39.4524 81.9453 34.8151C81.9453 30.1778 86.2365 26.3814 91.4334 26.3814C96.6302 26.3814 100.921 30.167 100.921 34.8151L100.984 34.8761ZM99.3506 34.8761C99.3506 31.1336 95.8286 28.0868 91.4854 28.0868C87.1421 28.0868 83.6202 31.1336 83.6202 34.8761C83.6202 38.6186 87.1421 41.6545 91.4854 41.6545C91.4979 41.6545 91.5105 41.6545 91.5248 41.6545C93.1065 41.6545 94.5913 41.2367 95.8699 40.5033L95.8268 40.5266L96.2267 40.2737L96.6266 40.5266C97.0426 40.7687 97.5286 40.9444 98.0504 41.0197L98.072 41.0215C97.8442 40.7185 97.6523 40.3706 97.5125 39.9976L97.5017 39.9689L97.3331 39.5044L97.6703 39.1458C98.6978 38.0412 99.3344 36.5599 99.3577 34.9335V34.9299L99.3506 34.8761Z" fill="#1A4E41"/>
<defs>
<filter id="filter0_d" x="0" y="0" width="120" height="120" filterUnits="userSpaceOnUse" color-interpolation-filters="sRGB">
<feFlood flood-opacity="0" result="BackgroundImageFix"/>
<feColorMatrix in="SourceAlpha" type="matrix" values="0 0 0 0 0 0 0 0 0 0 0 0 0 0 0 0 0 0 127 0" result="hardAlpha"/>
<feOffset/>
<feGaussianBlur stdDeviation="5"/>
<feComposite in2="hardAlpha" operator="out"/>
<feColorMatrix type="matrix" values="0 0 0 0 1 0 0 0 0 1 0 0 0 0 1 0 0 0 1 0"/>
<feBlend mode="normal" in2="BackgroundImageFix" result="effect1_dropShadow"/>
<feBlend mode="normal" in="SourceGraphic" in2="effect1_dropShadow" result="shape"/>
</filter>
<filter id="filter1_d" x="11.6666" y="91.0002" width="96.6665" height="23.3333" filterUnits="userSpaceOnUse" color-interpolation-filters="sRGB">
<feFlood flood-opacity="0" result="BackgroundImageFix"/>
<feColorMatrix in="SourceAlpha" type="matrix" values="0 0 0 0 0 0 0 0 0 0 0 0 0 0 0 0 0 0 127 0" result="hardAlpha"/>
<feOffset dy="1"/>
<feGaussianBlur stdDeviation="2.5"/>
<feComposite in2="hardAlpha" operator="out"/>
<feColorMatrix type="matrix" values="0 0 0 0 0 0 0 0 0 0 0 0 0 0 0 0 0 0 0.25 0"/>
<feBlend mode="normal" in2="BackgroundImageFix" result="effect1_dropShadow"/>
<feBlend mode="normal" in="SourceGraphic" in2="effect1_dropShadow" result="shape"/>
</filter>
</defs>
</svg>
