<svg width="99" height="99" viewBox="0 0 99 99" fill="none" xmlns="http://www.w3.org/2000/svg">
<path d="M36.2939 39.6101V46.209L32.9945 49.5085H29.695L26.3956 46.209V39.6101H36.2939Z" fill="#D3B185"/>
<path d="M97.3337 77.5538V84.1527H92.3845H6.59889H1.64972V77.5538H8.24861H18.147H26.3956H36.2939H44.5425H54.4409H97.3337Z" fill="#A97C50"/>
<path d="M97.2512 23.1954C97.0262 25.7852 96.2927 28.3053 95.0927 30.6113C93.8926 32.9174 92.2495 34.9641 90.2575 36.6344C88.2654 38.3046 85.9635 39.5656 83.4835 40.3451C81.0035 41.1247 78.3942 41.4075 75.8048 41.1773C72.5907 40.9106 69.4943 39.8444 66.7973 38.0759L57.7403 39.6101L60.5118 31.543C58.9232 28.8601 57.991 25.8399 57.7912 22.7284C57.5914 19.617 58.1296 16.5023 59.3621 13.6383C60.5945 10.7744 62.4863 8.24214 64.8831 6.24808C67.28 4.25402 70.1141 2.85454 73.1545 2.16373C76.1949 1.47292 79.3555 1.51032 82.3787 2.27288C85.4019 3.03544 88.2022 4.50159 90.5512 6.55181C92.9002 8.60203 94.7315 11.1783 95.8958 14.0706C97.0601 16.963 97.5245 20.0895 97.2512 23.1954Z" fill="#C3E5E0"/>
<path d="M92.3845 84.1526H6.59888V97.3504H92.3845V84.1526Z" fill="#A97C50"/>
<path d="M44.5425 77.5538H36.2939L33.3079 55.7939L34.6441 54.4576L34.3142 53.4678L39.5933 54.4576L41.8699 48.7496L48.6338 51.8181C50.3668 52.6048 51.8364 53.8744 52.8663 55.4749C53.8962 57.0754 54.4429 58.9388 54.4408 60.8421V77.5538H44.5425Z" fill="#184B67"/>
<path d="M49.4917 23.1129V29.7118C49.4917 30.1493 49.3178 30.5689 49.0085 30.8783C48.6991 31.1877 48.2795 31.3615 47.8419 31.3615H42.8928V21.4632H47.8419C48.2795 21.4632 48.6991 21.637 49.0085 21.9464C49.3178 22.2557 49.4917 22.6754 49.4917 23.1129Z" fill="#C3E5E0"/>
<path d="M36.2939 39.6101V43.4375C34.7485 44.176 33.0575 44.5592 31.3447 44.5592C29.632 44.5592 27.9409 44.176 26.3956 43.4375V39.6101H36.2939Z" fill="#B99B73"/>
<path d="M41.9689 23.1129C41.2757 23.1113 40.6005 22.8924 40.0382 22.4869C39.4759 22.0815 39.0549 21.51 38.8344 20.8528L37.9436 18.1637L34.8586 20.4733C32.5751 22.1886 29.7959 23.115 26.9399 23.1129H19.7966V29.7118C19.7966 32.7745 21.0133 35.7118 23.179 37.8775C25.3447 40.0432 28.282 41.2599 31.3447 41.2599C34.4074 41.2599 37.3447 40.0432 39.5104 37.8775C41.6761 35.7118 42.8928 32.7745 42.8928 29.7118V23.1129H41.9689Z" fill="#D3B185"/>
<path d="M42.8928 21.4632V23.1129H41.9689C41.2757 23.1113 40.6005 22.8924 40.0382 22.4869C39.4759 22.0815 39.0549 21.51 38.8344 20.8528L37.9436 18.1637L34.8586 20.4733C32.5751 22.1886 29.7959 23.1151 26.9399 23.1129H19.7966V19.8135C19.7966 16.7507 21.0133 13.8134 23.179 11.6477C25.3447 9.48206 28.282 8.2654 31.3447 8.2654C34.4074 8.2654 37.3447 9.48206 39.5104 11.6477C41.6761 13.8134 42.8928 16.7507 42.8928 19.8135V21.4632Z" fill="#402D29"/>
<path d="M36.2939 46.209L41.87 48.7496L39.5933 54.4576L34.3142 53.4678L32.9944 49.5085L36.2939 46.209Z" fill="#2B6687"/>
<path d="M33.3079 55.7939L36.2939 77.5538H26.3956L29.3816 55.7939L31.3447 57.7571L33.3079 55.7939Z" fill="#1A4E41"/>
<path d="M34.3142 53.4678L34.6442 54.4576L33.3079 55.7939L31.3447 57.7571L29.3816 55.7939L28.0453 54.4576L28.3752 53.4678L29.695 49.5085H32.9945L34.3142 53.4678Z" fill="#1A4E41"/>
<path d="M29.695 49.5085L28.3752 53.4678L23.0961 54.4576L20.8195 48.7496L26.3955 46.209L29.695 49.5085Z" fill="#2B6687"/>
<path d="M18.1469 77.5538H8.2486V60.8421C8.24653 58.9388 8.79321 57.0754 9.82314 55.4749C10.8531 53.8744 12.3226 52.6048 14.0556 51.8181L20.8195 48.7496L23.0961 54.4576L28.3752 53.4678L28.0453 54.4576L29.3816 55.7939L26.3956 77.5538H18.1469Z" fill="#184B67"/>
<path d="M19.7967 29.7118V31.3615H14.8475C14.41 31.3615 13.9904 31.1877 13.681 30.8783C13.3716 30.5689 13.1978 30.1493 13.1978 29.7118V23.1129C13.1978 22.6754 13.3716 22.2557 13.681 21.9464C13.9904 21.637 14.41 21.4632 14.8475 21.4632H19.7967V29.7118Z" fill="#C3E5E0"/>
<path d="M92.3845 84.1526H6.59888V87.4521H92.3845V84.1526Z" fill="#8B5E3C"/>
<path d="M97.3337 75.9039H56.0906V60.8419C56.0869 58.6246 55.4479 56.4547 54.2491 54.5893C53.0504 52.724 51.3421 51.2412 49.3267 50.3167L37.9436 45.153V41.1277C39.3589 40.307 40.6115 39.2334 41.639 37.9603H44.5425C45.8539 37.9563 47.1105 37.4336 48.0378 36.5063C48.9651 35.579 49.4878 34.3225 49.4917 33.0111V32.5492C49.9904 32.2613 50.405 31.8479 50.6944 31.3501C50.9838 30.8523 51.1379 30.2874 51.1414 29.7116V23.1127C51.1388 22.2385 50.7903 21.4008 50.1721 20.7826C49.5539 20.1644 48.7162 19.8159 47.842 19.8133V16.5138C47.842 12.1385 46.1039 7.94238 43.01 4.84854C39.9162 1.75471 35.7201 0.0166168 31.3447 0.0166168C26.9694 0.0166168 22.7733 1.75471 19.6794 4.84854C16.5856 7.94238 14.8475 12.1385 14.8475 16.5138V19.8133C13.9732 19.8159 13.1355 20.1644 12.5173 20.7826C11.8991 21.4008 11.5507 22.2385 11.5481 23.1127V29.7116C11.5507 30.5859 11.8991 31.4236 12.5173 32.0418C13.1355 32.66 13.9732 33.0085 14.8475 33.0111H18.5759C19.0198 34.7034 19.7933 36.2914 20.852 37.6843C21.9108 39.0771 23.234 40.2472 24.7458 41.1277V45.153L13.3628 50.3167C11.3473 51.2412 9.6391 52.724 8.44035 54.5893C7.24159 56.4547 6.60255 58.6246 6.59889 60.8419V75.9039H1.64972C1.21219 75.9039 0.792576 76.0777 0.483193 76.3871C0.17381 76.6965 0 77.1161 0 77.5536V84.1525C0 84.59 0.17381 85.0097 0.483193 85.319C0.792576 85.6284 1.21219 85.8022 1.64972 85.8022H4.94917V97.3503C4.94917 97.7878 5.12298 98.2074 5.43236 98.5168C5.74175 98.8262 6.16136 99 6.59889 99H92.3845C92.822 99 93.2417 98.8262 93.551 98.5168C93.8604 98.2074 94.0342 97.7878 94.0342 97.3503V85.8022H97.3337C97.7712 85.8022 98.1908 85.6284 98.5002 85.319C98.8096 85.0097 98.9834 84.59 98.9834 84.1525V77.5536C98.9834 77.1161 98.8096 76.6965 98.5002 76.3871C98.1908 76.0777 97.7712 75.9039 97.3337 75.9039ZM41.1276 55.0679L42.7608 50.9601L47.9575 53.3192C49.3988 53.9787 50.6205 55.0382 51.4774 56.3718C52.3342 57.7053 52.7902 59.2568 52.7911 60.8419V75.9039H46.1922V62.7061H42.8928V75.9039H37.7292L35.0566 56.3877L35.8155 55.6288C35.8634 55.5712 35.9075 55.5106 35.9475 55.4473L39.2964 56.0742C39.3943 56.0934 39.4936 56.1044 39.5934 56.1072C39.9238 56.1075 40.2467 56.0086 40.5202 55.8233C40.7937 55.638 41.0053 55.3748 41.1276 55.0679ZM39.7583 49.5908L38.5705 52.5933L35.568 52.0324L34.8751 49.9537L36.6568 48.1885L39.7583 49.5908ZM41.2431 21.2651C40.8523 21.0793 40.5502 20.7476 40.4017 20.3412L39.5109 17.6357C39.4252 17.3897 39.283 17.1673 39.0957 16.9863C38.9083 16.8054 38.6811 16.671 38.4323 16.5939C38.1835 16.5169 37.9201 16.4993 37.6633 16.5427C37.4065 16.5861 37.1635 16.6893 36.9538 16.8438L33.8688 19.1534C31.8676 20.6481 29.4378 21.4581 26.94 21.463H21.4464V19.8133C21.4464 17.1881 22.4893 14.6704 24.3456 12.8141C26.2019 10.9578 28.7195 9.91496 31.3447 9.91496C33.9699 9.91496 36.4876 10.9578 38.3439 12.8141C40.2002 14.6704 41.2431 17.1881 41.2431 19.8133V21.2651ZM44.5425 34.6608H43.5692C43.7851 34.1229 43.967 33.5719 44.1136 33.0111H46.1922C46.1922 33.4486 46.0184 33.8682 45.7091 34.1776C45.3997 34.487 44.9801 34.6608 44.5425 34.6608ZM47.842 29.7116H44.5425V23.1127H47.842V29.7116ZM18.147 29.7116H14.8475V23.1127H18.147V29.7116ZM18.147 19.8133V16.5138C18.147 13.0136 19.5374 9.65667 22.0125 7.18161C24.4876 4.70654 27.8445 3.31606 31.3447 3.31606C34.845 3.31606 38.2019 4.70654 40.677 7.18161C43.1521 9.65667 44.5425 13.0136 44.5425 16.5138V19.8133C44.5425 16.313 43.1521 12.9561 40.677 10.4811C38.2019 8.00599 34.845 6.61551 31.3447 6.61551C27.8445 6.61551 24.4876 8.00599 22.0125 10.4811C19.5374 12.9561 18.147 16.313 18.147 19.8133ZM21.4464 29.7116V24.7625H26.94C30.1519 24.7587 33.2767 23.7171 35.8485 21.793L37.1023 20.8526L37.2837 21.3805C37.5703 22.2466 38.0926 23.0157 38.792 23.6014C39.4914 24.1871 40.3402 24.5663 41.2431 24.6965V29.7116C41.2412 31.4502 40.7803 33.1575 39.9068 34.6608H31.3447V37.9603H36.8053C35.3147 38.9495 33.5836 39.5159 31.7965 39.5991C30.0094 39.6824 28.2332 39.2793 26.6571 38.4328C25.081 37.5863 23.764 36.3282 22.8464 34.7924C21.9288 33.2566 21.4449 31.5007 21.4464 29.7116ZM30.5859 59.1922C30.8142 59.3324 31.0768 59.4066 31.3447 59.4066C31.6126 59.4066 31.8753 59.3324 32.1036 59.1922L34.3967 75.9039H28.2928L30.5859 59.1922ZM29.926 54.0121L30.8828 51.158H31.8067L32.7635 54.0121L31.3447 55.4308L29.926 54.0121ZM32.3181 47.8586H30.3714L28.0453 45.5325V42.4805C30.2077 43.0524 32.4817 43.0524 34.6442 42.4805V45.5325L32.3181 47.8586ZM26.0326 48.1885L27.8143 49.9537L27.1214 52.0324L24.119 52.5933L22.9312 49.5908L26.0326 48.1885ZM9.89834 60.8419C9.89927 59.2568 10.3553 57.7053 11.2121 56.3718C12.069 55.0382 13.2907 53.9787 14.732 53.3192L19.9287 50.9601L21.5619 55.0679C21.6841 55.3748 21.8957 55.638 22.1693 55.8233C22.4428 56.0086 22.7657 56.1075 23.0961 56.1072C23.1958 56.1044 23.2952 56.0934 23.3931 56.0742L26.742 55.4473C26.782 55.5106 26.8261 55.5712 26.874 55.6288L27.6329 56.3877L24.9603 75.9039H19.7967V62.7061H16.4972V75.9039H9.89834V60.8419ZM90.7348 95.7006H8.24862V85.8022H90.7348V95.7006ZM95.6839 82.5028H3.29945V79.2033H95.6839V82.5028Z" fill="black" fill-opacity="0.8"/>
<path d="M56.4733 40.6693C56.659 40.887 56.8979 41.053 57.1667 41.1513C57.4355 41.2496 57.7251 41.2768 58.0075 41.2302L66.4475 39.8147C69.2515 41.5077 72.4051 42.538 75.6678 42.8271C76.3068 42.8832 76.9425 42.9112 77.5749 42.9112C81.6542 42.904 85.6469 41.7335 89.0845 39.5371C92.522 37.3406 95.2618 34.2093 96.9824 30.5106C98.703 26.8119 99.3331 22.6991 98.7986 18.6549C98.2641 14.6107 96.5873 10.8029 93.9649 7.67809C90.5505 3.59827 85.7409 0.93398 80.4712 0.203239C75.2016 -0.527502 69.8485 0.727532 65.4528 3.72432C61.0571 6.72111 57.9329 11.2455 56.6876 16.4178C55.4424 21.59 56.1651 27.0406 58.7152 31.7096L56.1747 39.0657C56.0812 39.336 56.0596 39.6259 56.1119 39.907C56.1643 40.1881 56.2888 40.4508 56.4733 40.6693ZM59.4593 19.8827C59.8785 15.0883 62.1851 10.6567 65.8717 7.56291C69.5583 4.4691 74.3229 2.96645 79.1174 3.38551C81.4993 3.58295 83.8188 4.24897 85.9426 5.34535C88.0664 6.44172 89.9527 7.94684 91.4932 9.77428C93.0337 11.6017 94.198 13.7155 94.9193 15.9941C95.6406 18.2728 95.9046 20.6715 95.6962 23.0526C95.4878 25.4336 94.8112 27.75 93.705 29.8687C92.5989 31.9875 91.0851 33.8668 89.2506 35.3989C87.4161 36.931 85.2971 38.0856 83.0151 38.7964C80.7331 39.5072 78.3332 39.7602 75.9532 39.5408C73.0052 39.2905 70.165 38.3139 67.6864 36.6984C67.419 36.5256 67.1073 36.434 66.789 36.4344C66.6978 36.4347 66.6067 36.4425 66.5168 36.4575L60.1983 37.5166L62.0757 32.0726C62.1541 31.846 62.1821 31.6051 62.1579 31.3667C62.1337 31.1282 62.0578 30.8979 61.9355 30.6917C59.9929 27.4386 59.1264 23.6554 59.4593 19.8811V19.8827Z" fill="black" fill-opacity="0.8"/>
<path d="M37.9436 26.4124H34.6442V29.7118H37.9436V26.4124Z" fill="black" fill-opacity="0.8"/>
<path d="M28.0452 26.4124H24.7458V29.7118H28.0452V26.4124Z" fill="black" fill-opacity="0.8"/>
<path d="M88.9599 65.7802L90.1084 76.0127H85.6187L88.9599 65.7802Z" fill="#8D8D8D"/>
<path d="M86.0504 75.6994L88.8096 67.2496L89.758 75.6994H86.0504Z" stroke="black" stroke-opacity="0.8" stroke-width="0.626478"/>
<path d="M59.8286 65.1537H89.0643L87.8113 76.0127H57.8448L59.8286 65.1537Z" fill="#C3E5E0"/>
<path d="M58.3457 75.595L60.1769 65.5714H88.5957L87.4391 75.595H58.3457Z" stroke="black" stroke-opacity="0.8" stroke-width="0.835304"/>
<g style="mix-blend-mode:multiply">
<path d="M67.0648 73.242H65.8733V67.5328H69.1437V68.5243H67.0648V69.9956H68.9998V70.9871H67.0648V73.242ZM73.876 73.242L73.4602 71.8826H71.3813L70.9655 73.242H69.6621L71.6771 67.5088H73.1564L75.1794 73.242H73.876ZM72.7566 69.5398C72.7299 69.4492 72.6953 69.3346 72.6526 69.196C72.61 69.0574 72.5674 68.9161 72.5247 68.7722C72.4821 68.6282 72.4474 68.503 72.4208 68.3963C72.3941 68.503 72.3568 68.6362 72.3088 68.7961C72.2662 68.9507 72.2235 69.1 72.1809 69.2439C72.1436 69.3825 72.1142 69.4811 72.0929 69.5398L71.6851 70.8671H73.1724L72.7566 69.5398ZM81.0077 70.3794C81.0077 71.0191 80.8931 71.5735 80.6639 72.0426C80.4347 72.5063 80.0802 72.8475 79.6004 73.0661L80.9758 74.6013H79.4245L78.377 73.3219H78.2891C77.6707 73.3219 77.159 73.1993 76.7538 72.9541C76.354 72.7089 76.0555 72.3651 75.8583 71.9226C75.6664 71.4802 75.5704 70.9631 75.5704 70.3714C75.5704 69.7797 75.6664 69.2653 75.8583 68.8281C76.0555 68.391 76.354 68.0525 76.7538 67.8126C77.159 67.5674 77.6734 67.4448 78.2971 67.4448C78.9154 67.4448 79.4245 67.5674 79.8243 67.8126C80.2241 68.0525 80.52 68.3937 80.7119 68.8361C80.9091 69.2732 81.0077 69.7877 81.0077 70.3794ZM76.8418 70.3794C76.8418 70.9764 76.9564 71.4482 77.1856 71.7947C77.4148 72.1358 77.7827 72.3064 78.2891 72.3064C78.8062 72.3064 79.1766 72.1358 79.4005 71.7947C79.6244 71.4482 79.7364 70.9764 79.7364 70.3794C79.7364 69.777 79.6244 69.3052 79.4005 68.9641C79.1766 68.6229 78.8088 68.4523 78.2971 68.4523C77.7853 68.4523 77.4148 68.6229 77.1856 68.9641C76.9564 69.3052 76.8418 69.777 76.8418 70.3794Z" fill="black" fill-opacity="0.84"/>
</g>
<path d="M81.2943 27.3537V28.0105C81.2943 28.2164 81.1257 28.3868 80.918 28.3868H79.8743C79.672 28.3797 79.5087 28.2164 79.5087 28.0105V27.3537C79.5087 27.1354 79.6862 26.9579 79.9045 26.9579H80.8648C81.076 26.9685 81.2411 27.1407 81.2411 27.3537H81.2943ZM82.4836 21.4873C82.0168 21.1109 81.415 20.8837 80.7618 20.882H80.4388C79.8175 20.882 79.2406 21.0826 78.7703 21.4198L78.7791 21.4127C78.3726 21.7251 78.1135 22.2115 78.1117 22.7582C78.1117 22.8966 78.2235 23.0084 78.362 23.0084H79.4572C79.459 23.0084 79.4607 23.0084 79.4643 23.0084C79.6382 23.0084 79.782 22.8966 79.8317 22.7386V22.7369C79.8672 22.6073 79.9364 22.4972 80.0305 22.4138C80.1761 22.2789 80.3749 22.1955 80.5896 22.1955C80.5914 22.1955 80.5914 22.1955 80.5932 22.1955H80.6979C81.1364 22.1955 81.4914 22.5505 81.4914 22.9889C81.4931 23.012 81.4949 23.0368 81.4949 23.0617C81.4949 23.0865 81.4931 23.1114 81.4914 23.1362V23.1345V23.1771C81.4896 23.4256 81.4168 23.6546 81.2908 23.8498L81.2926 23.8463C81.1488 24.0504 80.9748 24.2243 80.7778 24.3646L80.7707 24.3681C80.4192 24.59 80.121 24.858 79.8796 25.174L79.8725 25.1828C79.7181 25.3941 79.6205 25.6568 79.6116 25.9426V25.9443C79.6098 25.955 79.6098 25.9656 79.6098 25.9763C79.6098 26.1147 79.7217 26.2266 79.8601 26.2266C79.869 26.2266 79.8761 26.2266 79.8832 26.2248H81.0725C81.2145 26.2159 81.3298 26.113 81.3547 25.9763V25.9745C81.376 25.8077 81.4168 25.655 81.4736 25.513L81.4701 25.5254C81.573 25.3284 81.7221 25.1704 81.9049 25.0586L81.9085 25.0568C82.2919 24.8562 82.6132 24.5811 82.8652 24.2492L82.8688 24.2421C83.1102 23.9261 83.2593 23.5285 83.2646 23.0954V23.0936C83.222 22.4493 82.9344 21.876 82.4942 21.4677L82.4925 21.466L82.4836 21.4873ZM64.5328 23.1788C64.2559 23.3688 64.0731 23.6865 64.0731 24.0433V24.0451C64.0695 24.0806 64.0642 24.1214 64.0642 24.164C64.0642 24.2066 64.066 24.2474 64.0731 24.29V24.2865C64.176 24.7036 64.5168 25.0213 64.9428 25.0799H64.9499C65.1754 25.1136 65.4363 25.1314 65.699 25.1314C65.699 25.1314 65.699 25.1314 65.7008 25.1314H65.8996C65.9031 25.1314 65.9102 25.1314 65.9138 25.1314C66.7906 25.1314 67.6213 24.9343 68.3633 24.5847L68.3278 24.5989C68.729 24.8136 69.1976 25.0124 69.6892 25.1669L69.7478 25.1828H69.8099V24.7764C69.8117 24.3113 69.8543 23.8551 69.9306 23.4132L69.9235 23.4611V23.5126C69.4372 23.3297 69.0289 23.1345 68.6349 22.9161L68.681 22.9392L68.2426 22.6996L67.8468 22.9392C67.4545 23.1789 66.993 23.3528 66.5013 23.4274L66.48 23.4291C66.7037 23.1291 66.8936 22.7848 67.0338 22.4156L67.0445 22.3872L67.2007 21.9168L66.8776 21.5618C65.8445 20.5003 65.2055 19.0502 65.1967 17.4526V17.4509C65.1967 13.8085 68.6615 10.8247 72.8772 10.8247C72.9517 10.8229 73.0423 10.8212 73.131 10.8212C76.1059 10.8212 78.6868 12.4968 79.9861 14.9587L80.0074 15.0013C80.2169 15.0013 80.4459 15.0013 80.6855 15.0013H80.831C81.1346 15.0013 81.4363 15.0013 81.7594 15.0013C80.3571 11.5702 77.0449 9.19524 73.1772 9.19524C73.0902 9.19524 73.0032 9.19701 72.918 9.19879H72.9304C67.8059 9.19879 63.6329 12.9033 63.6329 17.4544C63.6329 17.458 63.6329 17.4651 63.6329 17.4704C63.6329 19.2969 64.2879 20.9689 65.3759 22.2665L65.3653 22.2541C65.1594 22.6357 64.8683 22.9499 64.5204 23.1771L64.5097 23.1842L64.5328 23.1788ZM90.0594 24.6397C90.0434 26.5052 89.3671 28.2093 88.2542 29.537L88.2648 29.5245C88.469 29.9062 88.7547 30.2168 89.1026 30.4476L89.1115 30.4547C89.3867 30.6428 89.5695 30.9552 89.5713 31.3102C89.5748 31.3457 89.5801 31.3865 89.5801 31.4291C89.5801 31.4717 89.5784 31.5126 89.5713 31.5552V31.5516C89.4683 31.9688 89.1275 32.2865 88.7015 32.3451H88.6944C88.469 32.3788 88.208 32.3965 87.9436 32.3965H87.7661C87.759 32.3965 87.7536 32.3965 87.7465 32.3965C86.843 32.3965 85.9893 32.1871 85.2278 31.8179L85.2615 31.8321C83.916 32.5226 82.3256 32.9273 80.6376 32.9273C80.6269 32.9273 80.6145 32.9273 80.6038 32.9273H80.6056C75.3871 32.9273 71.214 29.1695 71.214 24.5793C71.214 19.9891 75.4616 16.2314 80.6056 16.2314C85.7496 16.2314 89.9973 19.9785 89.9973 24.5793L90.0594 24.6397ZM88.4423 24.6397C88.4423 20.9352 84.9562 17.9195 80.6571 17.9195C76.358 17.9195 72.8719 20.9352 72.8719 24.6397C72.8719 28.3442 76.358 31.3493 80.6571 31.3493C80.6695 31.3493 80.6819 31.3493 80.6961 31.3493C82.2617 31.3493 83.7314 30.9357 84.997 30.2097L84.9544 30.2328L85.3503 29.9825L85.7461 30.2328C86.1579 30.4724 86.6389 30.6464 87.1554 30.7209L87.1767 30.7227C86.9513 30.4227 86.7614 30.0784 86.6229 29.7091L86.6123 29.6807L86.4454 29.221L86.7791 28.866C87.7962 27.7726 88.4264 26.3064 88.4494 24.6965V24.6929L88.4423 24.6397Z" fill="#1A4E41"/>
</svg>
