<svg width="110" height="110" viewBox="0 0 110 110" fill="none" xmlns="http://www.w3.org/2000/svg">
<g clip-path="url(#clip0)">
<path d="M9.57769 16.8468L83.7388 16.8468L9.57769 91.0091L9.57769 16.8468Z" fill="#5AA6ED"/>
<path d="M51.5315 67.2635L84.482 100.338H18.4828L51.5315 67.2635Z" fill="#FFDB45"/>
<path d="M60.5743 58.4685L93.369 25.8896L93.369 91.1843L60.5743 58.4685Z" fill="#60BE21"/>
<path d="M101.081 23.6599C101.081 30.6464 97.0413 38.3328 90.1802 40.1351C89.1806 40.3977 87.0299 44.223 85.9685 44.223C85.9685 45.3378 82.2523 41.7775 83.1194 40.8784C76.2583 39.0761 70.8559 30.6464 70.8559 23.6599C70.8559 15.6555 77.622 9.16667 85.9685 9.16667C94.3149 9.16667 101.081 15.6555 101.081 23.6599Z" fill="#EF6657"/>
<path d="M48.3108 56.1149L56.982 47.3198L72.5901 31.464L78.227 35.9678C78.6972 36.3436 78.3522 37.0982 77.7604 36.9884V36.9884C77.3286 36.9082 77.1402 36.395 77.4175 36.0544L82.8716 29.3581L81.4431 25.8061C80.6097 23.7341 81.265 21.3606 83.0435 20.0096L83.5114 19.6542C85.5198 18.1286 88.397 18.6003 89.8132 20.6873V20.6873C91.0246 22.4724 90.7628 24.8725 89.1952 26.3546L86.8398 28.5816C85.7782 29.5853 84.2333 29.8876 82.8716 29.3581V29.3581L61.914 54.3583C59.9641 56.6843 60.1147 60.1147 62.2609 62.2609L94.3919 94.3919V94.3919C95.1067 95.5832 95.3275 97.0067 95.0074 98.3586L94.3919 100.957H87.2072L71.4752 85.1013L63.5473 76.554L56.1568 69.7501C55.8819 69.497 55.6356 69.2146 55.4222 68.9079V68.9079C53.5528 66.2207 49.6757 65.9561 47.4586 68.3643L44.5946 71.4752L14.9887 100.957H11.5203V100.957C9.81814 100.957 8.61982 99.2847 9.16719 97.673L10.2815 94.3919L37.3086 67.4042L48.3108 56.1149Z" fill="white"/>
<path d="M85.9375 6.86829C80.4525 6.8691 75.4131 9.49762 72.2144 13.7433H8.59375C8.13792 13.7433 7.70078 13.9244 7.37846 14.2467C7.05614 14.5691 6.87505 15.0062 6.875 15.462V94.1083V101.4C6.87505 101.855 7.05614 102.293 7.37846 102.615C7.70078 102.937 8.13792 103.118 8.59375 103.118H15.885H86.9983C87.1784 103.147 87.362 103.147 87.5421 103.118H94.5313C94.9871 103.118 95.4242 102.937 95.7466 102.615C96.0689 102.293 96.25 101.855 96.25 101.4V94.4373C96.2857 94.2374 96.2857 94.0329 96.25 93.833V37.9132L98.0829 36.087C102.998 31.1979 104.475 23.8223 101.816 17.4292C99.1539 11.0379 92.8811 6.86622 85.9375 6.86829ZM85.9375 10.3058C91.5072 10.3044 96.5108 13.6389 98.6401 18.7518C100.768 23.8658 99.5953 29.7346 95.6592 33.6499L85.9375 43.3313L80.0159 37.4365C79.99 37.4065 79.9632 37.3774 79.9353 37.3492L76.2158 33.6499C75.1447 32.5775 74.2667 31.3366 73.6041 29.9774C71.9037 26.5173 71.6978 22.4431 73.2349 18.7518C75.3634 13.641 80.37 10.3068 85.9375 10.3058ZM85.9375 17.1405C84.1714 17.1405 82.4001 17.8044 81.0632 19.1345C78.3894 21.7945 78.3961 26.1624 81.07 28.8226C83.7438 31.4826 88.1312 31.4874 90.8051 28.8226C93.4789 26.1624 93.4789 21.7945 90.8051 19.1345C89.4682 17.8044 87.7036 17.1405 85.9375 17.1405ZM10.3125 17.1808H70.1868C70.1493 17.2668 70.0954 17.3423 70.0592 17.4292C68.3139 21.6206 68.3768 26.2201 69.9921 30.2795L10.3125 89.9591V17.1808ZM85.9308 20.5512C86.8077 20.5512 87.6895 20.8902 88.3679 21.5649C89.7206 22.9151 89.7233 25.0504 88.3679 26.3989C87.0111 27.7488 84.8639 27.744 83.5071 26.3989C82.1503 25.049 82.1436 22.9148 83.5004 21.5649C84.1788 20.8902 85.0539 20.5512 85.9308 20.5512ZM27.9163 20.625C27.1767 20.6027 26.4392 20.6428 25.7074 20.7391C22.7801 21.1245 19.9757 22.4497 17.7783 24.6466C13.3835 29.0415 12.4888 35.8609 15.5963 41.2433C18.7039 46.6257 25.0552 49.2567 31.0584 47.6483C37.0615 46.0396 41.2499 40.5833 41.25 34.3683C41.25 33.9125 41.0689 33.4753 40.7465 33.153C40.4242 32.8307 39.9871 32.6496 39.5313 32.6495H27.5C27.2722 32.6463 27.0461 32.6884 26.8348 32.7733C26.6234 32.8583 26.4311 32.9843 26.2689 33.1443C26.1067 33.3042 25.9779 33.4948 25.89 33.7049C25.8021 33.915 25.7568 34.1405 25.7568 34.3683C25.7568 34.5961 25.8021 34.8216 25.89 35.0317C25.9779 35.2418 26.1067 35.4324 26.2689 35.5923C26.4311 35.7522 26.6234 35.8783 26.8348 35.9632C27.0461 36.0482 27.2722 36.0903 27.5 36.087H37.2284C36.5179 39.9446 34.0707 43.287 30.1721 44.3317C25.6556 45.542 20.9085 43.5739 18.5706 39.5245C16.2326 35.4752 16.9025 30.3832 20.2087 27.077C23.5151 23.7708 28.6069 23.101 32.6563 25.4388C32.8519 25.5625 33.0705 25.6454 33.299 25.6825C33.5275 25.7196 33.7611 25.7102 33.9858 25.6548C34.2106 25.5994 34.4218 25.4992 34.6069 25.3602C34.792 25.2212 34.9471 25.0462 35.0629 24.8458C35.1787 24.6454 35.2528 24.4237 35.2809 24.1939C35.3089 23.9642 35.2902 23.7311 35.226 23.5087C35.1617 23.2864 35.0533 23.0793 34.907 22.8998C34.7608 22.7204 34.5798 22.5724 34.375 22.4646C32.3566 21.2993 30.1349 20.692 27.9163 20.625ZM71.6773 33.4552C72.2966 34.3806 72.9763 35.281 73.7854 36.087L76.2763 38.5712L57.6386 57.2156L50.3473 64.5068L15.1733 99.6741H10.3125V94.8132L71.6773 33.4552ZM78.7201 40.9949L84.7223 46.9769C85.0444 47.2971 85.48 47.4768 85.9342 47.4768C86.3883 47.4768 86.8239 47.2971 87.146 46.9769L92.8125 41.3373V89.9591L61.2842 58.4308L78.7201 40.9949ZM58.8538 60.8612L92.8125 94.82V99.6808H87.9517L53.9929 65.7221L58.8538 60.8612ZM51.5625 68.1525L83.0908 99.6808H20.0342L51.5625 68.1525Z" fill="black"/>
</g>
<defs>
<clipPath id="clip0">
<rect width="110" height="110" fill="white"/>
</clipPath>
</defs>
</svg>
