<svg width="120" height="120" viewBox="0 0 120 120" fill="none" xmlns="http://www.w3.org/2000/svg">
<g filter="url(#filter0_d)">
<rect x="10" y="10" width="100" height="100" fill="white"/>
</g>
<g filter="url(#filter1_d)">
<path d="M101.5 109.081H16.5L63.8722 69.3649L107.5 19L109.5 24L110.5 29L109.5 33L107.5 38L103.124 43L103.124 107.5L101.5 109.081Z" fill="white"/>
</g>
<path d="M15 19H93L54.2516 58.7161L15 100V19Z" fill="#5AA6ED"/>
<path d="M59.0491 73L92 107H26L59.0491 73Z" fill="#FFDB45"/>
<path d="M68.0709 63.6016L100.482 30.3905L100.482 96.9523L68.0709 63.6016Z" fill="#60BE21"/>
<path d="M55 61.5L94.5 20H101V27.5L66.5 63.5L101 100V107H94.5L59 71L23.5 107H17V100L55 61.5Z" fill="white"/>
<path d="M81 17L88.5 13H97.5L105 17L108.5 28L103 40L93 50L82.5 40L78 28L81 17Z" fill="#EF6657"/>
<circle cx="93.5" cy="28.5" r="4.5" fill="white"/>
<path d="M93.0379 11C87.6239 11.0008 82.6499 13.6765 79.4926 17.9984H16.6965C16.2466 17.9985 15.8151 18.1828 15.4969 18.5109C15.1788 18.839 15 19.284 15 19.748V99.8062V107.228C15 107.692 15.1788 108.137 15.4969 108.465C15.8151 108.794 16.2466 108.978 16.6965 108.978H23.8932H94.0849C94.2627 109.007 94.4439 109.007 94.6217 108.978H101.52C101.97 108.978 102.402 108.794 102.72 108.465C103.038 108.137 103.217 107.692 103.217 107.228V100.141C103.252 99.9377 103.252 99.7294 103.217 99.526V42.6023L105.026 40.7433C109.877 35.7664 111.336 28.2584 108.71 21.7505C106.083 15.2444 99.8915 10.9979 93.0379 11ZM93.0379 14.4992C98.5354 14.4978 103.474 17.8922 105.576 23.0969C107.676 28.3027 106.519 34.2768 102.634 38.2624L93.0379 48.1176L87.193 42.117C87.1675 42.0865 87.141 42.0568 87.1135 42.0282L83.4422 38.2624C82.3849 37.1708 81.5184 35.9076 80.8644 34.524C79.186 31.0017 78.9828 26.8545 80.4999 23.0969C82.6008 17.8943 87.5426 14.5003 93.0379 14.4992ZM93.0379 21.4566C91.2947 21.4566 89.5464 22.1324 88.2268 23.4865C85.5876 26.1941 85.5942 30.6405 88.2334 33.3485C90.8726 36.0562 95.2032 36.0611 97.8424 33.3485C100.482 30.6405 100.482 26.1941 97.8424 23.4865C96.5228 22.1324 94.7811 21.4566 93.0379 21.4566ZM18.393 21.4976H77.4913C77.4543 21.5852 77.4011 21.6621 77.3654 21.7505C75.6427 26.0172 75.7048 30.6992 77.2991 34.8316L18.393 95.5826V21.4976ZM93.0313 24.9285C93.8968 24.9285 94.7672 25.2736 95.4368 25.9605C96.7719 27.3349 96.7747 29.5085 95.4368 30.8813C94.0976 32.2554 91.9782 32.2505 90.639 30.8813C89.2998 29.5071 89.2932 27.3346 90.6323 25.9605C91.3019 25.2736 92.1658 24.9285 93.0313 24.9285ZM35.7686 25.0037C35.0386 24.981 34.3107 25.0218 33.5883 25.1199C30.699 25.5121 27.9309 26.8611 25.762 29.0975C21.4242 33.5712 20.541 40.5131 23.6083 45.9921C26.6756 51.4712 32.9445 54.1494 38.8699 52.5122C44.7953 50.8745 48.9294 45.3203 48.9295 38.9937C48.9295 38.5297 48.7507 38.0847 48.4326 37.7566C48.1144 37.4285 47.683 37.2441 47.233 37.2441H35.3577C35.1329 37.2408 34.9097 37.2837 34.7011 37.3701C34.4925 37.4566 34.3026 37.5849 34.1425 37.7477C33.9824 37.9105 33.8553 38.1045 33.7685 38.3184C33.6818 38.5323 33.6371 38.7618 33.6371 38.9937C33.6371 39.2256 33.6818 39.4551 33.7685 39.669C33.8553 39.8829 33.9824 40.0769 34.1425 40.2397C34.3026 40.4025 34.4925 40.5308 34.7011 40.6173C34.9097 40.7038 35.1329 40.7466 35.3577 40.7433H44.96C44.2588 44.6701 41.8433 48.0725 37.9952 49.136C33.5372 50.368 28.8516 48.3646 26.544 44.2425C24.2364 40.1205 24.8975 34.9371 28.1609 31.5715C31.4244 28.206 36.4503 27.5241 40.4471 29.904C40.6403 30.0298 40.8561 30.1142 41.0816 30.152C41.3071 30.1897 41.5377 30.1802 41.7595 30.1238C41.9813 30.0674 42.1898 29.9654 42.3725 29.8239C42.5552 29.6824 42.7083 29.5043 42.8226 29.3003C42.9369 29.0963 43.0101 28.8706 43.0377 28.6367C43.0654 28.4028 43.047 28.1656 42.9836 27.9392C42.9202 27.7128 42.8131 27.502 42.6687 27.3194C42.5244 27.1367 42.3458 26.986 42.1436 26.8763C40.1514 25.6901 37.9585 25.0719 35.7686 25.0037ZM78.9624 38.0642C79.5738 39.0062 80.2447 39.9228 81.0433 40.7433L83.5018 43.272L65.1057 62.2512L57.9089 69.6733L23.1908 105.472H18.393V100.524L78.9624 38.0642ZM85.914 45.7393L91.8384 51.8287C92.1563 52.1546 92.5863 52.3375 93.0346 52.3375C93.4828 52.3375 93.9128 52.1546 94.2307 51.8287L99.8238 46.0878V95.5826L68.7041 63.4882L85.914 45.7393ZM66.3051 65.9623L99.8238 100.531V105.479H95.026L61.5073 70.9104L66.3051 65.9623ZM59.1084 73.3844L90.2281 105.479H27.9886L59.1084 73.3844Z" fill="black"/>
<defs>
<filter id="filter0_d" x="0" y="0" width="120" height="120" filterUnits="userSpaceOnUse" color-interpolation-filters="sRGB">
<feFlood flood-opacity="0" result="BackgroundImageFix"/>
<feColorMatrix in="SourceAlpha" type="matrix" values="0 0 0 0 0 0 0 0 0 0 0 0 0 0 0 0 0 0 127 0" result="hardAlpha"/>
<feOffset/>
<feGaussianBlur stdDeviation="5"/>
<feComposite in2="hardAlpha" operator="out"/>
<feColorMatrix type="matrix" values="0 0 0 0 1 0 0 0 0 1 0 0 0 0 1 0 0 0 1 0"/>
<feBlend mode="normal" in2="BackgroundImageFix" result="effect1_dropShadow"/>
<feBlend mode="normal" in="SourceGraphic" in2="effect1_dropShadow" result="shape"/>
</filter>
<filter id="filter1_d" x="11.5" y="15" width="104" height="100.081" filterUnits="userSpaceOnUse" color-interpolation-filters="sRGB">
<feFlood flood-opacity="0" result="BackgroundImageFix"/>
<feColorMatrix in="SourceAlpha" type="matrix" values="0 0 0 0 0 0 0 0 0 0 0 0 0 0 0 0 0 0 127 0" result="hardAlpha"/>
<feOffset dy="1"/>
<feGaussianBlur stdDeviation="2.5"/>
<feComposite in2="hardAlpha" operator="out"/>
<feColorMatrix type="matrix" values="0 0 0 0 0 0 0 0 0 0 0 0 0 0 0 0 0 0 0.25 0"/>
<feBlend mode="normal" in2="BackgroundImageFix" result="effect1_dropShadow"/>
<feBlend mode="normal" in="SourceGraphic" in2="effect1_dropShadow" result="shape"/>
</filter>
</defs>
</svg>
