<svg width="227" height="228" viewBox="0 0 227 228" fill="none" xmlns="http://www.w3.org/2000/svg">
<g filter="url(#filter0_d)">
<path d="M37 198H189V201L142.5 220H84L37 201V198Z" fill="white" fill-opacity="0.01" shape-rendering="crispEdges"/>
</g>
<path d="M174.357 136.045C169.602 136.045 165.754 139.89 165.754 144.618C165.754 149.316 169.599 153.175 174.357 153.175C179.069 153.175 182.914 149.316 182.914 144.618C182.917 139.893 179.069 136.045 174.357 136.045ZM51.1019 136.045C46.3629 136.045 42.5065 139.89 42.5065 144.618C42.5065 149.316 46.3602 153.175 51.1019 153.175C55.8217 153.175 59.6727 149.316 59.6727 144.618C59.6727 139.893 55.819 136.045 51.1019 136.045ZM148.809 120.449C141.798 120.449 136.072 126.183 136.072 133.191C136.072 140.23 141.801 145.964 148.809 145.964C155.878 145.964 161.612 140.23 161.612 133.191C161.612 126.183 155.878 120.449 148.809 120.449ZM188.421 198.024H173.902V171.273C173.902 166.688 172.554 162.404 170.369 158.682C171.66 158.312 172.965 158.029 174.357 158.029C182.106 158.029 188.421 164.388 188.421 172.137V198.024ZM76.5923 120.449C69.5728 120.449 63.8471 126.183 63.8471 133.191C63.8471 140.23 69.5728 145.964 76.5923 145.964C83.6117 145.964 89.3511 140.23 89.3511 133.191C89.3511 126.183 83.609 120.449 76.5923 120.449ZM51.1019 158.029C52.4916 158.029 53.7853 158.314 55.068 158.682C52.8671 162.401 51.5322 166.688 51.5322 171.273V198.024H37V172.139C37 164.358 43.3534 158.029 51.1019 158.029ZM112.704 94.9421C102.313 94.9421 93.8544 103.417 93.8544 113.791C93.8544 124.209 102.313 132.668 112.704 132.668C123.092 132.668 131.58 124.209 131.58 113.791C131.58 103.417 123.092 94.9421 112.704 94.9421ZM169.218 207.988H146.935V167.285C146.935 161.647 145.46 156.44 143.075 151.813C144.893 151.259 146.822 150.876 148.809 150.876C160.053 150.876 169.218 160.016 169.218 171.271V207.988ZM78.4643 167.285V207.99H56.1945V171.287C56.1945 160.044 65.3409 150.892 76.5758 150.892C78.5904 150.892 80.5008 151.276 82.318 151.829C79.9334 156.467 78.4643 161.664 78.4643 167.285ZM83.1266 219.768H142.281V167.285C142.281 150.963 129.009 137.706 112.704 137.706C96.3678 137.706 83.1238 150.963 83.1238 167.285V219.768H83.1266ZM138.01 108.342V80.1467H130.391C118.517 80.1467 108.853 70.4823 108.853 58.595V23.2923C108.836 11.4187 118.503 1.76801 130.388 1.76801H204.957C216.836 1.76801 226.497 11.4187 226.497 23.2923V58.5813C226.497 70.4659 216.836 80.133 204.957 80.133H166.239L138.01 108.342ZM130.388 9.47541C122.787 9.47541 116.585 15.6781 116.585 23.2923V58.5813C116.585 66.2092 122.787 72.4119 130.388 72.4119H145.745V89.6905L163.032 72.4119H204.959C212.565 72.4119 218.768 66.2092 218.768 58.5813V23.2923C218.768 15.6781 212.565 9.47541 204.959 9.47541H130.388Z" fill="#010002"/>
<g filter="url(#filter1_d)">
<path d="M172.802 47.5947H165.067L163.972 15.0781H173.898L172.802 47.5947ZM168.935 52.6865C170.503 52.6865 171.76 53.1484 172.705 54.0723C173.672 54.9961 174.155 56.1777 174.155 57.6172C174.155 59.0352 173.672 60.2061 172.705 61.1299C171.76 62.0537 170.503 62.5156 168.935 62.5156C167.388 62.5156 166.131 62.0537 165.164 61.1299C164.219 60.2061 163.746 59.0352 163.746 57.6172C163.746 56.1992 164.219 55.0283 165.164 54.1045C166.131 53.1592 167.388 52.6865 168.935 52.6865Z" fill="black"/>
</g>
<defs>
<filter id="filter0_d" x="33" y="198" width="160" height="30" filterUnits="userSpaceOnUse" color-interpolation-filters="sRGB">
<feFlood flood-opacity="0" result="BackgroundImageFix"/>
<feColorMatrix in="SourceAlpha" type="matrix" values="0 0 0 0 0 0 0 0 0 0 0 0 0 0 0 0 0 0 127 0" result="hardAlpha"/>
<feOffset dy="4"/>
<feGaussianBlur stdDeviation="2"/>
<feComposite in2="hardAlpha" operator="out"/>
<feColorMatrix type="matrix" values="0 0 0 0 0 0 0 0 0 0 0 0 0 0 0 0 0 0 0.25 0"/>
<feBlend mode="normal" in2="BackgroundImageFix" result="effect1_dropShadow"/>
<feBlend mode="normal" in="SourceGraphic" in2="effect1_dropShadow" result="shape"/>
</filter>
<filter id="filter1_d" x="148.746" y="0.078125" width="40.4092" height="77.4375" filterUnits="userSpaceOnUse" color-interpolation-filters="sRGB">
<feFlood flood-opacity="0" result="BackgroundImageFix"/>
<feColorMatrix in="SourceAlpha" type="matrix" values="0 0 0 0 0 0 0 0 0 0 0 0 0 0 0 0 0 0 127 0" result="hardAlpha"/>
<feOffset/>
<feGaussianBlur stdDeviation="7.5"/>
<feComposite in2="hardAlpha" operator="out"/>
<feColorMatrix type="matrix" values="0 0 0 0 1 0 0 0 0 1 0 0 0 0 1 0 0 0 1 0"/>
<feBlend mode="normal" in2="BackgroundImageFix" result="effect1_dropShadow"/>
<feBlend mode="normal" in="SourceGraphic" in2="effect1_dropShadow" result="shape"/>
</filter>
</defs>
</svg>
