<svg width="96" height="96" viewBox="0 0 96 96" fill="none" xmlns="http://www.w3.org/2000/svg">
<rect x="4.00983" y="2.83047" width="64.8649" height="8.96315" fill="#C4C4C4"/>
<rect x="10.3784" y="17.2187" width="62.2703" height="74.0639" fill="#FFCE00"/>
<path d="M96 69.003C96 57.252 88.482 47.283 78.006 43.572V12H72.006V5.997H78.006V0H9.00599C8.75399 0.012 6.88499 -0.024 4.66799 1.062C2.42699 2.058 -0.0990092 4.935 0.00299082 9C0.00299082 9.018 0.00599082 9.036 0.00599082 9.054V90C0.00599082 96 6.00599 96 6.00599 96H69.249L69.228 95.988C84.042 95.865 96 83.835 96 69.003ZM8.55899 11.943C8.02799 11.865 7.25399 11.607 6.81899 11.229C6.40799 10.827 6.05099 10.5 6.00599 9C6.10499 7.062 6.58499 6.942 7.34699 6.432C7.73399 6.237 8.21099 6.111 8.55599 6.057C8.90999 5.991 8.99999 6.015 9.00599 5.997H66.006V12H9.00599C8.99999 12 8.90999 12.006 8.55899 11.943ZM12.006 90V18H72.006V42.18C71.019 42.069 70.017 42 69 42C67.992 42 66.999 42.063 66.021 42.174C66.015 42.117 66 42.051 66 42C66 36 60 36 60 36H54L48 30H36L30 36H24C24 36 18 36 18 42V60C18 66 24 66 24 66C24 66 33.081 66 42.177 66C42.066 66.987 42 67.986 42 69.003C42 77.49 45.921 85.056 52.044 90H12.006ZM50.796 49.104C47.607 52.026 45.126 55.686 43.629 59.835C43.101 59.937 42.558 60 42 60C37.026 60 33 55.974 33 51C33 46.032 37.026 42 42 42C46.314 42 49.923 45.048 50.796 49.104ZM69 90C57.405 89.976 48.018 80.595 48 69.003C48.018 57.408 57.405 48.018 69 48.003C80.595 48.021 89.976 57.408 90 69.003C89.976 80.595 80.595 89.976 69 90Z" fill="#010002"/>
<ellipse cx="68.8747" cy="68.9926" rx="22.4079" ry="22.2899" fill="#D4FFB7"/>
<path d="M72.006 66V54H66V66H54V72H66V84H72.006V72H84V66H72.006Z" fill="#010002"/>
</svg>
