<svg width="120" height="120" viewBox="0 0 120 120" fill="none" xmlns="http://www.w3.org/2000/svg">
<g filter="url(#filter0_d)">
<rect x="10" y="10" width="100" height="100" fill="white"/>
</g>
<g filter="url(#filter1_d)">
<rect x="23.25" y="16.8438" width="65.3577" height="9.03125" fill="#C4C4C4"/>
<path d="M97.5942 78.3857C97.5942 66.388 98.0318 68 98.6438 55.4869V23.252H92.5179V17.1229H98.6438V11H28.1951C27.9378 11.0123 26.0295 10.9755 23.766 12.0843C21.4779 13.1012 18.8989 16.0386 19.003 20.189C19.003 20.2073 19.0061 20.2257 19.0061 20.2441V102.89C19.0061 109.016 25.1321 109.016 25.1321 109.016H89.703L89.6815 109.003C100 104 97.5942 93.5292 97.5942 78.3857ZM27.7387 23.1938C27.1965 23.1141 26.4063 22.8507 25.9622 22.4648C25.5425 22.0543 25.178 21.7205 25.1321 20.189C25.2332 18.2103 25.7232 18.0878 26.5012 17.567C26.8964 17.368 27.3834 17.2393 27.7356 17.1842C28.0971 17.1168 28.1889 17.1413 28.1951 17.1229H86.3919V23.252H28.1951C28.1889 23.252 28.0971 23.2581 27.7387 23.1938ZM31.2581 102.89V29.3779H92.5179V54.0656C91.5101 53.9523 90.4871 53.8818 89.4487 53.8818C88.4196 53.8818 87.4057 53.9462 86.4072 54.0595C86.4011 54.0013 86.3857 53.9339 86.3857 53.8818C86.3857 47.7559 80.2598 47.7559 80.2598 47.7559H74.1338L68.0078 41.6299H55.7559L49.6299 47.7559H43.5039C43.5039 47.7559 37.3779 47.7559 37.3779 53.8818V72.2598C37.3779 78.3858 43.5039 78.3857 43.5039 78.3857C43.5039 78.3857 52.7756 78.3857 62.0625 78.3857C61.9492 79.3935 61.8818 80.4135 61.8818 81.4518C61.8818 90.117 65.8852 97.8419 72.1367 102.89H31.2581ZM70.8625 61.135C67.6066 64.1183 65.0735 67.8552 63.545 72.0913C63.0059 72.1955 62.4515 72.2598 61.8818 72.2598C56.8034 72.2598 52.6929 68.1492 52.6929 63.0708C52.6929 57.9985 56.8034 53.8818 61.8818 53.8818C66.2864 53.8818 69.9712 56.9938 70.8625 61.135ZM89.4487 102.89C77.6103 102.865 68.0262 93.2872 68.0078 81.4518C68.0262 69.6134 77.6103 60.0262 89.4487 60.0109C101.287 60.0293 97.4755 70.1615 97.5 82C97.4755 93.8354 101.287 102.865 89.4487 102.89Z" fill="#010002"/>
<rect x="27.8985" y="26.539" width="68.7969" height="80.2188" fill="#A97C50" stroke="black" stroke-width="3.98438"/>
</g>
<g filter="url(#filter2_ii)">
<path d="M41 44H50L55 37H69.5L74 44H83V73H41V44Z" fill="#353535" fill-opacity="0.96"/>
</g>
<g filter="url(#filter3_ii)">
<circle cx="62" cy="57" r="9" fill="#083046"/>
</g>
<path d="M80 40.9995H74L70 35H54L50 41H44C40.685 41 38 43.717 38 47.031V69C38 72.315 40.685 75 44 75H80C83.315 75 86 72.3455 86 69.031V47.062C86 43.747 83.315 40.9995 80 40.9995ZM82 69.031C82 70.1365 81.1215 71 80 71H44C42.897 71 42 70.103 42 69V47.031C42 45.9115 42.897 45 44 45H52.1405L56.1405 39H67.9295L71.859 45H80C81.084 45 82 45.9445 82 47.0625V69.031ZM62 47C56.477 47 52 51.4775 52 57C52 62.5225 56.4775 67 62 67C67.523 67 72 62.523 72 57C72 51.477 67.523 47 62 47ZM62 63C58.6915 63 56 60.3085 56 57C56 53.6915 58.691 51 62 51C65.3085 51 68 53.6915 68 57C68 60.3085 65.308 63 62 63Z" fill="black"/>
<g filter="url(#filter4_ii)">
<rect x="58.7159" y="58.6152" width="46.2016" height="39.2278" fill="#51CBE9" fill-opacity="0.85"/>
</g>
<g filter="url(#filter5_i)">
<path d="M89.8076 83.0236L101.431 96.9713H79.6374L89.8076 83.0236Z" fill="#1A4E41"/>
</g>
<g filter="url(#filter6_i)">
<path d="M77.0222 76.0498L90.9699 96.9713H64.818L77.0222 76.0498Z" fill="#3D8324"/>
</g>
<g filter="url(#filter7_d)">
<path d="M101.703 100.104H61.9305C60.3482 100.104 58.8308 99.4755 57.7119 98.3567C56.5931 97.2379 55.9646 95.7204 55.9646 94.1382V62.3201C55.9646 60.7378 56.5931 59.2204 57.7119 58.1015C58.8308 56.9827 60.3482 56.3542 61.9305 56.3542H101.703C103.285 56.3542 104.803 56.9827 105.922 58.1015C107.04 59.2204 107.669 60.7378 107.669 62.3201V94.1382C107.669 95.7204 107.04 97.2379 105.922 98.3567C104.803 99.4755 103.285 100.104 101.703 100.104ZM61.9305 60.3314C61.403 60.3314 60.8972 60.541 60.5243 60.9139C60.1513 61.2868 59.9418 61.7926 59.9418 62.3201V94.1382C59.9418 94.6656 60.1513 95.1714 60.5243 95.5443C60.8972 95.9173 61.403 96.1268 61.9305 96.1268H101.703C102.23 96.1268 102.736 95.9173 103.109 95.5443C103.482 95.1714 103.692 94.6656 103.692 94.1382V62.3201C103.692 61.7926 103.482 61.2868 103.109 60.9139C102.736 60.541 102.23 60.3314 101.703 60.3314H61.9305Z" fill="black"/>
</g>
<path d="M101.703 100.104C101.376 100.102 101.053 100.02 100.766 99.8637C100.478 99.7075 100.233 99.4827 100.053 99.2092L91.4218 86.2831C91.2399 86.0124 90.9942 85.7906 90.7064 85.6372C90.4186 85.4838 90.0974 85.4036 89.7713 85.4036C89.4451 85.4036 89.124 85.4838 88.8362 85.6372C88.5483 85.7906 88.3026 86.0124 88.1207 86.2831L87.4446 87.2774C87.1338 87.6633 86.6901 87.9192 86.2004 87.9951C85.7108 88.071 85.2104 87.9613 84.7974 87.6876C84.3844 87.4139 84.0884 86.9959 83.9674 86.5154C83.8465 86.0349 83.9092 85.5265 84.1435 85.0899L84.7997 84.0757C85.3439 83.2553 86.0827 82.5823 86.9501 82.1167C87.8176 81.6512 88.7868 81.4076 89.7713 81.4076C90.7558 81.4076 91.725 81.6512 92.5924 82.1167C93.4599 82.5823 94.1987 83.2553 94.7429 84.0757L103.354 97.0217C103.641 97.4601 103.744 97.9945 103.64 98.5084C103.536 99.0224 103.233 99.4744 102.797 99.766C102.477 99.9903 102.094 100.109 101.703 100.104V100.104Z" fill="black"/>
<path d="M61.9305 100.104C61.5494 100.103 61.1767 99.9926 60.8566 99.7859C60.4142 99.5006 60.1029 99.0515 59.9911 98.537C59.8792 98.0226 59.976 97.4848 60.26 97.0415L72.6492 77.9109C73.1869 77.0801 73.9228 76.396 74.7907 75.9204C75.6586 75.4449 76.6311 75.1926 77.6208 75.1865V75.1865C78.605 75.1861 79.5739 75.4292 80.4414 75.8942C81.3088 76.3591 82.0478 77.0315 82.5923 77.8513L95.3594 97.0217C95.5936 97.4583 95.6563 97.9666 95.5354 98.4471C95.4144 98.9276 95.1184 99.3457 94.7054 99.6194C94.2924 99.8931 93.792 100.003 93.3024 99.9269C92.8127 99.851 92.369 99.595 92.0582 99.2092L79.2713 80.0586C79.0912 79.7851 78.8463 79.5603 78.5583 79.4041C78.2704 79.248 77.9483 79.1654 77.6208 79.1638C77.2914 79.1676 76.9682 79.2532 76.6801 79.4129C76.392 79.5726 76.148 79.8013 75.9702 80.0785L63.6009 99.1893C63.4212 99.4693 63.1742 99.6998 62.8823 99.8596C62.5905 100.019 62.2632 100.103 61.9305 100.104Z" fill="black"/>
<g filter="url(#filter8_i)">
<circle cx="92.1516" cy="70.4533" r="6.41099" fill="#FFDB45"/>
</g>
<circle cx="92.1516" cy="70.4533" r="5.40927" stroke="black" stroke-width="2.00343"/>
<defs>
<filter id="filter0_d" x="0" y="0" width="120" height="120" filterUnits="userSpaceOnUse" color-interpolation-filters="sRGB">
<feFlood flood-opacity="0" result="BackgroundImageFix"/>
<feColorMatrix in="SourceAlpha" type="matrix" values="0 0 0 0 0 0 0 0 0 0 0 0 0 0 0 0 0 0 127 0" result="hardAlpha"/>
<feOffset/>
<feGaussianBlur stdDeviation="5"/>
<feComposite in2="hardAlpha" operator="out"/>
<feColorMatrix type="matrix" values="0 0 0 0 1 0 0 0 0 1 0 0 0 0 1 0 0 0 1 0"/>
<feBlend mode="normal" in2="BackgroundImageFix" result="effect1_dropShadow"/>
<feBlend mode="normal" in="SourceGraphic" in2="effect1_dropShadow" result="shape"/>
</filter>
<filter id="filter1_d" x="14" y="7" width="89.6875" height="108.016" filterUnits="userSpaceOnUse" color-interpolation-filters="sRGB">
<feFlood flood-opacity="0" result="BackgroundImageFix"/>
<feColorMatrix in="SourceAlpha" type="matrix" values="0 0 0 0 0 0 0 0 0 0 0 0 0 0 0 0 0 0 127 0" result="hardAlpha"/>
<feOffset dy="1"/>
<feGaussianBlur stdDeviation="2.5"/>
<feComposite in2="hardAlpha" operator="out"/>
<feColorMatrix type="matrix" values="0 0 0 0 0 0 0 0 0 0 0 0 0 0 0 0 0 0 0.25 0"/>
<feBlend mode="normal" in2="BackgroundImageFix" result="effect1_dropShadow"/>
<feBlend mode="normal" in="SourceGraphic" in2="effect1_dropShadow" result="shape"/>
</filter>
<filter id="filter2_ii" x="40" y="34" width="53" height="46" filterUnits="userSpaceOnUse" color-interpolation-filters="sRGB">
<feFlood flood-opacity="0" result="BackgroundImageFix"/>
<feBlend mode="normal" in="SourceGraphic" in2="BackgroundImageFix" result="shape"/>
<feColorMatrix in="SourceAlpha" type="matrix" values="0 0 0 0 0 0 0 0 0 0 0 0 0 0 0 0 0 0 127 0" result="hardAlpha"/>
<feOffset dx="10" dy="7"/>
<feGaussianBlur stdDeviation="5"/>
<feComposite in2="hardAlpha" operator="arithmetic" k2="-1" k3="1"/>
<feColorMatrix type="matrix" values="0 0 0 0 0 0 0 0 0 0.164706 0 0 0 0 0.2 0 0 0 0.5 0"/>
<feBlend mode="normal" in2="shape" result="effect1_innerShadow"/>
<feColorMatrix in="SourceAlpha" type="matrix" values="0 0 0 0 0 0 0 0 0 0 0 0 0 0 0 0 0 0 127 0" result="hardAlpha"/>
<feOffset dx="-1" dy="-3"/>
<feGaussianBlur stdDeviation="4.5"/>
<feComposite in2="hardAlpha" operator="arithmetic" k2="-1" k3="1"/>
<feColorMatrix type="matrix" values="0 0 0 0 0.44971 0 0 0 0 0.393385 0 0 0 0 0.795703 0 0 0 0.74 0"/>
<feBlend mode="normal" in2="effect1_innerShadow" result="effect2_innerShadow"/>
</filter>
<filter id="filter3_ii" x="53" y="48" width="20" height="20" filterUnits="userSpaceOnUse" color-interpolation-filters="sRGB">
<feFlood flood-opacity="0" result="BackgroundImageFix"/>
<feBlend mode="normal" in="SourceGraphic" in2="BackgroundImageFix" result="shape"/>
<feColorMatrix in="SourceAlpha" type="matrix" values="0 0 0 0 0 0 0 0 0 0 0 0 0 0 0 0 0 0 127 0" result="hardAlpha"/>
<feOffset dx="2" dy="3"/>
<feGaussianBlur stdDeviation="1"/>
<feComposite in2="hardAlpha" operator="arithmetic" k2="-1" k3="1"/>
<feColorMatrix type="matrix" values="0 0 0 0 0.764706 0 0 0 0 0.898039 0 0 0 0 0.878431 0 0 0 0.99 0"/>
<feBlend mode="normal" in2="shape" result="effect1_innerShadow"/>
<feColorMatrix in="SourceAlpha" type="matrix" values="0 0 0 0 0 0 0 0 0 0 0 0 0 0 0 0 0 0 127 0" result="hardAlpha"/>
<feOffset dx="-4" dy="-2"/>
<feComposite in2="hardAlpha" operator="arithmetic" k2="-1" k3="1"/>
<feColorMatrix type="matrix" values="0 0 0 0 0 0 0 0 0 0 0 0 0 0 0 0 0 0 0.25 0"/>
<feBlend mode="normal" in2="effect1_innerShadow" result="effect2_innerShadow"/>
</filter>
<filter id="filter4_ii" x="52.6138" y="48.1545" width="54.9189" height="53.1754" filterUnits="userSpaceOnUse" color-interpolation-filters="sRGB">
<feFlood flood-opacity="0" result="BackgroundImageFix"/>
<feBlend mode="normal" in="SourceGraphic" in2="BackgroundImageFix" result="shape"/>
<feColorMatrix in="SourceAlpha" type="matrix" values="0 0 0 0 0 0 0 0 0 0 0 0 0 0 0 0 0 0 127 0" result="hardAlpha"/>
<feMorphology radius="1.74346" operator="dilate" in="SourceAlpha" result="effect1_innerShadow"/>
<feOffset dx="-6.1021" dy="-10.4607"/>
<feGaussianBlur stdDeviation="6.53796"/>
<feComposite in2="hardAlpha" operator="arithmetic" k2="-1" k3="1"/>
<feColorMatrix type="matrix" values="0 0 0 0 0.219608 0 0 0 0 0.34902 0 0 0 0 0.592157 0 0 0 0.66 0"/>
<feBlend mode="normal" in2="shape" result="effect1_innerShadow"/>
<feColorMatrix in="SourceAlpha" type="matrix" values="0 0 0 0 0 0 0 0 0 0 0 0 0 0 0 0 0 0 127 0" result="hardAlpha"/>
<feMorphology radius="0.871729" operator="dilate" in="SourceAlpha" result="effect2_innerShadow"/>
<feOffset dx="2.61519" dy="4.35864"/>
<feGaussianBlur stdDeviation="2.17932"/>
<feComposite in2="hardAlpha" operator="arithmetic" k2="-1" k3="1"/>
<feColorMatrix type="matrix" values="0 0 0 0 0.862745 0 0 0 0 0.976471 0 0 0 0 0.964706 0 0 0 1 0"/>
<feBlend mode="normal" in2="effect1_innerShadow" result="effect2_innerShadow"/>
</filter>
<filter id="filter5_i" x="79.6374" y="82.2222" width="21.7932" height="14.749" filterUnits="userSpaceOnUse" color-interpolation-filters="sRGB">
<feFlood flood-opacity="0" result="BackgroundImageFix"/>
<feBlend mode="normal" in="SourceGraphic" in2="BackgroundImageFix" result="shape"/>
<feColorMatrix in="SourceAlpha" type="matrix" values="0 0 0 0 0 0 0 0 0 0 0 0 0 0 0 0 0 0 127 0" result="hardAlpha"/>
<feOffset dy="-0.801374"/>
<feGaussianBlur stdDeviation="2.40412"/>
<feComposite in2="hardAlpha" operator="arithmetic" k2="-1" k3="1"/>
<feColorMatrix type="matrix" values="0 0 0 0 0.0235294 0 0 0 0 0.247059 0 0 0 0 0.4 0 0 0 1 0"/>
<feBlend mode="normal" in2="shape" result="effect1_innerShadow"/>
</filter>
<filter id="filter6_i" x="64.818" y="73.6457" width="29.3574" height="23.3256" filterUnits="userSpaceOnUse" color-interpolation-filters="sRGB">
<feFlood flood-opacity="0" result="BackgroundImageFix"/>
<feBlend mode="normal" in="SourceGraphic" in2="BackgroundImageFix" result="shape"/>
<feColorMatrix in="SourceAlpha" type="matrix" values="0 0 0 0 0 0 0 0 0 0 0 0 0 0 0 0 0 0 127 0" result="hardAlpha"/>
<feOffset dx="3.2055" dy="-2.40412"/>
<feGaussianBlur stdDeviation="2.00343"/>
<feComposite in2="hardAlpha" operator="arithmetic" k2="-1" k3="1"/>
<feColorMatrix type="matrix" values="0 0 0 0 0.102214 0 0 0 0 0.304109 0 0 0 0 0.255654 0 0 0 1 0"/>
<feBlend mode="normal" in2="shape" result="effect1_innerShadow"/>
</filter>
<filter id="filter7_d" x="50.9646" y="52.3542" width="61.7044" height="53.7499" filterUnits="userSpaceOnUse" color-interpolation-filters="sRGB">
<feFlood flood-opacity="0" result="BackgroundImageFix"/>
<feColorMatrix in="SourceAlpha" type="matrix" values="0 0 0 0 0 0 0 0 0 0 0 0 0 0 0 0 0 0 127 0" result="hardAlpha"/>
<feOffset dy="1"/>
<feGaussianBlur stdDeviation="2.5"/>
<feComposite in2="hardAlpha" operator="out"/>
<feColorMatrix type="matrix" values="0 0 0 0 0 0 0 0 0 0 0 0 0 0 0 0 0 0 0.25 0"/>
<feBlend mode="normal" in2="BackgroundImageFix" result="effect1_dropShadow"/>
<feBlend mode="normal" in="SourceGraphic" in2="effect1_dropShadow" result="shape"/>
</filter>
<filter id="filter8_i" x="85.7406" y="62.9274" width="15.0519" height="13.9369" filterUnits="userSpaceOnUse" color-interpolation-filters="sRGB">
<feFlood flood-opacity="0" result="BackgroundImageFix"/>
<feBlend mode="normal" in="SourceGraphic" in2="BackgroundImageFix" result="shape"/>
<feColorMatrix in="SourceAlpha" type="matrix" values="0 0 0 0 0 0 0 0 0 0 0 0 0 0 0 0 0 0 127 0" result="hardAlpha"/>
<feOffset dx="3.34486" dy="-1.11495"/>
<feGaussianBlur stdDeviation="1.11495"/>
<feComposite in2="hardAlpha" operator="arithmetic" k2="-1" k3="1"/>
<feColorMatrix type="matrix" values="0 0 0 0 1 0 0 0 0 0.933333 0 0 0 0 0.639216 0 0 0 1 0"/>
<feBlend mode="normal" in2="shape" result="effect1_innerShadow"/>
</filter>
</defs>
</svg>
