<svg width="97" height="98" viewBox="0 0 97 98" fill="none" xmlns="http://www.w3.org/2000/svg">
<path d="M35.5666 38.8164V45.283L32.3333 48.5163H29.1L25.8666 45.283V38.8164H35.5666Z" fill="#D3B185"/>
<path d="M95.3832 75.9996V82.4663H90.5332H6.46669H1.6167V75.9996H8.08335H17.7833H25.8667H35.5666H43.65H53.3499H95.3832Z" fill="#A97C50"/>
<path d="M95.3024 22.7305C95.0819 25.2685 94.3631 27.738 93.1871 29.9979C92.0111 32.2577 90.4009 34.2634 88.4488 35.9002C86.4967 37.537 84.2409 38.7727 81.8106 39.5366C79.3803 40.3005 76.8232 40.5777 74.2857 40.3521C71.136 40.0907 68.1017 39.0459 65.4587 37.3128L56.5833 38.8163L59.2992 30.9108C57.7425 28.2818 56.8289 25.322 56.6331 22.2729C56.4373 19.2238 56.9648 16.1715 58.1725 13.365C59.3803 10.5584 61.2341 8.07693 63.583 6.12282C65.9318 4.16872 68.7091 2.79729 71.6886 2.12032C74.6681 1.44335 77.7653 1.48 80.728 2.22728C83.6906 2.97457 86.4347 4.41133 88.7366 6.42046C91.0385 8.4296 92.8332 10.9542 93.9742 13.7886C95.1152 16.623 95.5703 19.6868 95.3024 22.7305Z" fill="#C3E5E0"/>
<path d="M90.5332 82.4663H6.46667V95.3996H90.5332V82.4663Z" fill="#A97C50"/>
<path d="M43.65 75.9996H35.5667L32.6405 54.6758L33.95 53.3663L33.6267 52.3963L38.8 53.3663L41.031 47.7727L47.6593 50.7797C49.3576 51.5506 50.7977 52.7948 51.807 54.3632C52.8163 55.9316 53.352 57.7577 53.35 59.6228V75.9996H43.65Z" fill="#212830"/>
<path d="M48.4999 22.6497V29.1164C48.4999 29.5451 48.3296 29.9563 48.0264 30.2595C47.7232 30.5627 47.312 30.733 46.8833 30.733H42.0333V21.033H46.8833C47.312 21.033 47.7232 21.2034 48.0264 21.5065C48.3296 21.8097 48.4999 22.2209 48.4999 22.6497Z" fill="#BBC4CF"/>
<path d="M35.5666 38.8164V42.567C34.0522 43.2907 32.3951 43.6663 30.7166 43.6663C29.0382 43.6663 27.381 43.2907 25.8666 42.567V38.8164H35.5666Z" fill="#B99B73"/>
<path d="M41.128 22.6497C40.4487 22.6481 39.787 22.4336 39.236 22.0363C38.685 21.639 38.2724 21.0789 38.0563 20.4349L37.1833 17.7997L34.1602 20.063C31.9224 21.7439 29.1989 22.6518 26.4002 22.6497H19.4V29.1163C19.4 32.1177 20.5923 34.9961 22.7146 37.1184C24.8369 39.2407 27.7153 40.433 30.7167 40.433C33.718 40.433 36.5965 39.2407 38.7187 37.1184C40.841 34.9961 42.0333 32.1177 42.0333 29.1163V22.6497H41.128Z" fill="#D3B185"/>
<path d="M42.0333 21.0331V22.6497H41.128C40.4487 22.6482 39.787 22.4336 39.236 22.0363C38.685 21.639 38.2724 21.0789 38.0563 20.4349L37.1833 17.7997L34.1602 20.0631C31.9224 21.744 29.1989 22.6518 26.4002 22.6497H19.4V19.4164C19.4 16.415 20.5923 13.5366 22.7146 11.4143C24.8369 9.29205 27.7153 8.09976 30.7167 8.09976C33.718 8.09976 36.5965 9.29205 38.7187 11.4143C40.841 13.5366 42.0333 16.415 42.0333 19.4164V21.0331Z" fill="#E5810C"/>
<path d="M35.5666 45.283L41.031 47.7727L38.8 53.3663L33.6266 52.3963L32.3333 48.5163L35.5666 45.283Z" fill="#062155"/>
<path d="M32.6405 54.6758L35.5666 75.9996H25.8666L28.7928 54.6758L30.7166 56.5996L32.6405 54.6758Z" fill="#2B4844"/>
<path d="M33.6267 52.3963L33.95 53.3663L32.6405 54.6758L30.7167 56.5996L28.7928 54.6758L27.4833 53.3663L27.8067 52.3963L29.1 48.5163H32.3333L33.6267 52.3963Z" fill="#2B4844"/>
<path d="M29.1 48.5163L27.8067 52.3963L22.6333 53.3663L20.4023 47.7727L25.8667 45.283L29.1 48.5163Z" fill="#062155"/>
<path d="M17.7834 75.9996H8.08338V59.6228C8.08135 57.7577 8.61707 55.9316 9.62636 54.3632C10.6357 52.7948 12.0757 51.5506 13.774 50.7797L20.4024 47.7727L22.6334 53.3663L27.8067 52.3963L27.4833 53.3663L28.7928 54.6758L25.8667 75.9996H17.7834Z" fill="#212830"/>
<path d="M19.3999 29.1164V30.733H14.55C14.1212 30.733 13.71 30.5627 13.4068 30.2595C13.1036 29.9563 12.9333 29.5451 12.9333 29.1164V22.6497C12.9333 22.2209 13.1036 21.8097 13.4068 21.5065C13.71 21.2034 14.1212 21.033 14.55 21.033H19.3999V29.1164Z" fill="#BBC4CF"/>
<path d="M90.5332 82.4663H6.46667V85.6996H90.5332V82.4663Z" fill="#8B5E3C"/>
<path d="M95.3832 74.3827H54.9666V59.6225C54.963 57.4496 54.3367 55.3232 53.162 53.4953C51.9873 51.6673 50.3133 50.2142 48.3382 49.3082L37.1833 44.2481V40.3034C38.5702 39.4991 39.7977 38.447 40.8046 37.1994H43.6499C44.935 37.1956 46.1664 36.6834 47.0751 35.7746C47.9839 34.8659 48.4961 33.6345 48.4999 32.3494V31.8967C48.9886 31.6146 49.3949 31.2095 49.6785 30.7217C49.9622 30.2339 50.1132 29.6803 50.1166 29.1161V22.6494C50.114 21.7927 49.7725 20.9718 49.1667 20.366C48.5609 19.7601 47.74 19.4187 46.8832 19.4161V16.1828C46.8832 11.8951 45.18 7.78307 42.1481 4.75124C39.1163 1.71941 35.0043 0.0161438 30.7166 0.0161438C26.429 0.0161438 22.3169 1.71941 19.2851 4.75124C16.2532 7.78307 14.55 11.8951 14.55 16.1828V19.4161C13.6932 19.4187 12.8723 19.7601 12.2665 20.366C11.6607 20.9718 11.3192 21.7927 11.3166 22.6494V29.1161C11.3192 29.9728 11.6607 30.7938 12.2665 31.3996C12.8723 32.0054 13.6932 32.3469 14.55 32.3494H18.2036C18.6386 34.0078 19.3966 35.564 20.4342 36.9289C21.4717 38.2938 22.7684 39.4406 24.25 40.3034V44.2481L13.095 49.3082C11.1199 50.2142 9.44594 51.6673 8.27121 53.4953C7.09648 55.3232 6.47024 57.4496 6.46665 59.6225V74.3827H1.61666C1.1879 74.3827 0.776693 74.553 0.47351 74.8562C0.170327 75.1594 0 75.5706 0 75.9993V82.466C0 82.8948 0.170327 83.306 0.47351 83.6091C0.776693 83.9123 1.1879 84.0827 1.61666 84.0827H4.84999V95.3993C4.84999 95.8281 5.02032 96.2393 5.3235 96.5425C5.62668 96.8456 6.03789 97.016 6.46665 97.016H90.5332C90.9619 97.016 91.3731 96.8456 91.6763 96.5425C91.9795 96.2393 92.1498 95.8281 92.1498 95.3993V84.0827H95.3832C95.8119 84.0827 96.2231 83.9123 96.5263 83.6091C96.8295 83.306 96.9998 82.8948 96.9998 82.466V75.9993C96.9998 75.5706 96.8295 75.1594 96.5263 74.8562C96.2231 74.553 95.8119 74.3827 95.3832 74.3827ZM40.3034 53.9642L41.9039 49.9387L46.9964 52.2505C48.4089 52.8969 49.6061 53.9352 50.4458 55.242C51.2855 56.5488 51.7323 58.0692 51.7332 59.6225V74.3827H45.2666V61.4494H42.0333V74.3827H36.9731L34.3541 55.2575L35.0978 54.5139C35.1447 54.4575 35.1879 54.3981 35.2271 54.336L38.5089 54.9504C38.6049 54.9691 38.7022 54.9799 38.7999 54.9827C39.1237 54.983 39.4401 54.8861 39.7082 54.7045C39.9763 54.5229 40.1836 54.265 40.3034 53.9642ZM38.9616 48.5969L37.7976 51.5392L34.8553 50.9895L34.1763 48.9526L35.9223 47.2227L38.9616 48.5969ZM40.4166 20.8388C40.0337 20.6568 39.7376 20.3317 39.5921 19.9334L38.7191 17.2821C38.6352 17.0411 38.4958 16.8231 38.3122 16.6458C38.1286 16.4685 37.906 16.3368 37.6622 16.2612C37.4184 16.1857 37.1602 16.1686 36.9086 16.2111C36.6569 16.2536 36.4187 16.3547 36.2133 16.5061L33.1901 18.7694C31.229 20.2342 28.8479 21.0279 26.4001 21.0328H21.0166V19.4161C21.0166 16.8435 22.0386 14.3763 23.8577 12.5572C25.6768 10.7381 28.144 9.71613 30.7166 9.71613C33.2892 9.71613 35.7564 10.7381 37.5755 12.5572C39.3946 14.3763 40.4166 16.8435 40.4166 19.4161V20.8388ZM43.6499 33.9661H42.6961C42.9077 33.4389 43.0859 32.899 43.2296 32.3494H45.2666C45.2666 32.7782 45.0963 33.1894 44.7931 33.4926C44.4899 33.7958 44.0787 33.9661 43.6499 33.9661ZM46.8832 29.1161H43.6499V22.6494H46.8832V29.1161ZM17.7833 29.1161H14.55V22.6494H17.7833V29.1161ZM17.7833 19.4161V16.1828C17.7833 12.7527 19.1459 9.46302 21.5714 7.03755C23.9968 4.61208 27.2865 3.24947 30.7166 3.24947C34.1467 3.24947 37.4364 4.61208 39.8618 7.03755C42.2873 9.46302 43.6499 12.7527 43.6499 16.1828V19.4161C43.6499 15.986 42.2873 12.6963 39.8618 10.2709C37.4364 7.84541 34.1467 6.4828 30.7166 6.4828C27.2865 6.4828 23.9968 7.84541 21.5714 10.2709C19.1459 12.6963 17.7833 15.986 17.7833 19.4161ZM21.0166 29.1161V24.2661H26.4001C29.5477 24.2624 32.6098 23.2417 35.1301 21.3561L36.3588 20.4346L36.5366 20.9519C36.8174 21.8007 37.3293 22.5543 38.0146 23.1283C38.7 23.7023 39.5318 24.0739 40.4166 24.2014V29.1161C40.4148 30.8199 39.9631 32.4929 39.1071 33.9661H30.7166V37.1994H36.0678C34.607 38.1689 32.9106 38.7239 31.1593 38.8055C29.408 38.887 27.6674 38.492 26.1229 37.6625C24.5784 36.833 23.2878 35.6001 22.3885 34.095C21.4893 32.59 21.0152 30.8693 21.0166 29.1161ZM29.9729 58.0059C30.1967 58.1433 30.4541 58.216 30.7166 58.216C30.9791 58.216 31.2366 58.1433 31.4603 58.0059L33.7074 74.3827H27.7258L29.9729 58.0059ZM29.3263 52.9295L30.2639 50.1327H31.1693L32.1069 52.9295L30.7166 54.3199L29.3263 52.9295ZM31.6704 46.8994H29.7628L27.4833 44.6199V41.6291C29.6024 42.1895 31.8308 42.1895 33.9499 41.6291V44.6199L31.6704 46.8994ZM25.511 47.2227L27.257 48.9526L26.578 50.9895L23.6356 51.5392L22.4716 48.5969L25.511 47.2227ZM9.69998 59.6225C9.7009 58.0692 10.1477 56.5488 10.9874 55.242C11.8271 53.9352 13.0243 52.8969 14.4368 52.2505L19.5293 49.9387L21.1298 53.9642C21.2496 54.265 21.457 54.5229 21.725 54.7045C21.9931 54.8861 22.3095 54.983 22.6333 54.9827C22.731 54.9799 22.8283 54.9691 22.9243 54.9504L26.2061 54.336C26.2453 54.3981 26.2885 54.4575 26.3355 54.5139L27.0791 55.2575L24.4601 74.3827H19.4V61.4494H16.1666V74.3827H9.69998V59.6225ZM88.9165 93.7826H8.08332V84.0827H88.9165V93.7826ZM93.7665 80.8493H3.23333V77.616H93.7665V80.8493Z" fill="black" fill-opacity="0.8"/>
<path d="M55.3416 39.8542C55.5237 40.0676 55.7577 40.2303 56.0211 40.3266C56.2846 40.4229 56.5684 40.4496 56.8451 40.4039L65.116 39.0168C67.8638 40.6759 70.9542 41.6855 74.1515 41.9688C74.7777 42.0238 75.4006 42.0513 76.0204 42.0513C80.018 42.0442 83.9306 40.8972 87.2993 38.7448C90.668 36.5923 93.3529 33.5238 95.039 29.8992C96.7251 26.2745 97.3425 22.2442 96.8188 18.2811C96.295 14.3179 94.6518 10.5863 92.0819 7.5242C88.7359 3.52613 84.0227 0.915234 78.8587 0.199136C73.6947 -0.516961 68.4488 0.712923 64.1412 3.64966C59.8336 6.5864 56.772 11.0201 55.5517 16.0887C54.3314 21.1574 55.0396 26.4987 57.5387 31.0741L55.049 38.2828C54.9574 38.5477 54.9362 38.8318 54.9875 39.1072C55.0388 39.3827 55.1608 39.6401 55.3416 39.8542ZM58.2678 19.4843C58.6786 14.7859 60.939 10.4431 64.5517 7.41132C68.1644 4.37951 72.8336 2.90697 77.5319 3.31764C79.8662 3.51112 82.1392 4.1638 84.2204 5.2382C86.3017 6.3126 88.1502 7.78756 89.6598 9.57838C91.1694 11.3692 92.3104 13.4406 93.0172 15.6736C93.724 17.9066 93.9828 20.2573 93.7786 22.5906C93.5744 24.9239 92.9112 27.1938 91.8273 29.2701C90.7433 31.3464 89.2599 33.1881 87.4622 34.6895C85.6644 36.1909 83.5878 37.3223 81.3516 38.0189C79.1153 38.7154 76.7635 38.9634 74.4312 38.7484C71.5422 38.5031 68.759 37.5461 66.3301 35.9629C66.068 35.7937 65.7626 35.7038 65.4506 35.7043C65.3612 35.7046 65.272 35.7121 65.1839 35.7269L58.9921 36.7648L60.8318 31.4298C60.9086 31.2078 60.9361 30.9718 60.9123 30.7381C60.8886 30.5044 60.8142 30.2787 60.6944 30.0767C58.7908 26.8887 57.9416 23.1814 58.2678 19.4827V19.4843Z" fill="black" fill-opacity="0.8"/>
<path d="M37.1833 25.883H33.95V29.1164H37.1833V25.883Z" fill="black" fill-opacity="0.8"/>
<path d="M27.4833 25.883H24.25V29.1164H27.4833V25.883Z" fill="black" fill-opacity="0.8"/>
<path d="M18.5 50.5L25.5 47L28.5 50H32.5L36 47L43 50.5L41.5 61.5L42 74.5H19.5L20 61.5L18.5 50.5Z" fill="#212830"/>
<g style="mix-blend-mode:soft-light">
<path d="M30.4663 52.4261L30.3726 52.1917" stroke="white" stroke-width="3" stroke-linecap="round"/>
</g>
<g style="mix-blend-mode:soft-light">
<path d="M30.4663 57.2541L30.4194 57.0197" stroke="white" stroke-width="3" stroke-linecap="round"/>
</g>
<path d="M87.1772 64.4619L88.3027 74.4893H83.9029L87.1772 64.4619Z" fill="#8D8D8D"/>
<path d="M84.326 74.1824L87.0299 65.9018L87.9593 74.1824H84.326Z" stroke="black" stroke-opacity="0.8" stroke-width="0.613924"/>
<path d="M58.6298 63.848H87.2795L86.0517 74.4894H56.6857L58.6298 63.848Z" fill="#BBC4CF"/>
<path d="M57.1765 74.0801L58.971 64.2573H86.8203L85.6869 74.0801H57.1765Z" stroke="black" stroke-opacity="0.8" stroke-width="0.818565"/>
<g style="mix-blend-mode:multiply">
<path d="M62.7166 70.2752C62.7166 70.6404 62.5839 70.9326 62.3187 71.1517C62.0572 71.367 61.6843 71.4747 61.1999 71.4747C60.7655 71.4747 60.3772 71.392 60.035 71.2267V70.4136C60.2311 70.4981 60.4329 70.577 60.6405 70.65C60.852 70.7192 61.0615 70.7538 61.2691 70.7538C61.4844 70.7538 61.6362 70.7134 61.7247 70.6327C61.8169 70.5481 61.8631 70.4424 61.8631 70.3155C61.8631 70.2117 61.8266 70.1233 61.7535 70.0503C61.6843 69.9772 61.5901 69.9099 61.4709 69.8484C61.3517 69.7831 61.2153 69.7139 61.0615 69.6408C60.9654 69.5947 60.8616 69.5408 60.7501 69.4793C60.6386 69.414 60.5309 69.3352 60.4271 69.2429C60.3272 69.1468 60.2445 69.0314 60.1792 68.8969C60.1138 68.7623 60.0811 68.6009 60.0811 68.4125C60.0811 68.0434 60.2061 67.757 60.456 67.5532C60.7059 67.3456 61.0461 67.2418 61.4767 67.2418C61.692 67.2418 61.8958 67.2668 62.088 67.3168C62.2841 67.3668 62.4878 67.4379 62.6993 67.5301L62.4167 68.2106C62.2283 68.1337 62.0591 68.0742 61.9092 68.0319C61.7593 67.9896 61.6055 67.9684 61.4479 67.9684C61.2825 67.9684 61.1557 68.0069 61.0673 68.0838C60.9788 68.1607 60.9346 68.2606 60.9346 68.3836C60.9346 68.5297 61 68.6451 61.1307 68.7296C61.2614 68.8142 61.4556 68.918 61.7131 69.0411C61.9246 69.141 62.1034 69.2448 62.2495 69.3525C62.3994 69.4601 62.5147 69.587 62.5955 69.7331C62.6762 69.8792 62.7166 70.0599 62.7166 70.2752ZM64.7798 68.2106C65.2143 68.2106 65.5584 68.3356 65.8121 68.5855C66.0658 68.8315 66.1927 69.1833 66.1927 69.6408V70.056H64.1628C64.1705 70.2982 64.2416 70.4885 64.3762 70.6269C64.5146 70.7653 64.7049 70.8345 64.9471 70.8345C65.1508 70.8345 65.3354 70.8153 65.5007 70.7769C65.666 70.7346 65.8371 70.6711 66.0139 70.5866V71.2498C65.8602 71.3266 65.6968 71.3824 65.5238 71.417C65.3546 71.4554 65.1489 71.4747 64.9067 71.4747C64.5914 71.4747 64.3127 71.417 64.0705 71.3017C63.8283 71.1825 63.638 71.0037 63.4996 70.7653C63.3612 70.527 63.292 70.2271 63.292 69.8657C63.292 69.4966 63.3535 69.191 63.4765 68.9488C63.6034 68.7027 63.7783 68.5182 64.0013 68.3952C64.2243 68.2721 64.4838 68.2106 64.7798 68.2106ZM64.7856 68.8219C64.6203 68.8219 64.4819 68.8757 64.3704 68.9834C64.2627 69.091 64.1993 69.2583 64.1801 69.4851H65.3853C65.3815 69.2929 65.3315 69.1352 65.2354 69.0122C65.1393 68.8854 64.9894 68.8219 64.7856 68.8219ZM68.7348 68.2106C68.7771 68.2106 68.8271 68.2126 68.8848 68.2164C68.9425 68.2202 68.9886 68.226 69.0232 68.2337L68.9598 69.0411C68.9328 69.0334 68.8925 69.0276 68.8386 69.0238C68.7887 69.0161 68.7445 69.0122 68.706 69.0122C68.5599 69.0122 68.4196 69.0391 68.285 69.093C68.1505 69.1429 68.0409 69.2256 67.9563 69.3409C67.8756 69.4563 67.8352 69.6139 67.8352 69.8138V71.417H66.976V68.2683H67.6276L67.7545 68.7988H67.7949C67.8871 68.6374 68.014 68.499 68.1755 68.3836C68.3369 68.2683 68.5234 68.2106 68.7348 68.2106ZM70.4309 71.417L69.2314 68.2683H70.131L70.7365 70.0618C70.7711 70.1694 70.798 70.2809 70.8173 70.3963C70.8403 70.5116 70.8538 70.6154 70.8576 70.7077H70.8807C70.8922 70.5001 70.9345 70.2848 71.0076 70.0618L71.6131 68.2683H72.5127L71.3132 71.417H70.4309ZM73.4835 67.0342C73.6103 67.0342 73.7199 67.065 73.8122 67.1265C73.9045 67.1841 73.9506 67.2937 73.9506 67.4552C73.9506 67.6128 73.9045 67.7224 73.8122 67.7839C73.7199 67.8454 73.6103 67.8762 73.4835 67.8762C73.3528 67.8762 73.2413 67.8454 73.149 67.7839C73.0606 67.7224 73.0164 67.6128 73.0164 67.4552C73.0164 67.2937 73.0606 67.1841 73.149 67.1265C73.2413 67.065 73.3528 67.0342 73.4835 67.0342ZM73.9102 68.2683V71.417H73.051V68.2683H73.9102ZM76.1748 71.4747C75.7057 71.4747 75.3424 71.3459 75.0848 71.0883C74.8311 70.8269 74.7042 70.4174 74.7042 69.8599C74.7042 69.4755 74.7696 69.1622 74.9003 68.92C75.031 68.6777 75.2117 68.499 75.4424 68.3836C75.6769 68.2683 75.946 68.2106 76.2498 68.2106C76.465 68.2106 76.6515 68.2318 76.8091 68.2741C76.9706 68.3164 77.1109 68.3663 77.2301 68.424L76.9764 69.0872C76.8418 69.0334 76.7149 68.9892 76.5958 68.9546C76.4804 68.92 76.3651 68.9027 76.2498 68.9027C75.8038 68.9027 75.5808 69.2198 75.5808 69.8542C75.5808 70.1694 75.6385 70.402 75.7538 70.552C75.873 70.7019 76.0383 70.7769 76.2498 70.7769C76.4304 70.7769 76.59 70.7538 76.7284 70.7077C76.8668 70.6577 77.0014 70.5904 77.1321 70.5058V71.2382C77.0014 71.3228 76.863 71.3824 76.7169 71.417C76.5746 71.4554 76.3939 71.4747 76.1748 71.4747ZM76.7918 72.1205C76.7918 72.3358 76.7284 72.5031 76.6015 72.6223C76.4785 72.7414 76.2517 72.801 75.921 72.801C75.8365 72.801 75.7596 72.7953 75.6904 72.7837C75.625 72.7722 75.5654 72.7587 75.5116 72.7434V72.2705C75.5654 72.2859 75.6308 72.2993 75.7077 72.3109C75.7884 72.3224 75.8576 72.3282 75.9153 72.3282C75.9691 72.3282 76.0152 72.3147 76.0537 72.2878C76.096 72.2647 76.1171 72.2205 76.1171 72.1551C76.1171 72.0859 76.0825 72.0244 76.0133 71.9706C75.9441 71.9168 75.823 71.8764 75.65 71.8495L75.8691 71.417H76.4112L76.3363 71.59C76.4516 71.6284 76.5554 71.69 76.6477 71.7745C76.7438 71.863 76.7918 71.9783 76.7918 72.1205ZM80.8037 69.8369C80.8037 70.3597 80.6653 70.7634 80.3884 71.0479C80.1155 71.3324 79.7426 71.4747 79.2697 71.4747C78.9775 71.4747 78.7161 71.4112 78.4854 71.2844C78.2586 71.1575 78.0798 70.9729 77.9491 70.7307C77.8184 70.4847 77.753 70.1867 77.753 69.8369C77.753 69.314 77.8895 68.9123 78.1624 68.6316C78.4354 68.351 78.8103 68.2106 79.287 68.2106C79.583 68.2106 79.8444 68.2741 80.0713 68.4009C80.2981 68.5278 80.4769 68.7123 80.6076 68.9546C80.7383 69.1929 80.8037 69.487 80.8037 69.8369ZM78.6296 69.8369C78.6296 70.1483 78.6795 70.3847 78.7795 70.5462C78.8833 70.7038 79.0505 70.7826 79.2812 70.7826C79.508 70.7826 79.6714 70.7038 79.7714 70.5462C79.8752 70.3847 79.9271 70.1483 79.9271 69.8369C79.9271 69.5255 79.8752 69.2929 79.7714 69.1391C79.6714 68.9815 79.5061 68.9027 79.2754 68.9027C79.0486 68.9027 78.8833 68.9815 78.7795 69.1391C78.6795 69.2929 78.6296 69.5255 78.6296 69.8369ZM83.7975 70.4828C83.7975 70.8019 83.684 71.0479 83.4572 71.2209C83.2342 71.3901 82.8998 71.4747 82.4538 71.4747C82.2346 71.4747 82.0463 71.4593 81.8886 71.4285C81.731 71.4016 81.5734 71.3555 81.4158 71.2901V70.5808C81.5849 70.6577 81.7675 70.7211 81.9636 70.7711C82.1597 70.8211 82.3327 70.8461 82.4826 70.8461C82.6518 70.8461 82.771 70.8211 82.8402 70.7711C82.9132 70.7211 82.9497 70.6558 82.9497 70.575C82.9497 70.5212 82.9344 70.4732 82.9036 70.4309C82.8767 70.3886 82.8152 70.3405 82.7191 70.2867C82.6229 70.2329 82.473 70.1637 82.2692 70.0791C82.0732 69.9945 81.9117 69.9118 81.7848 69.8311C81.658 69.7465 81.5638 69.6466 81.5023 69.5312C81.4407 69.4121 81.41 69.264 81.41 69.0872C81.41 68.795 81.5234 68.5759 81.7502 68.4298C81.9771 68.2837 82.2789 68.2106 82.6556 68.2106C82.8517 68.2106 83.0382 68.2299 83.215 68.2683C83.3919 68.3067 83.5745 68.3702 83.7629 68.4586L83.5033 69.0757C83.3496 69.0103 83.2035 68.9565 83.0651 68.9142C82.9267 68.8681 82.7863 68.845 82.6441 68.845C82.3903 68.845 82.2635 68.9142 82.2635 69.0526C82.2635 69.1026 82.2789 69.1487 82.3096 69.191C82.3442 69.2294 82.4076 69.2717 82.4999 69.3179C82.596 69.364 82.7364 69.4255 82.9209 69.5024C83.1016 69.5754 83.2573 69.6523 83.388 69.7331C83.5187 69.81 83.6187 69.908 83.6879 70.0272C83.7609 70.1425 83.7975 70.2944 83.7975 70.4828Z" fill="black" fill-opacity="0.84"/>
</g>
<g clip-path="url(#clip0)">
<path d="M62.7305 33.5222C62.8145 29.5172 66.0983 26.2856 70.1228 26.2856H75.157C79.1815 26.2856 82.4654 29.5172 82.5494 33.5222H62.7305Z" fill="#85CBFB"/>
<path d="M82.341 33.3209H62.9389C63.1263 29.5207 66.2771 26.4868 70.1228 26.4868H75.157C79.0027 26.4868 82.1535 29.5207 82.341 33.3209Z" stroke="black" stroke-opacity="0.8" stroke-width="0.40249"/>
<mask id="path-31-inside-1" fill="white">
<path d="M75.157 26.4429C79.0418 26.4429 82.2216 29.52 82.387 33.3649H62.8928C63.0583 29.52 66.238 26.4429 70.1229 26.4429H75.157ZM75.157 26.1282H70.1229C65.9524 26.1282 62.5716 29.509 62.5716 33.6795H82.7083C82.7083 29.509 79.3275 26.1282 75.157 26.1282Z"/>
</mask>
<path d="M75.157 26.4429C79.0418 26.4429 82.2216 29.52 82.387 33.3649H62.8928C63.0583 29.52 66.238 26.4429 70.1229 26.4429H75.157ZM75.157 26.1282H70.1229C65.9524 26.1282 62.5716 29.509 62.5716 33.6795H82.7083C82.7083 29.509 79.3275 26.1282 75.157 26.1282Z" fill="black" fill-opacity="0.8"/>
<path d="M82.387 33.3649V33.7674H82.8072L82.7892 33.3476L82.387 33.3649ZM62.8928 33.3649L62.4907 33.3476L62.4727 33.7674H62.8928V33.3649ZM62.5716 33.6795H62.1691V34.082H62.5716V33.6795ZM82.7083 33.6795V34.082H83.1108V33.6795H82.7083ZM75.157 26.8454C78.8253 26.8454 81.8287 29.7516 81.9849 33.3822L82.7892 33.3476C82.6144 29.2884 79.2584 26.0404 75.157 26.0404V26.8454ZM82.387 32.9624H62.8928V33.7674H82.387V32.9624ZM63.295 33.3822C63.4512 29.7516 66.4546 26.8454 70.1229 26.8454V26.0404C66.0215 26.0404 62.6654 29.2884 62.4907 33.3476L63.295 33.3822ZM70.1229 26.8454H75.157V26.0404H70.1229V26.8454ZM75.157 25.7257H70.1229V26.5307H75.157V25.7257ZM70.1229 25.7257C65.7301 25.7257 62.1691 29.2867 62.1691 33.6795H62.9741C62.9741 29.7313 66.1746 26.5307 70.1229 26.5307V25.7257ZM62.5716 34.082H82.7083V33.277H62.5716V34.082ZM83.1108 33.6795C83.1108 29.2867 79.5498 25.7257 75.157 25.7257V26.5307C79.1052 26.5307 82.3058 29.7313 82.3058 33.6795H83.1108Z" fill="black" fill-opacity="0.8" mask="url(#path-31-inside-1)"/>
<path d="M72.6399 28.4881C70.6794 28.4881 69.7793 26.991 69.6509 26.7576V23.1393H75.629V26.7579C75.4981 27.0017 74.6187 28.4881 72.6399 28.4881Z" fill="#E8D47B"/>
<path d="M72.6399 28.2868C70.8921 28.2868 70.0388 27.0225 69.8521 26.7043V23.3405H75.4277V26.7058C75.2437 27.0271 74.4083 28.2868 72.6399 28.2868Z" stroke="black" stroke-opacity="0.8" stroke-width="0.40249"/>
<mask id="path-35-inside-2" fill="white">
<path d="M75.4716 23.2966V26.7173C75.2989 27.0218 74.4512 28.3307 72.6399 28.3307C70.8276 28.3307 69.98 27.0203 69.8082 26.7176V23.2966H75.4716ZM75.7862 22.9819H69.4935V26.7966C69.4935 26.7966 70.4016 28.6454 72.6399 28.6454C74.8782 28.6454 75.7862 26.7966 75.7862 26.7966V22.9819Z"/>
</mask>
<path d="M75.4716 23.2966V26.7173C75.2989 27.0218 74.4512 28.3307 72.6399 28.3307C70.8276 28.3307 69.98 27.0203 69.8082 26.7176V23.2966H75.4716ZM75.7862 22.9819H69.4935V26.7966C69.4935 26.7966 70.4016 28.6454 72.6399 28.6454C74.8782 28.6454 75.7862 26.7966 75.7862 26.7966V22.9819Z" fill="#BA9B48"/>
<path d="M75.4716 23.2966H75.8741V22.8941H75.4716V23.2966ZM75.4716 26.7173L75.8217 26.9158L75.8741 26.8235V26.7173H75.4716ZM69.8082 26.7176H69.4057V26.8238L69.4581 26.9163L69.8082 26.7176ZM69.8082 23.2966V22.8941H69.4057V23.2966H69.8082ZM75.7862 22.9819H76.1887V22.5794H75.7862V22.9819ZM69.4935 22.9819V22.5794H69.091V22.9819H69.4935ZM69.4935 26.7966H69.091V26.8901L69.1323 26.974L69.4935 26.7966ZM75.7862 26.7966L76.1475 26.974L76.1887 26.8901V26.7966H75.7862ZM75.0691 23.2966V26.7173H75.8741V23.2966H75.0691ZM75.1215 26.5187C74.9709 26.7842 74.2284 27.9282 72.6399 27.9282V28.7332C74.6741 28.7332 75.6268 27.2595 75.8217 26.9158L75.1215 26.5187ZM72.6399 27.9282C71.0506 27.9282 70.308 26.7828 70.1582 26.5189L69.4581 26.9163C69.6519 27.2577 70.6046 28.7332 72.6399 28.7332V27.9282ZM70.2107 26.7176V23.2966H69.4057V26.7176H70.2107ZM69.8082 23.699H75.4716V22.8941H69.8082V23.699ZM75.7862 22.5794H69.4935V23.3844H75.7862V22.5794ZM69.091 22.9819V26.7966H69.896V22.9819H69.091ZM69.4935 26.7966C69.1323 26.974 69.1324 26.9742 69.1324 26.9744C69.1325 26.9744 69.1326 26.9746 69.1326 26.9748C69.1328 26.9751 69.1329 26.9754 69.1331 26.9757C69.1335 26.9764 69.1339 26.9772 69.1343 26.9781C69.1352 26.9799 69.1364 26.9822 69.1377 26.9849C69.1405 26.9903 69.1442 26.9975 69.1489 27.0062C69.1582 27.0237 69.1713 27.0477 69.1884 27.0773C69.2225 27.1364 69.2726 27.2181 69.3396 27.3147C69.4731 27.5074 69.6759 27.7628 69.9561 28.0184C70.5195 28.5322 71.3989 29.0479 72.6399 29.0479V28.2429C71.6425 28.2429 70.9488 27.8342 70.4986 27.4236C70.2719 27.2169 70.1078 27.0101 70.0012 26.8562C69.9481 26.7795 69.9097 26.7167 69.8854 26.6747C69.8733 26.6537 69.8648 26.638 69.8597 26.6284C69.8571 26.6236 69.8555 26.6204 69.8547 26.6188C69.8543 26.618 69.8541 26.6176 69.8541 26.6177C69.8541 26.6177 69.8542 26.6178 69.8543 26.6181C69.8543 26.6182 69.8544 26.6183 69.8545 26.6185C69.8545 26.6186 69.8546 26.6188 69.8546 26.6188C69.8547 26.619 69.8548 26.6191 69.4935 26.7966ZM72.6399 29.0479C73.8809 29.0479 74.7603 28.5322 75.3237 28.0184C75.6038 27.7628 75.8066 27.5074 75.9402 27.3147C76.0072 27.2181 76.0572 27.1364 76.0914 27.0773C76.1085 27.0477 76.1216 27.0237 76.1309 27.0062C76.1356 26.9975 76.1393 26.9903 76.142 26.9849C76.1434 26.9822 76.1446 26.9799 76.1455 26.9781C76.1459 26.9772 76.1463 26.9764 76.1467 26.9757C76.1468 26.9754 76.147 26.9751 76.1471 26.9748C76.1472 26.9746 76.1473 26.9744 76.1473 26.9744C76.1474 26.9742 76.1475 26.974 75.7862 26.7966C75.425 26.6191 75.4251 26.619 75.4251 26.6188C75.4252 26.6188 75.4252 26.6186 75.4253 26.6185C75.4254 26.6183 75.4254 26.6182 75.4255 26.6181C75.4256 26.6178 75.4257 26.6177 75.4257 26.6177C75.4257 26.6176 75.4255 26.618 75.4251 26.6188C75.4243 26.6204 75.4226 26.6236 75.4201 26.6284C75.415 26.638 75.4065 26.6537 75.3943 26.6747C75.3701 26.7167 75.3317 26.7795 75.2786 26.8562C75.1719 27.0101 75.0078 27.2169 74.7812 27.4236C74.331 27.8342 73.6372 28.2429 72.6399 28.2429V29.0479ZM76.1887 26.7966V22.9819H75.3838V26.7966H76.1887Z" fill="black" fill-opacity="0.8" mask="url(#path-35-inside-2)"/>
<path d="M77.1349 21.3864C76.2303 21.3864 75.4944 20.6505 75.4944 19.7459C75.4944 18.8413 76.2303 18.1054 77.1349 18.1054C78.3003 18.1054 78.7754 18.4071 78.7754 19.1468C78.7754 20.0309 78.0404 21.3864 77.1349 21.3864ZM68.1451 21.3864C67.2396 21.3864 66.5046 20.0309 66.5046 19.1465C66.5046 18.4068 66.98 18.1051 68.1451 18.1051C69.0497 18.1051 69.7856 18.841 69.7856 19.7456C69.7856 20.6501 69.0497 21.3864 68.1451 21.3864Z" fill="#E8D47B"/>
<path d="M77.1349 21.2858C76.2859 21.2858 75.595 20.5949 75.595 19.7459C75.595 18.8969 76.2859 18.206 77.1349 18.206C77.7137 18.206 78.0992 18.2819 78.3382 18.4337C78.5663 18.5785 78.6748 18.8018 78.6748 19.1468C78.6748 19.5655 78.499 20.1064 78.2107 20.5427C77.9203 20.9822 77.5366 21.2858 77.1349 21.2858ZM68.1451 21.2858C67.7434 21.2858 67.3596 20.9822 67.0692 20.5426C66.781 20.1064 66.6052 19.5654 66.6052 19.1465C66.6052 18.8015 66.7137 18.5782 66.9418 18.4333C67.1809 18.2816 67.5664 18.2057 68.1451 18.2057C68.9941 18.2057 69.685 18.8966 69.685 19.7456C69.685 20.5946 68.9941 21.2858 68.1451 21.2858Z" stroke="black" stroke-opacity="0.8" stroke-width="0.201245"/>
<path d="M77.1348 18.2624C78.3698 18.2624 78.618 18.6006 78.618 19.1465C78.618 20.0366 77.8846 21.2291 77.1348 21.2291C76.3171 21.2291 75.6516 20.5636 75.6516 19.7459C75.6513 18.9278 76.3168 18.2624 77.1348 18.2624ZM68.1451 18.2624C68.9628 18.2624 69.6283 18.9278 69.6283 19.7456C69.6283 20.5633 68.9628 21.2288 68.1451 21.2288C67.395 21.2288 66.6619 20.0363 66.6619 19.1462C66.6619 18.6006 66.9101 18.2624 68.1451 18.2624ZM77.1348 17.9477C76.1418 17.9477 75.337 18.7526 75.337 19.7456C75.337 20.7386 76.1418 21.5434 77.1348 21.5434C78.1278 21.5434 78.9327 20.1392 78.9327 19.1462C78.9327 18.1532 78.1278 17.9477 77.1348 17.9477ZM68.1451 17.9477C67.1521 17.9477 66.3472 18.1535 66.3472 19.1465C66.3472 20.1395 67.1521 21.5437 68.1451 21.5437C69.138 21.5437 69.9429 20.7389 69.9429 19.7459C69.9432 18.7526 69.138 17.9477 68.1451 17.9477Z" fill="#BA9B48"/>
<path d="M78.3976 18.4175C78.6522 18.5973 78.7187 18.8581 78.7187 19.1465C78.7187 19.6156 78.5268 20.1556 78.2409 20.578C77.9583 20.9956 77.5612 21.3297 77.1348 21.3297C76.2615 21.3297 75.551 20.6192 75.551 19.7459L78.3976 18.4175ZM78.3976 18.4175C78.154 18.2456 77.7557 18.1618 77.1348 18.1618M78.3976 18.4175L77.1348 18.1618M77.1348 18.1618C76.2612 18.1618 75.5507 18.8722 75.551 19.7459L77.1348 18.1618ZM69.8423 19.7459V19.7459C69.8423 20.6833 69.0825 21.4431 68.1451 21.4431C67.6972 21.4431 67.2743 21.1243 66.9568 20.6606C66.641 20.1994 66.4479 19.6196 66.4479 19.1465C66.4479 18.9119 66.4953 18.731 66.5758 18.5903C66.6561 18.45 66.7729 18.3435 66.9216 18.2633C67.2235 18.1004 67.6512 18.0484 68.1451 18.0484C69.0825 18.0484 69.8426 18.8082 69.8423 19.7459ZM69.7289 19.7456C69.7289 18.8723 69.0184 18.1618 68.1451 18.1618C67.5241 18.1618 67.1259 18.2456 66.8823 18.4175C66.6277 18.5972 66.5612 18.858 66.5612 19.1462C66.5612 19.6153 66.753 20.1553 67.0388 20.5777C67.3215 20.9953 67.7185 21.3294 68.1451 21.3294C69.0184 21.3294 69.7289 20.6189 69.7289 19.7456ZM75.4376 19.7456C75.4376 18.8081 76.1974 18.0484 77.1348 18.0484C77.6288 18.0484 78.0565 18.1003 78.3584 18.2632C78.507 18.3434 78.6238 18.4497 78.7041 18.59C78.7846 18.7307 78.832 18.9116 78.832 19.1462C78.832 19.6192 78.6389 20.1991 78.3231 20.6603C78.0056 21.124 77.5826 21.4428 77.1348 21.4428C76.1974 21.4428 75.4376 20.683 75.4376 19.7456Z" stroke="black" stroke-opacity="0.8" stroke-width="0.201245"/>
<path d="M72.6399 25.971C72.2174 25.971 71.8096 25.8152 71.4921 25.5327L71.4635 25.5072L71.4264 25.4978C69.2695 24.9443 67.7631 23.0043 67.7631 20.7795V14.9282C67.7631 13.692 68.7686 12.6864 70.0048 12.6864H75.2747C76.5109 12.6864 77.5165 13.692 77.5165 14.9282V20.7795C77.5165 23.0043 76.01 24.9443 73.8532 25.4978L73.816 25.5072L73.7874 25.5327C73.4702 25.8152 73.0625 25.971 72.6399 25.971Z" fill="#FFEEA3"/>
<path d="M71.5606 25.3243L71.5973 25.3569L71.6259 25.3824C71.6259 25.3824 71.6259 25.3824 71.6259 25.3824C71.9068 25.6323 72.267 25.7697 72.6399 25.7697C73.0128 25.7697 73.373 25.6323 73.6535 25.3824L73.6536 25.3824L73.6822 25.3569L73.7189 25.3243L73.7664 25.3122L73.8031 25.3028L71.5606 25.3243ZM71.5606 25.3243L71.5131 25.3122M71.5606 25.3243L71.5131 25.3122M71.5131 25.3122L71.4764 25.3028M71.5131 25.3122L71.4764 25.3028M71.4764 25.3028L71.476 25.3027C69.4082 24.7719 67.9643 22.9121 67.9643 20.7795V14.9282C67.9643 13.8032 68.8798 12.8877 70.0048 12.8877H75.2747C76.3997 12.8877 77.3152 13.8032 77.3152 14.9282V20.7795C77.3152 22.9121 75.8713 24.7719 73.8036 25.3027L71.4764 25.3028Z" stroke="black" stroke-opacity="0.8" stroke-width="0.40249"/>
<mask id="path-43-inside-3" fill="white">
<path d="M75.275 12.8437C76.4243 12.8437 77.3594 13.7788 77.3594 14.9282V20.7795C77.3594 22.9322 75.9017 24.81 73.8141 25.3455L73.7402 25.3644L73.6832 25.415C73.3944 25.6721 73.0237 25.8137 72.6399 25.8137C72.256 25.8137 71.8854 25.6721 71.5966 25.415L71.5396 25.3644L71.4657 25.3455C69.3781 24.81 67.9203 22.9322 67.9203 20.7795V14.9282C67.9203 13.7788 68.8554 12.8437 70.0048 12.8437H75.275ZM75.275 12.5291H70.0048C68.6799 12.5291 67.6057 13.6033 67.6057 14.9282V20.7795C67.6057 23.1267 69.2141 25.0925 71.3873 25.65C71.7208 25.9467 72.1585 26.1283 72.6399 26.1283C73.1213 26.1283 73.5589 25.9467 73.8925 25.65C76.0656 25.0925 77.6741 23.1267 77.6741 20.7795V14.9282C77.6741 13.6033 76.5999 12.5291 75.275 12.5291Z"/>
</mask>
<path d="M75.275 12.8437C76.4243 12.8437 77.3594 13.7788 77.3594 14.9282V20.7795C77.3594 22.9322 75.9017 24.81 73.8141 25.3455L73.7402 25.3644L73.6832 25.415C73.3944 25.6721 73.0237 25.8137 72.6399 25.8137C72.256 25.8137 71.8854 25.6721 71.5966 25.415L71.5396 25.3644L71.4657 25.3455C69.3781 24.81 67.9203 22.9322 67.9203 20.7795V14.9282C67.9203 13.7788 68.8554 12.8437 70.0048 12.8437H75.275ZM75.275 12.5291H70.0048C68.6799 12.5291 67.6057 13.6033 67.6057 14.9282V20.7795C67.6057 23.1267 69.2141 25.0925 71.3873 25.65C71.7208 25.9467 72.1585 26.1283 72.6399 26.1283C73.1213 26.1283 73.5589 25.9467 73.8925 25.65C76.0656 25.0925 77.6741 23.1267 77.6741 20.7795V14.9282C77.6741 13.6033 76.5999 12.5291 75.275 12.5291Z" fill="#BA9B48"/>
<path d="M73.8141 25.3455L73.9137 25.7355L73.9141 25.7353L73.8141 25.3455ZM73.7402 25.3644L73.6406 24.9744L73.5458 24.9986L73.4727 25.0636L73.7402 25.3644ZM73.6832 25.415L73.4157 25.1143L73.4156 25.1144L73.6832 25.415ZM71.5966 25.415L71.8641 25.1144L71.8641 25.1143L71.5966 25.415ZM71.5396 25.3644L71.8071 25.0636L71.734 24.9986L71.6392 24.9744L71.5396 25.3644ZM71.4657 25.3455L71.3657 25.7353L71.3661 25.7355L71.4657 25.3455ZM71.3873 25.65L71.6548 25.3493L71.5819 25.2844L71.4873 25.2602L71.3873 25.65ZM73.8925 25.65L73.7924 25.2602L73.6979 25.2844L73.6249 25.3493L73.8925 25.65ZM75.275 13.2462C76.202 13.2462 76.9569 14.0011 76.9569 14.9282H77.7619C77.7619 13.5565 76.6466 12.4412 75.275 12.4412V13.2462ZM76.9569 14.9282V20.7795H77.7619V14.9282H76.9569ZM76.9569 20.7795C76.9569 22.7482 75.6239 24.4657 73.7141 24.9556L73.9141 25.7353C76.1795 25.1542 77.7619 23.1162 77.7619 20.7795H76.9569ZM73.7145 24.9555L73.6406 24.9744L73.8397 25.7543L73.9137 25.7355L73.7145 24.9555ZM73.4727 25.0636L73.4157 25.1143L73.9507 25.7157L74.0077 25.6651L73.4727 25.0636ZM73.4156 25.1144C73.1999 25.3063 72.9243 25.4112 72.6399 25.4112V26.2161C73.1232 26.2161 73.5888 26.0378 73.9508 25.7157L73.4156 25.1144ZM72.6399 25.4112C72.3555 25.4112 72.0798 25.3063 71.8641 25.1144L71.329 25.7157C71.6909 26.0378 72.1566 26.2161 72.6399 26.2161V25.4112ZM71.8641 25.1143L71.8071 25.0636L71.2721 25.6651L71.329 25.7157L71.8641 25.1143ZM71.6392 24.9744L71.5652 24.9555L71.3661 25.7355L71.44 25.7543L71.6392 24.9744ZM71.5657 24.9556C69.6558 24.4657 68.3228 22.7482 68.3228 20.7795H67.5179C67.5179 23.1162 69.1003 25.1542 71.3657 25.7353L71.5657 24.9556ZM68.3228 20.7795V14.9282H67.5179V20.7795H68.3228ZM68.3228 14.9282C68.3228 14.0011 69.0777 13.2462 70.0048 13.2462V12.4412C68.6332 12.4412 67.5179 13.5565 67.5179 14.9282H68.3228ZM70.0048 13.2462H75.275V12.4412H70.0048V13.2462ZM75.275 12.1266H70.0048V12.9316H75.275V12.1266ZM70.0048 12.1266C68.4576 12.1266 67.2032 13.381 67.2032 14.9282H68.0082C68.0082 13.8256 68.9022 12.9316 70.0048 12.9316V12.1266ZM67.2032 14.9282V20.7795H68.0082V14.9282H67.2032ZM67.2032 20.7795C67.2032 23.3157 68.9413 25.438 71.2873 26.0399L71.4873 25.2602C69.487 24.747 68.0082 22.9376 68.0082 20.7795H67.2032ZM71.1198 25.9508C71.5233 26.3097 72.055 26.5308 72.6399 26.5308V25.7258C72.262 25.7258 71.9184 25.5838 71.6548 25.3493L71.1198 25.9508ZM72.6399 26.5308C73.2248 26.5308 73.7565 26.3097 74.16 25.9508L73.6249 25.3493C73.3614 25.5838 73.0177 25.7258 72.6399 25.7258V26.5308ZM73.9925 26.0399C76.3385 25.438 78.0766 23.3157 78.0766 20.7795H77.2716C77.2716 22.9376 75.7928 24.747 73.7924 25.2602L73.9925 26.0399ZM78.0766 20.7795V14.9282H77.2716V20.7795H78.0766ZM78.0766 14.9282C78.0766 13.381 76.8222 12.1266 75.275 12.1266V12.9316C76.3776 12.9316 77.2716 13.8256 77.2716 14.9282H78.0766Z" fill="black" fill-opacity="0.8" mask="url(#path-43-inside-3)"/>
<path d="M77.5168 20.3075V17.9477C77.5168 15.739 75.3679 14.561 75.2763 14.5119L75.1542 14.4464L75.0737 14.5594C75.0605 14.5783 73.7003 16.4419 70.8462 16.4419C68.8005 16.4419 67.7628 17.1602 67.7628 18.577V20.3075H67.7059C67.49 19.8333 66.5043 17.5595 66.5043 15.6266C66.5046 12.216 68.8439 9.9245 72.3254 9.9245C74.8541 9.9245 75.6105 11.6427 75.6413 11.716L75.6819 11.812L75.7863 11.8123C76.8964 11.8123 78.7754 12.5763 78.7754 15.4401C78.7754 17.2093 77.7802 19.7798 77.5684 20.3075H77.5168Z" fill="#DBDBDB"/>
<path d="M77.7181 19.3328C77.8253 19.0268 77.9442 18.6679 78.0584 18.2822C78.3324 17.3566 78.5741 16.2945 78.5741 15.4401C78.5741 14.0557 78.122 13.2066 77.5623 12.7017C76.997 12.1917 76.3006 12.0136 75.7863 12.0136H75.7857L75.6813 12.0132L75.5483 12.0128L75.4965 11.8904L75.456 11.7944L75.4558 11.7941C75.4393 11.7549 74.7367 10.1257 72.3254 10.1257C70.6295 10.1257 69.2274 10.6831 68.2502 11.6403C67.2733 12.5973 66.7057 13.9687 66.7055 15.6266L77.7181 19.3328ZM77.7181 19.3328V17.9477C77.7181 16.7737 77.1463 15.8799 76.5767 15.2812C76.0075 14.6829 75.4268 14.3642 75.3714 14.3345L75.2493 14.2691L75.0932 14.1854L74.9904 14.3296L74.9098 14.4426L74.9098 14.4426L74.9088 14.444C74.9089 14.444 74.9088 14.444 74.9087 14.4442C74.8912 14.4678 73.5829 16.2406 70.8462 16.2406C69.8058 16.2406 68.9867 16.4222 68.4228 16.8127C67.8459 17.2122 67.5616 17.8123 67.5616 18.577V19.4391C67.2006 18.504 66.7055 16.9749 66.7055 15.6267L77.7181 19.3328Z" stroke="black" stroke-opacity="0.8" stroke-width="0.40249"/>
<path d="M72.3253 10.0818C74.7411 10.0818 75.467 11.7085 75.4959 11.7761L75.5768 11.9696H75.7863C76.0761 11.9696 78.618 12.0672 78.618 15.4401C78.618 16.7735 78.0391 18.5811 77.6741 19.5873V17.9477C77.6741 15.6458 75.4456 14.4241 75.3509 14.3731L75.1057 14.2416L74.9453 14.4685C74.9324 14.4867 73.6279 16.2842 70.8465 16.2842C69.368 16.2845 67.6058 16.6823 67.6058 18.577V19.6703C67.2433 18.7689 66.6619 17.0941 66.6619 15.6266C66.6619 12.3101 68.9379 10.0818 72.3253 10.0818ZM72.3253 9.76718C68.6636 9.76718 66.3472 12.2723 66.3472 15.6266C66.3472 17.8483 67.6058 20.4648 67.6058 20.4648H67.9204C67.9204 20.4648 67.9204 19.1883 67.9204 18.577C67.9204 16.8981 69.5087 16.5992 70.8465 16.5992C73.823 16.5992 75.202 14.6506 75.202 14.6506C75.202 14.6506 77.3595 15.8076 77.3595 17.9477C77.3595 18.6201 77.3595 20.4648 77.3595 20.4648H77.6741C77.6741 20.4648 78.9327 17.4647 78.9327 15.4401C78.9327 12.5973 77.1226 11.655 75.7863 11.655C75.7863 11.655 74.9978 9.76718 72.3253 9.76718Z" fill="black" fill-opacity="0.8"/>
<path d="M74.9453 14.4685L75.038 14.5341L75.038 14.5341L75.0379 14.5342L75.0379 14.5342L75.0378 14.5344L75.0377 14.5345L75.0356 14.5373L75.0255 14.5509C75.0161 14.5633 75.0013 14.5824 74.9811 14.6071C74.9407 14.6565 74.8788 14.7285 74.795 14.8156C74.6273 14.9898 74.3725 15.2239 74.0273 15.4585C73.3382 15.9268 72.2881 16.3979 70.8465 16.3979L75.1093 14.585L75.202 14.6506M74.9453 14.4685L75.038 14.534L75.0895 14.4613L75.0106 14.4189L75.1057 14.2416M74.9453 14.4685C74.9324 14.4867 73.6279 16.2842 70.8465 16.2842C69.368 16.2845 67.6058 16.6823 67.6058 18.577V19.1091L75.2557 14.5505M74.9453 14.4685L75.1057 14.2416M75.1057 14.2416L75.27 14.3578L75.2183 14.431L75.297 14.4732L75.3509 14.3731M75.1057 14.2416L75.3509 14.3731M75.3509 14.3731L75.2971 14.4733L75.2971 14.4733L75.2557 14.5505M75.3509 14.3731C75.4456 14.4241 77.6741 15.6458 77.6741 17.9477V18.9767C77.6354 19.092 77.5974 19.2023 77.5607 19.3066V19.3032V19.2966V19.2901V19.2835V19.277V19.2704V19.2639V19.2573V19.2507V19.2442V19.2376V19.231V19.2244V19.2179V19.2113V19.2047V19.1981V19.1915V19.1849V19.1783V19.1717V19.1651V19.1585V19.1519V19.1453V19.1387V19.1321V19.1255V19.1189V19.1123V19.1057V19.0991V19.0925V19.0859V19.0793V19.0727V19.066V19.0594V19.0528V19.0462V19.0396V19.033V19.0264V19.0198V19.0132V19.0066V19V18.9934V18.9868V18.9802V18.9736V18.967V18.9605V18.9539V18.9473V18.9407V18.9341V18.9276V18.921V18.9144V18.9079V18.9013V18.8948V18.8882V18.8817V18.8751V18.8686V18.862V18.8555V18.849V18.8425V18.836V18.8295V18.8229V18.8165V18.81V18.8035V18.797V18.7905V18.784V18.7776V18.7711V18.7647V18.7582V18.7518V18.7454V18.7389V18.7325V18.7261V18.7197V18.7133V18.7069V18.7006V18.6942V18.6878V18.6815V18.6751V18.6688V18.6625V18.6561V18.6498V18.6435V18.6372V18.6309V18.6247V18.6184V18.6122V18.6059V18.5997V18.5934V18.5872V18.581V18.5748V18.5686V18.5625V18.5563V18.5502V18.544V18.5379V18.5318V18.5257V18.5196V18.5135V18.5074V18.5014V18.4953V18.4893V18.4833V18.4773V18.4713V18.4653V18.4593V18.4534V18.4474V18.4415V18.4356V18.4297V18.4238V18.4179V18.4121V18.4062V18.4004V18.3946V18.3888V18.383V18.3772V18.3715V18.3657V18.36V18.3543V18.3486V18.3429V18.3372V18.3316V18.326V18.3204V18.3148V18.3092V18.3036V18.2981V18.2925V18.287V18.2815V18.276V18.2706V18.2651V18.2597V18.2543V18.2489V18.2435V18.2382V18.2329V18.2275V18.2222V18.217V18.2117V18.2065V18.2012V18.196V18.1909V18.1857V18.1806V18.1754V18.1703V18.1652V18.1602V18.1551V18.1501V18.1451V18.1401V18.1352V18.1302V18.1253V18.1204V18.1156V18.1107V18.1059V18.1011V18.0963V18.0915V18.0868V18.0821V18.0774V18.0727V18.0681V18.0634V18.0588V18.0542V18.0497V18.0452V18.0406V18.0362V18.0317V18.0273V18.0228V18.0185V18.0141V18.0098V18.0054V18.0012V17.9969V17.9926V17.9884V17.9842V17.9801V17.9759V17.9718V17.9677V17.9637V17.9597V17.9556V17.9517V17.9477C77.5607 16.8059 76.9848 15.9341 76.4253 15.3566C76.1447 15.067 75.8647 14.8474 75.6547 14.7001C75.5496 14.6263 75.4615 14.5704 75.3992 14.5325C75.368 14.5136 75.3432 14.4992 75.3258 14.4893L75.3055 14.4779L75.2998 14.4747L75.2981 14.4738L75.2975 14.4735L75.2973 14.4734C75.2972 14.4733 75.2972 14.4733 75.2557 14.5505M75.2557 14.5505C75.2556 14.5504 75.2556 14.5504 75.2555 14.5503L75.1673 14.503L75.1096 14.5846C75.1095 14.5848 75.1094 14.5849 75.1093 14.585C75.1322 14.6012 75.1623 14.6225 75.202 14.6506M75.2557 14.5505C75.2557 14.5505 75.2557 14.5505 75.2557 14.5505M75.2557 14.5505L75.202 14.6506M75.202 14.6506C75.202 14.6506 73.823 16.5992 70.8465 16.5992C69.5087 16.5992 67.9204 16.8981 67.9204 18.577V20.2636H67.7344L75.2557 14.5505M75.202 14.6506C75.202 14.6506 77.3595 15.8076 77.3595 17.9477V20.2636H77.5388C77.5396 20.2615 77.5405 20.2593 77.5414 20.2572C77.5474 20.2422 77.5538 20.2259 77.5607 20.2085M75.202 14.6506C75.2251 14.6077 75.2425 14.5752 75.2557 14.5505M75.2557 14.5505C75.2961 14.5722 75.8549 14.8784 76.402 15.4549C76.95 16.0323 77.4729 16.8661 77.4729 17.9477V19.5873L77.5607 19.6027M77.5607 19.6027V19.603V19.6092V19.6154V19.6215V19.6277V19.6338V19.6399V19.646V19.6521V19.6582V19.6643V19.6703V19.6764V19.6824V19.6884V19.6944V19.7004V19.7064V19.7123V19.7183V19.7242V19.7302V19.7361V19.742V19.7479V19.7537V19.7596V19.7654V19.7713V19.7771V19.7829V19.7887V19.7944V19.8002V19.8059V19.8117V19.8174V19.8231V19.8287V19.8344V19.84V19.8457V19.8513V19.8569V19.8625V19.868V19.8736V19.8791V19.8846V19.8901V19.8956V19.901V19.9065V19.9119V19.9173V19.9227V19.9281V19.9334V19.9387V19.9441V19.9494V19.9546V19.9599V19.9651V19.9704V19.9756V19.9807V19.9859V19.991V19.9962V20.0013V20.0063V20.0114V20.0164V20.0215V20.0265V20.0314V20.0364V20.0413V20.0462V20.0511V20.056V20.0608V20.0657V20.0705V20.0753V20.08V20.0848V20.0895V20.0942V20.0988V20.1035V20.1081V20.1127V20.1173V20.1218V20.1264V20.1309V20.1354V20.1398V20.1443V20.1487V20.1531V20.1574V20.1617V20.1661V20.1703V20.1746V20.1788V20.1831V20.1872V20.1914V20.1955V20.1996V20.2037V20.2078V20.2085M77.5607 19.6027L77.7761 19.6406M77.5607 19.6027V19.5969V19.5907V19.5873V19.5845V19.5783V19.572V19.5658V19.5596V19.5533V19.547V19.5462L77.6741 19.5873L77.7761 19.6406M77.5607 20.2085V20.2118V20.2158V20.2198V20.2237V20.2277V20.2316V20.2354V20.2393V20.2431V20.2469V20.2506V20.2544V20.2581V20.2618V20.2636M77.5607 20.2085C77.5928 20.1275 77.6343 20.021 77.6825 19.8934C77.7115 19.8165 77.7429 19.7319 77.7761 19.6406M77.3595 20.4648H77.6741M77.3595 20.4648L75.6817 11.6987C75.7075 11.6879 75.7415 11.6737 75.7863 11.655C77.1226 11.655 78.9327 12.5973 78.9327 15.4401C78.9327 17.4647 77.6741 20.4648 77.6741 20.4648M77.3595 20.4648L77.5607 20.4648V20.4647V20.4646V20.4645V20.4643V20.464V20.4638V20.4635V20.4631V20.4627V20.4623V20.4618V20.4613V20.4607V20.4601V20.4595V20.4588V20.4581V20.4573V20.4565V20.4557V20.4548V20.4539V20.453V20.452V20.4509V20.4499V20.4487V20.4476V20.4464V20.4452V20.4439V20.4426V20.4413V20.4399V20.4385V20.437V20.4356V20.434V20.4325V20.4309V20.4292V20.4276V20.4258V20.4241V20.4223V20.4205V20.4186V20.4172L77.6741 20.4648M77.3595 20.4648L77.5607 20.2636M77.6741 20.4648V20.2636H77.5607M77.5607 20.2636L75.7863 11.7684C75.9472 11.7684 76.7021 11.7943 77.4222 12.2724C78.1567 12.7601 78.8193 13.6946 78.8193 15.4401C78.8193 16.8132 78.2276 18.6515 77.8633 19.6559L77.7761 19.6406M67.5946 19.9431C67.5671 19.8778 67.5374 19.8061 67.506 19.7286L67.7192 19.6873V19.6893V19.694V19.6988V19.7035V19.7082V19.7128V19.7175V19.7222V19.7269V19.7316V19.7362V19.7409V19.7455V19.7501V19.7548V19.7594V19.764V19.7686V19.7732V19.7778V19.7824V19.787V19.7916V19.7961V19.8007V19.8052V19.8098V19.8143V19.8188V19.8234V19.8279V19.8324V19.8369V19.8413V19.8458V19.8503V19.8547V19.8592V19.8636V19.868V19.8725V19.8769V19.8813V19.8857V19.89V19.8944V19.8988V19.9031V19.9075V19.9118V19.9161V19.9204V19.9247V19.929V19.9333V19.9376V19.9418V19.9461V19.9503V19.9546V19.9588V19.963V19.9672V19.9714V19.9755V19.9797V19.9838V19.988V19.9921V19.9962V20.0003V20.0044V20.0085V20.0125V20.0166V20.0206V20.0247V20.0287V20.0327V20.0367V20.0407V20.0446V20.0486V20.0525V20.0564V20.0603V20.0642V20.0681V20.072V20.0759V20.0797V20.0835V20.0874V20.0912V20.095V20.0987V20.1025V20.1062V20.11V20.1137V20.1174V20.1211V20.1248V20.1284V20.1321V20.1357V20.1393V20.1429V20.1465V20.1501V20.1536V20.1572V20.1607V20.1642V20.1677V20.1712V20.1747V20.1781V20.1815V20.1849V20.1883V20.1917V20.1951V20.1984V20.2018V20.2051V20.2084V20.2117V20.2149V20.2182V20.2214V20.2246V20.2278V20.2299C67.6868 20.1578 67.6442 20.061 67.5946 19.9431ZM67.6058 20.4648H67.9204H67.6058Z" stroke="black" stroke-opacity="0.8" stroke-width="0.40249"/>
</g>
<g clip-path="url(#clip1)" filter="url(#filter0_d)">
<path d="M87.3788 26.808C87.1727 26.808 87.0057 26.6238 87.0057 26.3966C87.0057 26.1695 87.1727 25.9853 87.3788 25.9853C87.5848 25.9853 87.7518 26.1695 87.7518 26.3966C87.7518 26.6238 87.5848 26.808 87.3788 26.808Z" fill="black" fill-opacity="0.8"/>
<path d="M84.0212 14.605C84.0212 13.2887 84.6678 12.0547 85.7 11.3966L85.7622 11.3692H86.1974V14.4816C86.8938 15.0712 87.8638 15.0712 88.5602 14.4816V11.3692H88.9955L89.0576 11.4103C90.0898 12.0547 90.7365 13.2887 90.7365 14.605C90.7365 14.6599 90.7365 14.7284 90.7365 14.7833C90.7365 14.8107 90.7365 14.8244 90.7365 14.8518C90.7365 14.893 90.7365 14.9204 90.724 14.9615C90.724 14.9889 90.724 15.0164 90.7116 15.0438C90.7116 15.0712 90.6991 15.1123 90.6991 15.1398C90.6991 15.1672 90.6867 15.1946 90.6867 15.2357C90.6867 15.2632 90.6743 15.2906 90.6743 15.318C90.6743 15.3454 90.6618 15.3866 90.6494 15.414C90.6494 15.4414 90.637 15.4688 90.637 15.4962C90.6245 15.5237 90.6245 15.5648 90.6121 15.5922C90.6121 15.6196 90.5997 15.6334 90.5997 15.6608C90.5872 15.7019 90.5748 15.7293 90.5748 15.7705C90.5624 15.7842 90.5624 15.8116 90.5499 15.8253C90.5375 15.8664 90.525 15.9076 90.5126 15.935C90.5126 15.9487 90.5002 15.9624 90.5002 15.9761C90.4877 16.0173 90.4629 16.0584 90.4504 16.0995C90.4504 16.1132 90.438 16.1132 90.438 16.127C90.4131 16.1818 90.4007 16.2229 90.3758 16.2778C90.2017 16.648 89.9779 16.9771 89.7043 17.265L89.5551 17.4432C89.0825 17.978 88.7592 19.3765 88.7592 20.2952V26.3966C88.7592 27.233 88.1498 27.9048 87.3912 27.9048C86.6327 27.9048 86.0233 27.233 86.0233 26.3966V20.3089C86.0233 19.3902 85.7 17.9917 85.2274 17.4569L85.0782 17.2787C84.8046 16.9908 84.5808 16.6617 84.4067 16.2915C84.3818 16.2504 84.3569 16.1955 84.3445 16.1407C84.3445 16.127 84.3321 16.127 84.3321 16.1132C84.3196 16.0721 84.2948 16.031 84.2823 15.9898C84.2823 15.9761 84.2699 15.9624 84.2699 15.9487C84.2574 15.9076 84.245 15.8802 84.2326 15.839C84.2201 15.8253 84.2201 15.7979 84.2077 15.7842C84.1953 15.743 84.1828 15.7156 84.1828 15.6745C84.1704 15.6471 84.1704 15.6334 84.1704 15.6059C84.158 15.5785 84.158 15.5374 84.1455 15.51C84.1455 15.4825 84.1331 15.4551 84.1331 15.4277C84.1207 15.4003 84.1207 15.3591 84.1082 15.3317C84.1082 15.3043 84.0958 15.2769 84.0958 15.2494C84.0958 15.222 84.0833 15.1946 84.0833 15.1535C84.0833 15.126 84.0709 15.0849 84.0709 15.0575C84.0709 15.0301 84.0585 15.0026 84.0585 14.9752C84.0585 14.9341 84.0585 14.9067 84.046 14.8655C84.046 14.8381 84.046 14.8244 84.046 14.797C84.0212 14.7284 84.0212 14.6599 84.0212 14.605ZM89.0576 12.0547V14.7284L88.9706 14.8107C88.5105 15.2494 87.9509 15.4688 87.3788 15.4688C86.8068 15.4688 86.2472 15.2494 85.787 14.8244L85.7 14.7421V12.0547C84.9663 12.6443 84.5186 13.5904 84.5186 14.605C84.5186 14.701 84.5186 14.797 84.531 14.893V14.9067C84.5435 15.0026 84.5559 15.0986 84.5683 15.1809C84.5683 15.1946 84.5683 15.1946 84.5683 15.2083C84.5808 15.3043 84.6056 15.3866 84.6305 15.4825V15.4962C84.6554 15.5922 84.6803 15.6745 84.7176 15.7705C84.7176 15.7705 84.7176 15.7705 84.7176 15.7842C84.8544 16.1544 85.0533 16.4834 85.302 16.7851L85.414 16.9085C85.9363 17.4295 86.6202 17.7586 87.3788 17.7586C88.1374 17.7586 88.8214 17.4295 89.3312 16.8948L89.4431 16.7714C89.6919 16.4834 89.8908 16.1407 90.0276 15.7705C90.0276 15.7705 90.0276 15.7705 90.0276 15.7568C90.0649 15.6745 90.0898 15.5785 90.1147 15.4825V15.4688C90.1395 15.3866 90.152 15.2906 90.1768 15.1946C90.1768 15.1809 90.1768 15.1809 90.1768 15.1672C90.1893 15.0712 90.2017 14.9889 90.2142 14.893V14.8792C90.239 14.797 90.239 14.701 90.239 14.605C90.239 13.5904 89.7913 12.6443 89.0576 12.0547ZM86.5083 20.3089V26.3966C86.5083 26.9314 86.8938 27.3564 87.3788 27.3564C87.8638 27.3564 88.2493 26.9314 88.2493 26.3966V20.3089C88.2493 19.7193 88.3861 18.7869 88.6721 18.0191C88.2742 18.2111 87.8389 18.307 87.3788 18.307C86.9187 18.307 86.4834 18.2111 86.0855 18.0191C86.3715 18.7869 86.5083 19.733 86.5083 20.3089Z" fill="black" fill-opacity="0.8"/>
<path d="M79.8054 20.3363L79.6686 20.254V19.1297H80.9122V12.754C80.8376 12.7129 80.7754 12.6718 80.7257 12.6032C80.6137 12.4661 80.564 12.2878 80.5764 12.1096L80.6884 10.903H81.6335L81.7454 12.1096C81.7578 12.2878 81.7081 12.4661 81.5962 12.6032C81.5464 12.6718 81.4842 12.7129 81.4096 12.754V19.1297H82.6532V20.254L82.5164 20.3363C82.3672 20.4186 82.2677 20.5831 82.2677 20.775C82.2677 20.967 82.3547 21.1315 82.5164 21.2138L82.6532 21.2961V26.2595C82.6532 27.1644 81.9817 27.9049 81.1609 27.9049C80.3402 27.9049 79.6686 27.1644 79.6686 26.2595V21.2961L79.8054 21.2138C79.9547 21.1315 80.0541 20.967 80.0541 20.775C80.0541 20.5831 79.9547 20.4186 79.8054 20.3363ZM81.1858 11.4515H81.136L81.0739 12.1644C81.0739 12.2056 81.0863 12.233 81.0987 12.2467C81.1112 12.2604 81.1236 12.2741 81.1609 12.2741C81.1982 12.2741 81.2231 12.2604 81.2231 12.2467C81.2231 12.233 81.248 12.2056 81.248 12.1644L81.1858 11.4515ZM82.1558 19.9387V19.6782H80.1661V19.9387C80.4023 20.1306 80.5516 20.446 80.5516 20.775C80.5516 21.1178 80.4023 21.4195 80.1661 21.6114V25.9853H82.1558V21.6114C81.9195 21.4195 81.7703 21.1041 81.7703 20.775C81.7703 20.4323 81.9195 20.1306 82.1558 19.9387ZM81.1609 27.3564C81.621 27.3564 82.0065 26.9999 82.1185 26.5337H80.1909C80.3153 26.9999 80.7008 27.3564 81.1609 27.3564Z" fill="black" fill-opacity="0.8"/>
</g>
<defs>
<filter id="filter0_d" x="75.8443" y="9.54038" width="18.6387" height="20.2713" filterUnits="userSpaceOnUse" color-interpolation-filters="sRGB">
<feFlood flood-opacity="0" result="BackgroundImageFix"/>
<feColorMatrix in="SourceAlpha" type="matrix" values="0 0 0 0 0 0 0 0 0 0 0 0 0 0 0 0 0 0 127 0" result="hardAlpha"/>
<feOffset dx="0.272097" dy="0.272097"/>
<feGaussianBlur stdDeviation="0.680243"/>
<feComposite in2="hardAlpha" operator="out"/>
<feColorMatrix type="matrix" values="0 0 0 0 1 0 0 0 0 1 0 0 0 0 1 0 0 0 1 0"/>
<feBlend mode="normal" in2="BackgroundImageFix" result="effect1_dropShadow"/>
<feBlend mode="normal" in="SourceGraphic" in2="effect1_dropShadow" result="shape"/>
</filter>
<clipPath id="clip0">
<rect width="25.1709" height="25.1709" fill="white" transform="translate(61.9423 9.13795)"/>
</clipPath>
<clipPath id="clip1">
<rect width="15.9177" height="17.5503" fill="white" transform="matrix(-1 0 0 1 92.8505 10.6288)"/>
</clipPath>
</defs>
</svg>
