<svg width="120" height="120" viewBox="0 0 120 120" fill="none" xmlns="http://www.w3.org/2000/svg">
<g filter="url(#filter0_d)">
<rect x="10" y="10" width="100" height="100" fill="white"/>
</g>
<ellipse cx="59.8483" cy="60.8088" rx="30.736" ry="30.3243" fill="#56DCFA"/>
<g filter="url(#filter1_d)">
<path d="M59.9683 27.2217C41.3354 27.2217 26.1774 42.3821 26.1774 61.015C26.1774 79.648 41.3354 94.8084 59.9683 94.8084C78.6012 94.8084 93.7616 79.648 93.7616 61.015C93.7616 42.3821 78.6036 27.2217 59.9683 27.2217ZM30.4674 61.015C30.4605 55.9846 31.7483 51.037 34.2068 46.6483C37.5042 48.6225 41.2818 49.65 45.1249 49.6179C55.1683 49.6179 63.3097 42.9922 63.3097 34.8222C63.3086 33.7524 63.1668 32.6875 62.8879 31.6547C69.8142 32.3533 76.2715 35.4746 81.1217 40.4682C85.9719 45.4619 88.9036 52.0074 89.4001 58.9511C84.3951 59.6804 76.8829 62.2401 74.5972 70.0932C71.9756 79.0903 59.7633 75.0529 57.778 90.4373C50.3576 89.8726 43.4234 86.5291 38.3605 81.0748C33.2977 75.6205 30.4789 68.4569 30.4674 61.015V61.015Z" fill="#3D8324"/>
</g>
<path d="M60.109 73.0962C64.6611 73.0962 66.706 69.943 67.259 67.5168C67.297 67.3538 67.2978 67.1843 67.2611 67.021C67.2245 66.8577 67.1514 66.7048 67.0474 66.5737C66.9433 66.4426 66.811 66.3367 66.6603 66.264C66.5095 66.1912 66.3443 66.1534 66.1769 66.1535H54.0219C53.8545 66.1534 53.6893 66.1912 53.5386 66.264C53.3879 66.3367 53.2555 66.4426 53.1515 66.5737C53.0474 66.7048 52.9743 66.8577 52.9377 67.021C52.9011 67.1843 52.9018 67.3538 52.9399 67.5168C53.5119 69.943 55.5592 73.0962 60.109 73.0962Z" fill="#674B2F"/>
<path d="M50.5923 56.3771C49.9902 56.3766 49.4016 56.5547 48.9008 56.8888C48.3999 57.223 48.0095 57.6982 47.7787 58.2542C47.548 58.8103 47.4874 59.4224 47.6046 60.0129C47.7217 60.6034 48.0114 61.146 48.437 61.5718C48.8625 61.9977 49.4048 62.2878 49.9953 62.4055C50.5857 62.5231 51.1978 62.463 51.7541 62.2327C52.3103 62.0024 52.7858 61.6123 53.1203 61.1117C53.4549 60.6112 53.6334 60.0227 53.6334 59.4206C53.6334 58.6138 53.3131 57.84 52.7428 57.2693C52.1726 56.6986 51.3991 56.3777 50.5923 56.3771V56.3771Z" fill="#674B2F"/>
<path d="M69.628 62.4641C70.2299 62.4641 70.8184 62.2856 71.3189 61.9512C71.8194 61.6168 72.2095 61.1414 72.4398 60.5853C72.6702 60.0292 72.7305 59.4172 72.613 58.8268C72.4956 58.2365 72.2057 57.6941 71.7801 57.2685C71.3544 56.8429 70.8121 56.553 70.2218 56.4356C69.6314 56.3181 69.0194 56.3784 68.4633 56.6088C67.9072 56.8391 67.4318 57.2292 67.0974 57.7297C66.763 58.2302 66.5845 58.8186 66.5845 59.4206C66.5845 60.2278 66.9051 61.0019 67.4759 61.5727C68.0467 62.1435 68.8208 62.4641 69.628 62.4641V62.4641Z" fill="#674B2F"/>
<path d="M95.7326 96.3194C102.486 89.4196 107.108 80.7201 109.046 71.2618C110.984 61.8036 110.156 51.9872 106.66 42.9875C96.6264 17.1998 67.4806 4.3822 41.6905 14.4184L43.2468 18.4177C66.8418 9.23944 93.4852 20.9583 102.663 44.5438C105.86 52.7769 106.616 61.757 104.841 70.4087C103.066 79.0604 98.8342 87.0171 92.6534 93.3259L89.6027 90.3539C89.2816 90.0407 88.8748 89.8297 88.4337 89.7478C87.9927 89.6659 87.5372 89.7168 87.1251 89.8939C86.7129 90.071 86.3626 90.3664 86.1185 90.7427C85.8743 91.1191 85.7473 91.5594 85.7536 92.0079L85.868 100.085C85.8768 100.685 86.1231 101.257 86.5529 101.676C86.9826 102.094 87.5609 102.325 88.1608 102.318L96.2379 102.223C96.6863 102.217 97.1229 102.079 97.4926 101.825C97.8623 101.572 98.1484 101.214 98.3147 100.797C98.4811 100.381 98.5202 99.9247 98.4271 99.486C98.334 99.0474 98.113 98.6463 97.7918 98.3333L95.7326 96.3194Z" fill="#9ED627"/>
<path d="M42.7511 102.712C35.9525 99.7272 29.98 95.1369 25.3468 89.3351C20.7136 83.5332 17.5582 76.6933 16.1517 69.4029C14.7452 62.1126 15.1296 54.5897 17.272 47.4807C19.4144 40.3717 23.2506 33.889 28.4511 28.5897L31.1538 31.2114C31.4749 31.5247 31.8817 31.7356 32.3228 31.8175C32.7638 31.8994 33.2193 31.8486 33.6314 31.6715C34.0436 31.4943 34.3939 31.1989 34.638 30.8226C34.8822 30.4463 35.0091 30.0059 35.0029 29.5574L34.8885 21.4803C34.8847 21.183 34.8225 20.8894 34.7052 20.6163C34.5879 20.3432 34.4179 20.0958 34.205 19.8884C33.9921 19.681 33.7403 19.5176 33.4642 19.4076C33.1881 19.2975 32.8929 19.243 32.5957 19.2471L24.5186 19.3424C24.0666 19.3436 23.6253 19.48 23.2514 19.7339C22.8775 19.9878 22.588 20.3477 22.4202 20.7674C22.2524 21.1871 22.2139 21.6473 22.3096 22.089C22.4054 22.5308 22.631 22.9338 22.9575 23.2463L25.3718 25.5987C17.3292 33.7905 12.3388 44.4926 11.2333 55.9193C10.1278 67.346 12.974 78.8062 19.2971 88.3879C25.6203 97.9697 35.0378 105.093 45.9786 108.571C56.9194 112.048 68.7217 111.668 79.4163 107.495L77.8624 103.498C72.2486 105.695 66.2548 106.756 60.228 106.621C54.2012 106.486 48.2609 105.157 42.7511 102.712V102.712Z" fill="#9ED627"/>
<defs>
<filter id="filter0_d" x="0" y="0" width="120" height="120" filterUnits="userSpaceOnUse" color-interpolation-filters="sRGB">
<feFlood flood-opacity="0" result="BackgroundImageFix"/>
<feColorMatrix in="SourceAlpha" type="matrix" values="0 0 0 0 0 0 0 0 0 0 0 0 0 0 0 0 0 0 127 0" result="hardAlpha"/>
<feOffset/>
<feGaussianBlur stdDeviation="5"/>
<feComposite in2="hardAlpha" operator="out"/>
<feColorMatrix type="matrix" values="0 0 0 0 1 0 0 0 0 1 0 0 0 0 1 0 0 0 1 0"/>
<feBlend mode="normal" in2="BackgroundImageFix" result="effect1_dropShadow"/>
<feBlend mode="normal" in="SourceGraphic" in2="effect1_dropShadow" result="shape"/>
</filter>
<filter id="filter1_d" x="21.1774" y="23.2217" width="77.5843" height="77.5866" filterUnits="userSpaceOnUse" color-interpolation-filters="sRGB">
<feFlood flood-opacity="0" result="BackgroundImageFix"/>
<feColorMatrix in="SourceAlpha" type="matrix" values="0 0 0 0 0 0 0 0 0 0 0 0 0 0 0 0 0 0 127 0" result="hardAlpha"/>
<feOffset dy="1"/>
<feGaussianBlur stdDeviation="2.5"/>
<feComposite in2="hardAlpha" operator="out"/>
<feColorMatrix type="matrix" values="0 0 0 0 0 0 0 0 0 0 0 0 0 0 0 0 0 0 0.25 0"/>
<feBlend mode="normal" in2="BackgroundImageFix" result="effect1_dropShadow"/>
<feBlend mode="normal" in="SourceGraphic" in2="effect1_dropShadow" result="shape"/>
</filter>
</defs>
</svg>
