<?xml version="1.0" ?><svg style="enable-background:new 0 0 32 32;" version="1.1" viewBox="0 0 32 32" xml:space="preserve" xmlns="http://www.w3.org/2000/svg" xmlns:xlink="http://www.w3.org/1999/xlink"><style type="text/css">
	.st0{display:none;}
	.st1{display:inline;}
	.st2{fill:#0097E2;}
	.st3{fill:#3A3A3A;}
</style><g class="st0" id="grid"/><g id="icon"><g><g><path class="st2" d="M19.54,17.54c-0.26,0-0.51-0.1-0.71-0.29L16,14.41l-2.83,2.83c-0.39,0.39-1.02,0.39-1.41,0     s-0.39-1.02,0-1.41l3.54-3.54C15.48,12.11,15.73,12,16,12l0,0c0.27,0,0.52,0.11,0.71,0.29l3.54,3.54c0.39,0.39,0.39,1.02,0,1.41     C20.05,17.44,19.79,17.54,19.54,17.54z"/></g></g><g><path class="st3" d="M16,31C7.73,31,1,24.27,1,16S7.73,1,16,1c8.27,0,15,6.73,15,15S24.27,31,16,31z M16,3C8.83,3,3,8.83,3,16    s5.83,13,13,13c7.17,0,13-5.83,13-13S23.17,3,16,3z"/></g></g></svg>